Kite One-Regular.otf.ufo
<glyph name="exclam" format="1">
  <advance width="295"/>
  <unicode hex="0021"/>
  <outline>
    <contour>
      <point x="128" y="185" type="curve" smooth="yes" name="hr00"/>
      <point x="139" y="185" smooth="yes"/>
      <point x="162" y="188" smooth="yes"/>
      <point x="165" y="209" type="curve" smooth="yes"/>
      <point x="244" y="752" type="line" smooth="yes"/>
      <point x="247" y="773" smooth="yes"/>
      <point x="249" y="790" smooth="yes"/>
      <point x="249" y="795" type="curve" smooth="yes"/>
      <point x="249" y="820" smooth="yes"/>
      <point x="225" y="827" smooth="yes"/>
      <point x="207" y="827" type="curve" smooth="yes"/>
      <point x="188" y="827" smooth="yes"/>
      <point x="163" y="823" smooth="yes"/>
      <point x="160" y="788" type="curve" smooth="yes"/>
      <point x="104" y="222" type="line" smooth="yes"/>
      <point x="103" y="213" smooth="yes"/>
      <point x="103" y="207" smooth="yes"/>
      <point x="103" y="203" type="curve" smooth="yes"/>
      <point x="103" y="187" smooth="yes"/>
      <point x="117" y="185" smooth="yes"/>
    </contour>
    <contour>
      <point x="161" y="48" type="curve" smooth="yes"/>
      <point x="161" y="69" smooth="yes"/>
      <point x="151" y="85" smooth="yes"/>
      <point x="116" y="85" type="curve" smooth="yes"/>
      <point x="70" y="85" smooth="yes"/>
      <point x="59" y="55" smooth="yes"/>
      <point x="59" y="24" type="curve" smooth="yes"/>
      <point x="59" y="3" smooth="yes"/>
      <point x="69" y="-14" smooth="yes"/>
      <point x="104" y="-14" type="curve" smooth="yes"/>
      <point x="150" y="-14" smooth="yes"/>
      <point x="161" y="17" smooth="yes"/>
    </contour>
  </outline>
</glyph>
<glyph name="quotedbl" format="1">
  <advance width="430"/>
  <unicode hex="0022"/>
  <outline>
    <contour>
      <point x="124" y="628" type="curve" smooth="yes" name="hr00"/>
      <point x="135" y="628" smooth="yes"/>
      <point x="156" y="631" smooth="yes"/>
      <point x="161" y="652" type="curve" smooth="yes"/>
      <point x="207" y="863" smooth="yes"/>
      <point x="210" y="882" smooth="yes"/>
      <point x="210" y="882" type="curve" smooth="yes"/>
      <point x="210" y="906" smooth="yes"/>
      <point x="187" y="913" smooth="yes"/>
      <point x="169" y="913" type="curve" smooth="yes"/>
      <point x="150" y="913" smooth="yes"/>
      <point x="124" y="909" smooth="yes"/>
      <point x="121" y="874" type="curve" smooth="yes"/>
      <point x="101" y="670" smooth="yes"/>
      <point x="100" y="650" smooth="yes"/>
      <point x="100" y="646" type="curve" smooth="yes"/>
      <point x="100" y="632" smooth="yes"/>
      <point x="109" y="628" smooth="yes"/>
    </contour>
    <contour>
      <point x="284" y="628" type="curve" smooth="yes"/>
      <point x="295" y="628" smooth="yes"/>
      <point x="316" y="631" smooth="yes"/>
      <point x="321" y="652" type="curve" smooth="yes"/>
      <point x="367" y="863" smooth="yes"/>
      <point x="370" y="882" smooth="yes"/>
      <point x="370" y="882" type="curve" smooth="yes"/>
      <point x="370" y="906" smooth="yes"/>
      <point x="347" y="913" smooth="yes"/>
      <point x="329" y="913" type="curve" smooth="yes"/>
      <point x="310" y="913" smooth="yes"/>
      <point x="284" y="909" smooth="yes"/>
      <point x="281" y="874" type="curve" smooth="yes"/>
      <point x="261" y="670" smooth="yes"/>
      <point x="260" y="650" smooth="yes"/>
      <point x="260" y="646" type="curve" smooth="yes"/>
      <point x="260" y="632" smooth="yes"/>
      <point x="269" y="628" smooth="yes"/>
    </contour>
  </outline>
</glyph>
<glyph name="numbersign" format="1">
  <advance width="831"/>
  <unicode hex="0023"/>
  <outline>
    <contour>
      <point x="142" y="569" type="line" smooth="yes" name="hr00"/>
      <point x="125" y="569" smooth="yes"/>
      <point x="112" y="552" smooth="yes"/>
      <point x="112" y="534" type="curve" smooth="yes"/>
      <point x="112" y="519" smooth="yes"/>
      <point x="119" y="503" smooth="yes"/>
      <point x="133" y="503" type="curve" smooth="yes"/>
      <point x="255" y="503" type="line"/>
      <point x="221" y="340" type="line"/>
      <point x="94" y="340" type="line" smooth="yes"/>
      <point x="76" y="340" smooth="yes"/>
      <point x="65" y="320" smooth="yes"/>
      <point x="65" y="302" type="curve" smooth="yes"/>
      <point x="65" y="288" smooth="yes"/>
      <point x="72" y="274" smooth="yes"/>
      <point x="86" y="274" type="curve" smooth="yes"/>
      <point x="207" y="274" type="line"/>
      <point x="154" y="19" type="line" smooth="yes"/>
      <point x="152" y="7" smooth="yes"/>
      <point x="151" y="2" smooth="yes"/>
      <point x="151" y="0" type="curve" smooth="yes"/>
      <point x="152" y="-11" smooth="yes"/>
      <point x="160" y="-14" smooth="yes"/>
      <point x="176" y="-14" type="curve" smooth="yes"/>
      <point x="198" y="-14" smooth="yes"/>
      <point x="221" y="-11" smooth="yes"/>
      <point x="226" y="11" type="curve" smooth="yes"/>
      <point x="281" y="274" type="line"/>
      <point x="487" y="274" type="line"/>
      <point x="434" y="19" type="line" smooth="yes"/>
      <point x="432" y="7" smooth="yes"/>
      <point x="431" y="2" smooth="yes"/>
      <point x="431" y="0" type="curve" smooth="yes"/>
      <point x="432" y="-11" smooth="yes"/>
      <point x="440" y="-14" smooth="yes"/>
      <point x="456" y="-14" type="curve" smooth="yes"/>
      <point x="478" y="-14" smooth="yes"/>
      <point x="501" y="-11" smooth="yes"/>
      <point x="506" y="11" type="curve" smooth="yes"/>
      <point x="561" y="274" type="line"/>
      <point x="687" y="274" type="line" smooth="yes"/>
      <point x="709" y="274" smooth="yes"/>
      <point x="718" y="295" smooth="yes"/>
      <point x="718" y="311" type="curve" smooth="yes"/>
      <point x="718" y="326" smooth="yes"/>
      <point x="709" y="340" smooth="yes"/>
      <point x="696" y="340" type="curve" smooth="yes"/>
      <point x="575" y="340" type="line"/>
      <point x="609" y="503" type="line"/>
      <point x="737" y="503" type="line" smooth="yes"/>
      <point x="753" y="503" smooth="yes"/>
      <point x="766" y="522" smooth="yes"/>
      <point x="766" y="538" type="curve" smooth="yes"/>
      <point x="766" y="554" smooth="yes"/>
      <point x="758" y="569" smooth="yes"/>
      <point x="739" y="569" type="curve" smooth="yes"/>
      <point x="623" y="569" type="line"/>
      <point x="676" y="819" type="line" smooth="yes"/>
      <point x="678" y="829" smooth="yes"/>
      <point x="679" y="837" smooth="yes"/>
      <point x="679" y="840" type="curve" smooth="yes"/>
      <point x="678" y="851" smooth="yes"/>
      <point x="666" y="857" smooth="yes"/>
      <point x="651" y="857" type="curve" smooth="yes"/>
      <point x="627" y="857" smooth="yes"/>
      <point x="609" y="853" smooth="yes"/>
      <point x="604" y="831" type="curve" smooth="yes"/>
      <point x="549" y="569" type="line"/>
      <point x="343" y="569" type="line"/>
      <point x="396" y="819" type="line" smooth="yes"/>
      <point x="398" y="829" smooth="yes"/>
      <point x="399" y="837" smooth="yes"/>
      <point x="399" y="840" type="curve" smooth="yes"/>
      <point x="398" y="851" smooth="yes"/>
      <point x="386" y="857" smooth="yes"/>
      <point x="371" y="857" type="curve" smooth="yes"/>
      <point x="347" y="857" smooth="yes"/>
      <point x="329" y="853" smooth="yes"/>
      <point x="324" y="831" type="curve" smooth="yes"/>
      <point x="269" y="569" type="line"/>
    </contour>
    <contour>
      <point x="329" y="503" type="line"/>
      <point x="535" y="503" type="line"/>
      <point x="501" y="340" type="line"/>
      <point x="295" y="340" type="line"/>
    </contour>
  </outline>
</glyph>
<glyph name="dollar" format="1">
  <advance width="672"/>
  <unicode hex="0024"/>
  <outline>
    <contour>
      <point x="453" y="930" type="line" name="hr00"/>
      <point x="453" y="959" smooth="yes"/>
      <point x="450" y="963" smooth="yes"/>
      <point x="426" y="963" type="curve" smooth="yes"/>
      <point x="405" y="963" smooth="yes"/>
      <point x="399" y="958" smooth="yes"/>
      <point x="394" y="930" type="curve" smooth="yes"/>
      <point x="381" y="860" type="line"/>
      <point x="247" y="855" smooth="yes"/>
      <point x="140" y="781" smooth="yes"/>
      <point x="140" y="645" type="curve" smooth="yes"/>
      <point x="140" y="542"/>
      <point x="222" y="478"/>
      <point x="304" y="418" type="curve"/>
      <point x="239" y="53" type="line"/>
      <point x="188" y="61"/>
      <point x="154" y="87"/>
      <point x="127" y="126" type="curve"/>
      <point x="108" y="157" smooth="yes"/>
      <point x="102" y="189" smooth="yes"/>
      <point x="77" y="189" type="curve" smooth="yes"/>
      <point x="56" y="189" smooth="yes"/>
      <point x="45" y="172" smooth="yes"/>
      <point x="45" y="154" type="curve" smooth="yes"/>
      <point x="45" y="116" smooth="yes"/>
      <point x="74" y="73" smooth="yes"/>
      <point x="104" y="48" type="curve" smooth="yes"/>
      <point x="140" y="17"/>
      <point x="183" y="-1"/>
      <point x="228" y="-9" type="curve"/>
      <point x="215" y="-87" type="line"/>
      <point x="215" y="-91" smooth="yes"/>
      <point x="214" y="-95" smooth="yes"/>
      <point x="214" y="-98" type="curve" smooth="yes"/>
      <point x="214" y="-118" smooth="yes"/>
      <point x="222" y="-120" smooth="yes"/>
      <point x="242" y="-120" type="curve" smooth="yes"/>
      <point x="263" y="-120" smooth="yes"/>
      <point x="269" y="-115" smooth="yes"/>
      <point x="274" y="-87" type="curve" smooth="yes"/>
      <point x="287" y="-14" type="line"/>
      <point x="440" y="-13" smooth="yes"/>
      <point x="549" y="74" smooth="yes"/>
      <point x="549" y="225" type="curve" smooth="yes"/>
      <point x="549" y="337"/>
      <point x="458" y="405"/>
      <point x="372" y="467" type="curve"/>
      <point x="429" y="793" type="line"/>
      <point x="508" y="777" smooth="yes"/>
      <point x="536" y="719" smooth="yes"/>
      <point x="568" y="719" type="curve" smooth="yes"/>
      <point x="585" y="719" smooth="yes"/>
      <point x="596" y="730" smooth="yes"/>
      <point x="596" y="750" type="curve" smooth="yes"/>
      <point x="596" y="792"/>
      <point x="524" y="842"/>
      <point x="440" y="856" type="curve"/>
    </contour>
    <contour>
      <point x="469" y="221" type="curve" smooth="yes"/>
      <point x="469" y="124"/>
      <point x="399" y="57"/>
      <point x="298" y="50" type="curve"/>
      <point x="356" y="379" type="line"/>
      <point x="418" y="333" smooth="yes"/>
      <point x="469" y="285" smooth="yes"/>
    </contour>
    <contour>
      <point x="221" y="647" type="curve" smooth="yes"/>
      <point x="221" y="735"/>
      <point x="281" y="791"/>
      <point x="370" y="796" type="curve"/>
      <point x="319" y="505" type="line"/>
      <point x="264" y="547" smooth="yes"/>
      <point x="221" y="590" smooth="yes"/>
    </contour>
  </outline>
</glyph>
<glyph name="ampersand" format="1">
  <advance width="735"/>
  <unicode hex="0026"/>
  <outline>
    <contour>
      <point x="595" y="65" type="line" smooth="yes" name="hr00"/>
      <point x="644" y="3" smooth="yes"/>
      <point x="674" y="-14" smooth="yes"/>
      <point x="703" y="-14" type="curve" smooth="yes"/>
      <point x="723" y="-14" smooth="yes"/>
      <point x="742" y="0" smooth="yes"/>
      <point x="742" y="19" type="curve" smooth="yes"/>
      <point x="742" y="55" smooth="yes"/>
      <point x="709" y="35" smooth="yes"/>
      <point x="654" y="107" type="curve" smooth="yes"/>
      <point x="617" y="154" type="line"/>
      <point x="680" y="248" smooth="yes"/>
      <point x="688" y="307" smooth="yes"/>
      <point x="688" y="329" type="curve" smooth="yes"/>
      <point x="688" y="351" smooth="yes"/>
      <point x="676" y="363" smooth="yes"/>
      <point x="649" y="363" type="curve" smooth="yes"/>
      <point x="604" y="363"/>
      <point x="627" y="325"/>
      <point x="568" y="217" type="curve"/>
      <point x="373" y="469" type="line"/>
      <point x="416" y="495" type="line" smooth="yes"/>
      <point x="505" y="549" smooth="yes"/>
      <point x="582" y="606" smooth="yes"/>
      <point x="582" y="708" type="curve" smooth="yes"/>
      <point x="582" y="811" smooth="yes"/>
      <point x="496" y="872" smooth="yes"/>
      <point x="396" y="872" type="curve" smooth="yes"/>
      <point x="275" y="872" smooth="yes"/>
      <point x="182" y="805" smooth="yes"/>
      <point x="182" y="678" type="curve" smooth="yes"/>
      <point x="182" y="604"/>
      <point x="216" y="555"/>
      <point x="263" y="489" type="curve"/>
      <point x="213" y="459" type="line" smooth="yes"/>
      <point x="119" y="403" smooth="yes"/>
      <point x="59" y="326" smooth="yes"/>
      <point x="59" y="220" type="curve" smooth="yes"/>
      <point x="59" y="73" smooth="yes"/>
      <point x="168" y="-14" smooth="yes"/>
      <point x="315" y="-14" type="curve" smooth="yes"/>
      <point x="418" y="-14"/>
      <point x="506" y="18"/>
      <point x="572" y="94" type="curve"/>
    </contour>
    <contour>
      <point x="323" y="52" type="curve" smooth="yes"/>
      <point x="219" y="52" smooth="yes"/>
      <point x="139" y="118" smooth="yes"/>
      <point x="139" y="222" type="curve" smooth="yes"/>
      <point x="139" y="302" smooth="yes"/>
      <point x="189" y="362" smooth="yes"/>
      <point x="256" y="402" type="curve" smooth="yes"/>
      <point x="306" y="432" type="line"/>
      <point x="527" y="151" type="line"/>
      <point x="485" y="92" smooth="yes"/>
      <point x="409" y="52" smooth="yes"/>
    </contour>
    <contour>
      <point x="503" y="705" type="curve" smooth="yes"/>
      <point x="502" y="626" smooth="yes"/>
      <point x="435" y="585" smooth="yes"/>
      <point x="366" y="545" type="curve" smooth="yes"/>
      <point x="333" y="526" type="line"/>
      <point x="296" y="572" smooth="yes"/>
      <point x="260" y="617" smooth="yes"/>
      <point x="260" y="678" type="curve" smooth="yes"/>
      <point x="260" y="759" smooth="yes"/>
      <point x="312" y="807" smooth="yes"/>
      <point x="395" y="807" type="curve" smooth="yes"/>
      <point x="455" y="807" smooth="yes"/>
      <point x="503" y="766" smooth="yes"/>
    </contour>
  </outline>
</glyph>
<glyph name="quotesingle" format="1">
  <advance width="270"/>
  <unicode hex="0027"/>
  <outline>
    <contour>
      <point x="124" y="628" type="curve" smooth="yes" name="hr00"/>
      <point x="135" y="628" smooth="yes"/>
      <point x="156" y="631" smooth="yes"/>
      <point x="161" y="652" type="curve" smooth="yes"/>
      <point x="207" y="863" smooth="yes"/>
      <point x="210" y="882" smooth="yes"/>
      <point x="210" y="882" type="curve" smooth="yes"/>
      <point x="210" y="906" smooth="yes"/>
      <point x="187" y="913" smooth="yes"/>
      <point x="169" y="913" type="curve" smooth="yes"/>
      <point x="150" y="913" smooth="yes"/>
      <point x="124" y="909" smooth="yes"/>
      <point x="121" y="874" type="curve" smooth="yes"/>
      <point x="101" y="670" smooth="yes"/>
      <point x="100" y="650" smooth="yes"/>
      <point x="100" y="646" type="curve" smooth="yes"/>
      <point x="100" y="632" smooth="yes"/>
      <point x="109" y="628" smooth="yes"/>
    </contour>
  </outline>
</glyph>
<glyph name="parenleft" format="1">
  <advance width="434"/>
  <unicode hex="0028"/>
  <outline>
    <contour>
      <point x="283" y="-34" type="curve" smooth="yes" name="hr00"/>
      <point x="180" y="-34" smooth="yes"/>
      <point x="149" y="135" smooth="yes"/>
      <point x="149" y="301" type="curve" smooth="yes"/>
      <point x="149" y="537" smooth="yes"/>
      <point x="222" y="877" smooth="yes"/>
      <point x="402" y="877" type="curve" smooth="yes"/>
      <point x="425" y="877" smooth="yes"/>
      <point x="434" y="894" smooth="yes"/>
      <point x="434" y="912" type="curve" smooth="yes"/>
      <point x="434" y="937" smooth="yes"/>
      <point x="420" y="947" smooth="yes"/>
      <point x="402" y="947" type="curve" smooth="yes"/>
      <point x="172" y="947" smooth="yes"/>
      <point x="69" y="595" smooth="yes"/>
      <point x="69" y="299" type="curve" smooth="yes"/>
      <point x="69" y="83" smooth="yes"/>
      <point x="119" y="-104" smooth="yes"/>
      <point x="282" y="-104" type="curve" smooth="yes"/>
      <point x="302" y="-104" smooth="yes"/>
      <point x="317" y="-91" smooth="yes"/>
      <point x="317" y="-70" type="curve" smooth="yes"/>
      <point x="317" y="-49" smooth="yes"/>
      <point x="308" y="-34" smooth="yes"/>
    </contour>
  </outline>
</glyph>
<glyph name="asterisk" format="1">
  <advance width="570"/>
  <unicode hex="002A"/>
  <outline>
    <contour>
      <point x="341" y="613" type="line"/>
      <point x="346" y="739" smooth="yes"/>
      <point x="347" y="750" smooth="yes"/>
      <point x="347" y="751" type="curve" smooth="yes"/>
      <point x="347" y="779" smooth="yes"/>
      <point x="324" y="785" smooth="yes"/>
      <point x="309" y="785" type="curve" smooth="yes"/>
      <point x="290" y="785" smooth="yes"/>
      <point x="269" y="780" smooth="yes"/>
      <point x="269" y="749" type="curve" smooth="yes"/>
      <point x="269" y="748" smooth="yes"/>
      <point x="271" y="711" smooth="yes"/>
      <point x="273" y="689" type="curve" smooth="yes"/>
      <point x="279" y="612" type="line"/>
      <point x="147" y="666" type="line" smooth="yes"/>
      <point x="144" y="667" smooth="yes"/>
      <point x="141" y="667" smooth="yes"/>
      <point x="137" y="667" type="curve" smooth="yes"/>
      <point x="114" y="667" smooth="yes"/>
      <point x="100" y="638" smooth="yes"/>
      <point x="100" y="623" type="curve" smooth="yes"/>
      <point x="100" y="607" smooth="yes"/>
      <point x="105" y="594" smooth="yes"/>
      <point x="131" y="587" type="curve" smooth="yes"/>
      <point x="260" y="554" type="line"/>
      <point x="168" y="444" type="line" smooth="yes"/>
      <point x="163" y="438" smooth="yes"/>
      <point x="162" y="432" smooth="yes"/>
      <point x="162" y="427" type="curve" smooth="yes"/>
      <point x="162" y="405" smooth="yes"/>
      <point x="184" y="384" smooth="yes"/>
      <point x="207" y="384" type="curve" smooth="yes"/>
      <point x="219" y="384" smooth="yes"/>
      <point x="226" y="386" smooth="yes"/>
      <point x="237" y="403" type="curve" smooth="yes"/>
      <point x="310" y="516" type="line"/>
      <point x="386" y="396" type="line" smooth="yes"/>
      <point x="391" y="387" smooth="yes"/>
      <point x="400" y="383" smooth="yes"/>
      <point x="410" y="383" type="curve" smooth="yes" name="hr01"/>
      <point x="432" y="383" smooth="yes"/>
      <point x="456" y="402" smooth="yes"/>
      <point x="456" y="426" type="curve" smooth="yes"/>
      <point x="456" y="436" smooth="yes"/>
      <point x="453" y="440" smooth="yes"/>
      <point x="448" y="446" type="curve" smooth="yes"/>
      <point x="360" y="553" type="line"/>
      <point x="498" y="587" type="line" smooth="yes"/>
      <point x="513" y="591" smooth="yes"/>
      <point x="520" y="605" smooth="yes"/>
      <point x="520" y="618" type="curve" smooth="yes"/>
      <point x="520" y="639" smooth="yes"/>
      <point x="508" y="663" smooth="yes"/>
      <point x="483" y="663" type="curve" smooth="yes"/>
      <point x="478" y="663" smooth="yes"/>
      <point x="472" y="662" smooth="yes"/>
      <point x="467" y="660" type="curve" smooth="yes"/>
    </contour>
  </outline>
</glyph>
<glyph name="plus" format="1">
  <advance width="674"/>
  <unicode hex="002B"/>
  <outline>
    <contour>
      <point x="273" y="164" type="line" smooth="yes" name="hr00"/>
      <point x="271" y="148" smooth="yes"/>
      <point x="285" y="141" smooth="yes"/>
      <point x="302" y="141" type="curve" smooth="yes"/>
      <point x="317" y="141" smooth="yes"/>
      <point x="337" y="148" smooth="yes"/>
      <point x="338" y="164" type="curve" smooth="yes"/>
      <point x="365" y="378" type="line"/>
      <point x="561" y="378" type="line" smooth="yes"/>
      <point x="576" y="378" smooth="yes"/>
      <point x="588" y="393" smooth="yes"/>
      <point x="589" y="409" type="curve" smooth="yes"/>
      <point x="590" y="426" smooth="yes"/>
      <point x="582" y="444" smooth="yes"/>
      <point x="567" y="444" type="curve" smooth="yes"/>
      <point x="373" y="444" type="line"/>
      <point x="397" y="645" type="line"/>
      <point x="400" y="661" smooth="yes"/>
      <point x="382" y="669" smooth="yes"/>
      <point x="366" y="669" type="curve" smooth="yes"/>
      <point x="350" y="669"/>
      <point x="334" y="661"/>
      <point x="331" y="645" type="curve"/>
      <point x="308" y="444" type="line"/>
      <point x="112" y="444" type="line" smooth="yes"/>
      <point x="96" y="444" smooth="yes"/>
      <point x="86" y="430" smooth="yes"/>
      <point x="85" y="413" type="curve" smooth="yes"/>
      <point x="84" y="398" smooth="yes"/>
      <point x="89" y="378" smooth="yes"/>
      <point x="105" y="378" type="curve" smooth="yes"/>
      <point x="299" y="378" type="line"/>
    </contour>
  </outline>
</glyph>
<glyph name="comma" format="1">
  <advance width="231"/>
  <unicode hex="002C"/>
  <outline>
    <contour>
      <point x="73" y="-202" type="curve" smooth="yes" name="hr00"/>
      <point x="82" y="-202" smooth="yes"/>
      <point x="105" y="-199" smooth="yes"/>
      <point x="112" y="-178" type="curve" smooth="yes"/>
      <point x="166" y="-17" smooth="yes"/>
      <point x="181" y="32" smooth="yes"/>
      <point x="181" y="53" type="curve" smooth="yes"/>
      <point x="181" y="75" smooth="yes"/>
      <point x="161" y="83" smooth="yes"/>
      <point x="143" y="83" type="curve" smooth="yes"/>
      <point x="124" y="83" smooth="yes"/>
      <point x="98" y="79" smooth="yes"/>
      <point x="92" y="44" type="curve" smooth="yes"/>
      <point x="56" y="-152" smooth="yes"/>
      <point x="50" y="-179" smooth="yes"/>
      <point x="50" y="-184" type="curve" smooth="yes"/>
      <point x="50" y="-198" smooth="yes"/>
      <point x="57" y="-202" smooth="yes"/>
    </contour>
  </outline>
</glyph>
<glyph name="hyphen" format="1">
  <advance width="458"/>
  <unicode hex="002D"/>
  <outline>
    <contour>
      <point x="94" y="297" type="line" smooth="yes" name="hr00"/>
      <point x="75" y="297" smooth="yes"/>
      <point x="68" y="279" smooth="yes"/>
      <point x="68" y="264" type="curve" smooth="yes"/>
      <point x="68" y="251" smooth="yes"/>
      <point x="75" y="239" smooth="yes"/>
      <point x="87" y="239" type="curve" smooth="yes"/>
      <point x="361" y="239" type="line" smooth="yes"/>
      <point x="378" y="239" smooth="yes"/>
      <point x="388" y="254" smooth="yes"/>
      <point x="388" y="269" type="curve" smooth="yes"/>
      <point x="388" y="283" smooth="yes"/>
      <point x="380" y="297" smooth="yes"/>
      <point x="365" y="297" type="curve" smooth="yes"/>
    </contour>
  </outline>
</glyph>
<glyph name="period" format="1">
  <advance width="202"/>
  <unicode hex="002E"/>
  <outline>
    <contour>
      <point x="152" y="48" type="curve" smooth="yes" name="hr00"/>
      <point x="152" y="69" smooth="yes"/>
      <point x="142" y="85" smooth="yes"/>
      <point x="107" y="85" type="curve" smooth="yes"/>
      <point x="61" y="85" smooth="yes"/>
      <point x="50" y="55" smooth="yes"/>
      <point x="50" y="24" type="curve" smooth="yes"/>
      <point x="50" y="3" smooth="yes"/>
      <point x="60" y="-14" smooth="yes"/>
      <point x="95" y="-14" type="curve" smooth="yes"/>
      <point x="141" y="-14" smooth="yes"/>
      <point x="152" y="17" smooth="yes"/>
    </contour>
  </outline>
</glyph>
<glyph name="zero" format="1">
  <advance width="672"/>
  <unicode hex="0030"/>
  <outline>
    <contour>
      <point x="367" y="857" type="curve" smooth="yes" name="hr00"/>
      <point x="104" y="857" smooth="yes"/>
      <point x="27" y="539" smooth="yes"/>
      <point x="27" y="328" type="curve" smooth="yes"/>
      <point x="27" y="151" smooth="yes"/>
      <point x="90" y="-14" smooth="yes"/>
      <point x="294" y="-14" type="curve" smooth="yes"/>
      <point x="559" y="-14" smooth="yes"/>
      <point x="634" y="302" smooth="yes"/>
      <point x="634" y="515" type="curve" smooth="yes"/>
      <point x="634" y="690" smooth="yes"/>
      <point x="571" y="857" smooth="yes"/>
    </contour>
    <contour>
      <point x="291" y="53" type="curve" smooth="yes"/>
      <point x="141" y="53" smooth="yes"/>
      <point x="111" y="199" smooth="yes"/>
      <point x="111" y="321" type="curve" smooth="yes"/>
      <point x="111" y="490" smooth="yes"/>
      <point x="166" y="790" smooth="yes"/>
      <point x="364" y="790" type="curve" smooth="yes"/>
      <point x="508" y="790" smooth="yes"/>
      <point x="552" y="653" smooth="yes"/>
      <point x="552" y="539" type="curve" smooth="yes"/>
      <point x="552" y="377" smooth="yes"/>
      <point x="508" y="53" smooth="yes"/>
    </contour>
  </outline>
</glyph>
<glyph name="one" format="1">
  <advance width="672"/>
  <unicode hex="0031"/>
  <outline>
    <contour>
      <point x="293" y="66" type="line" name="hr00"/>
      <point x="132" y="66" type="line" smooth="yes"/>
      <point x="109" y="66" smooth="yes"/>
      <point x="93" y="53" smooth="yes"/>
      <point x="93" y="31" type="curve" smooth="yes"/>
      <point x="93" y="9" smooth="yes"/>
      <point x="105" y="0" smooth="yes"/>
      <point x="128" y="0" type="curve" smooth="yes"/>
      <point x="531" y="0" type="line" smooth="yes"/>
      <point x="554" y="0" smooth="yes"/>
      <point x="570" y="13" smooth="yes"/>
      <point x="570" y="35" type="curve" smooth="yes"/>
      <point x="570" y="57" smooth="yes"/>
      <point x="558" y="66" smooth="yes"/>
      <point x="535" y="66" type="curve" smooth="yes"/>
      <point x="374" y="66" type="line"/>
      <point x="455" y="757" type="line" smooth="yes"/>
      <point x="459" y="789" smooth="yes"/>
      <point x="462" y="824" smooth="yes"/>
      <point x="462" y="830" type="curve" smooth="yes"/>
      <point x="462" y="850" smooth="yes"/>
      <point x="445" y="860" smooth="yes"/>
      <point x="422" y="860" type="curve" smooth="yes"/>
      <point x="347" y="860" smooth="yes"/>
      <point x="396" y="747" smooth="yes"/>
      <point x="97" y="552" type="curve" smooth="yes"/>
      <point x="85" y="544" smooth="yes"/>
      <point x="76" y="535" smooth="yes"/>
      <point x="76" y="521" type="curve" smooth="yes"/>
      <point x="76" y="500" smooth="yes"/>
      <point x="91" y="490" smooth="yes"/>
      <point x="112" y="490" type="curve" smooth="yes"/>
      <point x="164" y="490"/>
      <point x="320" y="627"/>
      <point x="370" y="701" type="curve"/>
    </contour>
  </outline>
</glyph>
<glyph name="two" format="1">
  <advance width="672"/>
  <unicode hex="0032"/>
  <outline>
    <contour>
      <point x="62" y="71" type="line" smooth="yes" name="hr00"/>
      <point x="52" y="62" smooth="yes"/>
      <point x="47" y="47" smooth="yes"/>
      <point x="47" y="35" type="curve" smooth="yes"/>
      <point x="47" y="17" smooth="yes"/>
      <point x="59" y="0" smooth="yes"/>
      <point x="90" y="0" type="curve" smooth="yes"/>
      <point x="535" y="0" type="line" smooth="yes"/>
      <point x="560" y="0" smooth="yes"/>
      <point x="577" y="11" smooth="yes"/>
      <point x="577" y="38" type="curve" smooth="yes"/>
      <point x="577" y="57" smooth="yes"/>
      <point x="564" y="69" smooth="yes"/>
      <point x="545" y="69" type="curve" smooth="yes"/>
      <point x="165" y="69" type="line"/>
      <point x="306" y="199" type="line" smooth="yes"/>
      <point x="433" y="316" smooth="yes"/>
      <point x="582" y="466" smooth="yes"/>
      <point x="582" y="640" type="curve" smooth="yes"/>
      <point x="582" y="776" smooth="yes"/>
      <point x="484" y="857" smooth="yes"/>
      <point x="349" y="857" type="curve" smooth="yes"/>
      <point x="195" y="857" smooth="yes"/>
      <point x="113" y="763" smooth="yes"/>
      <point x="113" y="721" type="curve" smooth="yes"/>
      <point x="113" y="700" smooth="yes"/>
      <point x="126" y="689" smooth="yes"/>
      <point x="146" y="689" type="curve" smooth="yes"/>
      <point x="199" y="689" smooth="yes"/>
      <point x="212" y="790" smooth="yes"/>
      <point x="343" y="790" type="curve" smooth="yes"/>
      <point x="440" y="790" smooth="yes"/>
      <point x="500" y="731" smooth="yes"/>
      <point x="500" y="634" type="curve" smooth="yes"/>
      <point x="500" y="493" smooth="yes"/>
      <point x="389" y="376" smooth="yes"/>
      <point x="255" y="251" type="curve" smooth="yes"/>
    </contour>
  </outline>
</glyph>
<glyph name="three" format="1">
  <advance width="672"/>
  <unicode hex="0033"/>
  <outline>
    <contour>
      <point x="265" y="489" type="curve" smooth="yes" name="hr00"/>
      <point x="240" y="489" smooth="yes"/>
      <point x="226" y="480" smooth="yes"/>
      <point x="226" y="455" type="curve" smooth="yes"/>
      <point x="226" y="436" smooth="yes"/>
      <point x="242" y="423" smooth="yes"/>
      <point x="260" y="423" type="curve" smooth="yes"/>
      <point x="379" y="423" smooth="yes"/>
      <point x="489" y="370" smooth="yes"/>
      <point x="489" y="246" type="curve" smooth="yes"/>
      <point x="489" y="129" smooth="yes"/>
      <point x="388" y="57" smooth="yes"/>
      <point x="270" y="57" type="curve" smooth="yes"/>
      <point x="181" y="57" smooth="yes"/>
      <point x="109" y="101" smooth="yes"/>
      <point x="73" y="183" type="curve" smooth="yes"/>
      <point x="69" y="195" smooth="yes"/>
      <point x="60" y="202" smooth="yes"/>
      <point x="42" y="202" type="curve" smooth="yes"/>
      <point x="22" y="202" smooth="yes"/>
      <point x="8" y="189" smooth="yes"/>
      <point x="8" y="168" type="curve" smooth="yes"/>
      <point x="8" y="87" smooth="yes"/>
      <point x="123" y="-14" smooth="yes"/>
      <point x="260" y="-14" type="curve" smooth="yes"/>
      <point x="438" y="-14" smooth="yes"/>
      <point x="571" y="70" smooth="yes"/>
      <point x="571" y="249" type="curve" smooth="yes"/>
      <point x="571" y="342"/>
      <point x="503" y="431"/>
      <point x="416" y="462" type="curve"/>
      <point x="504" y="496" smooth="yes"/>
      <point x="566" y="570" smooth="yes"/>
      <point x="566" y="662" type="curve" smooth="yes"/>
      <point x="566" y="790" smooth="yes"/>
      <point x="463" y="857" smooth="yes"/>
      <point x="335" y="857" type="curve" smooth="yes"/>
      <point x="263" y="857" smooth="yes"/>
      <point x="186" y="832" smooth="yes"/>
      <point x="139" y="784" type="curve" smooth="yes"/>
      <point x="127" y="773" smooth="yes"/>
      <point x="119" y="759" smooth="yes"/>
      <point x="119" y="746" type="curve" smooth="yes"/>
      <point x="119" y="725" smooth="yes"/>
      <point x="130" y="715" smooth="yes"/>
      <point x="153" y="715" type="curve" smooth="yes"/>
      <point x="169" y="715" smooth="yes"/>
      <point x="185" y="731" smooth="yes"/>
      <point x="202" y="745" type="curve" smooth="yes"/>
      <point x="232" y="771" smooth="yes"/>
      <point x="280" y="790" smooth="yes"/>
      <point x="329" y="790" type="curve" smooth="yes"/>
      <point x="416" y="790" smooth="yes"/>
      <point x="480" y="749" smooth="yes"/>
      <point x="480" y="662" type="curve" smooth="yes"/>
      <point x="480" y="548" smooth="yes"/>
      <point x="359" y="489" smooth="yes"/>
    </contour>
  </outline>
</glyph>
<glyph name="four" format="1">
  <advance width="672"/>
  <unicode hex="0034"/>
  <outline>
    <contour>
      <point x="467" y="18" type="curve" name="hr00"/>
      <point x="494" y="238" type="line"/>
      <point x="573" y="238" type="line" smooth="yes"/>
      <point x="599" y="238" smooth="yes"/>
      <point x="613" y="251" smooth="yes"/>
      <point x="613" y="276" type="curve" smooth="yes"/>
      <point x="613" y="295" smooth="yes"/>
      <point x="599" y="307" smooth="yes"/>
      <point x="579" y="307" type="curve" smooth="yes"/>
      <point x="502" y="307" type="line"/>
      <point x="562" y="794" smooth="yes"/>
      <point x="568" y="834" smooth="yes"/>
      <point x="568" y="836" type="curve" smooth="yes"/>
      <point x="568" y="856" smooth="yes"/>
      <point x="553" y="860" smooth="yes"/>
      <point x="535" y="860" type="curve" smooth="yes"/>
      <point x="514" y="860" smooth="yes"/>
      <point x="493" y="855" smooth="yes"/>
      <point x="490" y="828" type="curve" smooth="yes"/>
      <point x="459" y="580"/>
      <point x="440" y="426"/>
      <point x="426" y="307" type="curve"/>
      <point x="125" y="307" type="line"/>
      <point x="261" y="608" type="line" smooth="yes"/>
      <point x="300" y="695" smooth="yes"/>
      <point x="322" y="752" smooth="yes"/>
      <point x="322" y="804" type="curve" smooth="yes"/>
      <point x="322" y="840" smooth="yes"/>
      <point x="315" y="872" smooth="yes"/>
      <point x="278" y="872" type="curve" smooth="yes"/>
      <point x="264" y="872" smooth="yes"/>
      <point x="247" y="865" smooth="yes"/>
      <point x="247" y="844" type="curve" smooth="yes"/>
      <point x="247" y="786" smooth="yes"/>
      <point x="247" y="758" smooth="yes"/>
      <point x="193" y="639" type="curve" smooth="yes"/>
      <point x="44" y="309" type="line" smooth="yes"/>
      <point x="39" y="297" smooth="yes"/>
      <point x="32" y="282" smooth="yes"/>
      <point x="32" y="269" type="curve" smooth="yes"/>
      <point x="32" y="249" smooth="yes"/>
      <point x="44" y="238" smooth="yes"/>
      <point x="75" y="238" type="curve" smooth="yes"/>
      <point x="417" y="238" type="line"/>
      <point x="392" y="32"/>
      <point x="391" y="15"/>
      <point x="391" y="15" type="curve"/>
      <point x="391" y="-10" smooth="yes"/>
      <point x="408" y="-14" smooth="yes"/>
      <point x="430" y="-14" type="curve" smooth="yes"/>
      <point x="448" y="-14"/>
      <point x="464" y="-7"/>
    </contour>
  </outline>
</glyph>
<glyph name="five" format="1">
  <advance width="672"/>
  <unicode hex="0035"/>
  <outline>
    <contour>
      <point x="234" y="843" type="line" smooth="yes" name="hr00"/>
      <point x="203" y="843" smooth="yes"/>
      <point x="192" y="833" smooth="yes"/>
      <point x="186" y="802" type="curve" smooth="yes"/>
      <point x="131" y="502" type="line" smooth="yes"/>
      <point x="130" y="498" smooth="yes"/>
      <point x="130" y="495" smooth="yes"/>
      <point x="130" y="491" type="curve" smooth="yes"/>
      <point x="131" y="463" smooth="yes"/>
      <point x="160" y="453" smooth="yes"/>
      <point x="195" y="453" type="curve" smooth="yes"/>
      <point x="356" y="453" smooth="yes"/>
      <point x="501" y="419" smooth="yes"/>
      <point x="501" y="255" type="curve" smooth="yes"/>
      <point x="501" y="127" smooth="yes"/>
      <point x="417" y="57" smooth="yes"/>
      <point x="301" y="57" type="curve" smooth="yes"/>
      <point x="198" y="57" smooth="yes"/>
      <point x="145" y="102" smooth="yes"/>
      <point x="107" y="191" type="curve" smooth="yes"/>
      <point x="102" y="203" smooth="yes"/>
      <point x="89" y="213" smooth="yes"/>
      <point x="76" y="213" type="curve" smooth="yes"/>
      <point x="51" y="213" smooth="yes"/>
      <point x="39" y="198" smooth="yes"/>
      <point x="39" y="177" type="curve" smooth="yes"/>
      <point x="39" y="79" smooth="yes"/>
      <point x="147" y="-14" smooth="yes"/>
      <point x="298" y="-14" type="curve" smooth="yes"/>
      <point x="468" y="-14" smooth="yes"/>
      <point x="584" y="83" smooth="yes"/>
      <point x="584" y="265" type="curve" smooth="yes"/>
      <point x="584" y="477"/>
      <point x="389" y="522"/>
      <point x="209" y="522" type="curve"/>
      <point x="256" y="777" type="line"/>
      <point x="550" y="777" type="line" smooth="yes"/>
      <point x="575" y="777" smooth="yes"/>
      <point x="589" y="790" smooth="yes"/>
      <point x="589" y="815" type="curve" smooth="yes"/>
      <point x="589" y="834" smooth="yes"/>
      <point x="573" y="843" smooth="yes"/>
      <point x="555" y="843" type="curve" smooth="yes"/>
    </contour>
  </outline>
</glyph>
<glyph name="six" format="1">
  <advance width="672"/>
  <unicode hex="0036"/>
  <outline>
    <contour>
      <point x="134" y="316" type="curve" smooth="yes" name="hr00"/>
      <point x="134" y="349"/>
      <point x="136" y="381"/>
      <point x="139" y="413" type="curve"/>
      <point x="144" y="405" smooth="yes"/>
      <point x="154" y="402" smooth="yes"/>
      <point x="164" y="402" type="curve" smooth="yes"/>
      <point x="193" y="402" smooth="yes"/>
      <point x="246" y="459" smooth="yes"/>
      <point x="335" y="459" type="curve" smooth="yes"/>
      <point x="449" y="459" smooth="yes"/>
      <point x="503" y="392" smooth="yes"/>
      <point x="503" y="280" type="curve" smooth="yes"/>
      <point x="503" y="162" smooth="yes"/>
      <point x="442" y="53" smooth="yes"/>
      <point x="312" y="53" type="curve" smooth="yes"/>
      <point x="167" y="53" smooth="yes"/>
      <point x="134" y="197" smooth="yes"/>
    </contour>
    <contour>
      <point x="342" y="529" type="curve" smooth="yes"/>
      <point x="276" y="529"/>
      <point x="183" y="498"/>
      <point x="141" y="451" type="curve"/>
      <point x="160" y="602" smooth="yes"/>
      <point x="214" y="790" smooth="yes"/>
      <point x="399" y="790" type="curve" smooth="yes"/>
      <point x="510" y="790" smooth="yes"/>
      <point x="539" y="720" smooth="yes"/>
      <point x="575" y="720" type="curve" smooth="yes"/>
      <point x="595" y="720" smooth="yes"/>
      <point x="609" y="731" smooth="yes"/>
      <point x="609" y="750" type="curve" smooth="yes"/>
      <point x="609" y="767" smooth="yes"/>
      <point x="602" y="776" smooth="yes"/>
      <point x="587" y="791" type="curve" smooth="yes"/>
      <point x="542" y="836" smooth="yes"/>
      <point x="465" y="857" smooth="yes"/>
      <point x="400" y="857" type="curve" smooth="yes"/>
      <point x="111" y="857" smooth="yes"/>
      <point x="49" y="545" smooth="yes"/>
      <point x="49" y="314" type="curve" smooth="yes"/>
      <point x="49" y="146" smooth="yes"/>
      <point x="113" y="-14" smooth="yes"/>
      <point x="305" y="-14" type="curve" smooth="yes"/>
      <point x="483" y="-14" smooth="yes"/>
      <point x="587" y="108" smooth="yes"/>
      <point x="587" y="286" type="curve" smooth="yes"/>
      <point x="587" y="438" smooth="yes"/>
      <point x="494" y="529" smooth="yes"/>
    </contour>
  </outline>
</glyph>
<glyph name="seven" format="1">
  <advance width="672"/>
  <unicode hex="0037"/>
  <outline>
    <contour>
      <point x="139" y="843" type="line" smooth="yes" name="hr00"/>
      <point x="113" y="843" smooth="yes"/>
      <point x="99" y="830" smooth="yes"/>
      <point x="99" y="805" type="curve" smooth="yes"/>
      <point x="99" y="786" smooth="yes"/>
      <point x="113" y="774" smooth="yes"/>
      <point x="133" y="774" type="curve" smooth="yes"/>
      <point x="509" y="774" type="line"/>
      <point x="250" y="250" type="line" smooth="yes"/>
      <point x="208" y="165" smooth="yes"/>
      <point x="189" y="96" smooth="yes"/>
      <point x="189" y="44" type="curve" smooth="yes"/>
      <point x="189" y="8" smooth="yes"/>
      <point x="196" y="-14" smooth="yes"/>
      <point x="233" y="-14" type="curve" smooth="yes"/>
      <point x="247" y="-14" smooth="yes"/>
      <point x="264" y="-7" smooth="yes"/>
      <point x="264" y="14" type="curve" smooth="yes"/>
      <point x="264" y="72" smooth="yes"/>
      <point x="265" y="102" smooth="yes"/>
      <point x="323" y="219" type="curve" smooth="yes"/>
      <point x="597" y="772" type="line" smooth="yes"/>
      <point x="602" y="784" smooth="yes"/>
      <point x="609" y="799" smooth="yes"/>
      <point x="609" y="812" type="curve" smooth="yes"/>
      <point x="609" y="832" smooth="yes"/>
      <point x="597" y="843" smooth="yes"/>
      <point x="566" y="843" type="curve" smooth="yes"/>
    </contour>
  </outline>
</glyph>
<glyph name="eight" format="1">
  <advance width="672"/>
  <unicode hex="0038"/>
  <outline>
    <contour>
      <point x="449" y="445" type="curve"/>
      <point x="546" y="479" smooth="yes"/>
      <point x="616" y="550" smooth="yes"/>
      <point x="616" y="658" type="curve" smooth="yes"/>
      <point x="616" y="788" smooth="yes"/>
      <point x="492" y="857" smooth="yes"/>
      <point x="377" y="857" type="curve" smooth="yes"/>
      <point x="231" y="857" smooth="yes"/>
      <point x="116" y="781" smooth="yes"/>
      <point x="116" y="638" type="curve" smooth="yes"/>
      <point x="116" y="553"/>
      <point x="153" y="498"/>
      <point x="226" y="455" type="curve"/>
      <point x="110" y="416" smooth="yes"/>
      <point x="42" y="333" smooth="yes"/>
      <point x="42" y="209" type="curve" smooth="yes" name="hr01"/>
      <point x="42" y="59" smooth="yes"/>
      <point x="171" y="-14" smooth="yes"/>
      <point x="307" y="-14" type="curve" smooth="yes"/>
      <point x="470" y="-14" smooth="yes"/>
      <point x="594" y="66" smooth="yes"/>
      <point x="594" y="239" type="curve" smooth="yes"/>
      <point x="594" y="330"/>
      <point x="528" y="406"/>
    </contour>
    <contour>
      <point x="533" y="655" type="curve" smooth="yes" name="hr02"/>
      <point x="533" y="553"/>
      <point x="444" y="507"/>
      <point x="356" y="487" type="curve"/>
      <point x="277" y="507" smooth="yes"/>
      <point x="199" y="553" smooth="yes"/>
      <point x="199" y="643" type="curve" smooth="yes"/>
      <point x="199" y="718" smooth="yes"/>
      <point x="260" y="789" smooth="yes"/>
      <point x="362" y="789" type="curve" smooth="yes"/>
      <point x="500" y="789" smooth="yes"/>
      <point x="533" y="712" smooth="yes"/>
    </contour>
    <contour>
      <point x="508" y="234" type="curve" smooth="yes" name="hr03"/>
      <point x="508" y="118" smooth="yes"/>
      <point x="417" y="50" smooth="yes"/>
      <point x="307" y="50" type="curve" smooth="yes"/>
      <point x="205" y="50" smooth="yes"/>
      <point x="124" y="109" smooth="yes"/>
      <point x="124" y="221" type="curve" smooth="yes"/>
      <point x="124" y="319"/>
      <point x="203" y="395"/>
      <point x="323" y="412" type="curve"/>
      <point x="414" y="401" smooth="yes"/>
      <point x="508" y="326" smooth="yes"/>
    </contour>
  </outline>
</glyph>
<glyph name="nine" format="1">
  <advance width="672"/>
  <unicode hex="0039"/>
  <outline>
    <contour>
      <point x="524" y="526" type="curve" smooth="yes" name="hr00"/>
      <point x="524" y="494"/>
      <point x="522" y="462"/>
      <point x="519" y="430" type="curve"/>
      <point x="514" y="438" smooth="yes"/>
      <point x="503" y="444" smooth="yes"/>
      <point x="493" y="444" type="curve" smooth="yes"/>
      <point x="463" y="444" smooth="yes"/>
      <point x="412" y="384" smooth="yes"/>
      <point x="323" y="384" type="curve" smooth="yes"/>
      <point x="209" y="384" smooth="yes"/>
      <point x="154" y="451" smooth="yes"/>
      <point x="154" y="563" type="curve" smooth="yes"/>
      <point x="154" y="680" smooth="yes"/>
      <point x="214" y="790" smooth="yes"/>
      <point x="344" y="790" type="curve" smooth="yes"/>
      <point x="491" y="790" smooth="yes"/>
      <point x="524" y="645" smooth="yes"/>
    </contour>
    <contour>
      <point x="316" y="312" type="curve" smooth="yes"/>
      <point x="382" y="312"/>
      <point x="483" y="347"/>
      <point x="517" y="392" type="curve"/>
      <point x="498" y="241" smooth="yes"/>
      <point x="444" y="53" smooth="yes"/>
      <point x="259" y="53" type="curve" smooth="yes"/>
      <point x="148" y="53" smooth="yes"/>
      <point x="118" y="127" smooth="yes"/>
      <point x="85" y="127" type="curve" smooth="yes"/>
      <point x="66" y="127" smooth="yes"/>
      <point x="50" y="116" smooth="yes"/>
      <point x="50" y="97" type="curve" smooth="yes"/>
      <point x="50" y="77" smooth="yes"/>
      <point x="59" y="66" smooth="yes"/>
      <point x="73" y="52" type="curve" smooth="yes"/>
      <point x="119" y="6" smooth="yes"/>
      <point x="193" y="-14" smooth="yes"/>
      <point x="258" y="-14" type="curve" smooth="yes"/>
      <point x="547" y="-14" smooth="yes"/>
      <point x="609" y="298" smooth="yes"/>
      <point x="609" y="529" type="curve" smooth="yes"/>
      <point x="609" y="697" smooth="yes"/>
      <point x="545" y="857" smooth="yes"/>
      <point x="353" y="857" type="curve" smooth="yes"/>
      <point x="175" y="857" smooth="yes"/>
      <point x="70" y="735" smooth="yes"/>
      <point x="70" y="557" type="curve" smooth="yes"/>
      <point x="70" y="405" smooth="yes"/>
      <point x="164" y="312" smooth="yes"/>
    </contour>
  </outline>
</glyph>
<glyph name="colon" format="1">
  <advance width="202"/>
  <unicode hex="003A"/>
  <outline>
    <contour>
      <point x="152" y="48" type="curve" smooth="yes" name="hr00"/>
      <point x="152" y="69" smooth="yes"/>
      <point x="142" y="85" smooth="yes"/>
      <point x="107" y="85" type="curve" smooth="yes"/>
      <point x="61" y="85" smooth="yes"/>
      <point x="50" y="55" smooth="yes"/>
      <point x="50" y="24" type="curve" smooth="yes"/>
      <point x="50" y="3" smooth="yes"/>
      <point x="60" y="-14" smooth="yes"/>
      <point x="95" y="-14" type="curve" smooth="yes"/>
      <point x="141" y="-14" smooth="yes"/>
      <point x="152" y="17" smooth="yes"/>
    </contour>
    <contour>
      <point x="195" y="402" type="curve" smooth="yes"/>
      <point x="195" y="423" smooth="yes"/>
      <point x="185" y="439" smooth="yes"/>
      <point x="150" y="439" type="curve" smooth="yes"/>
      <point x="104" y="439" smooth="yes"/>
      <point x="93" y="409" smooth="yes"/>
      <point x="93" y="378" type="curve" smooth="yes"/>
      <point x="93" y="357" smooth="yes"/>
      <point x="103" y="340" smooth="yes"/>
      <point x="138" y="340" type="curve" smooth="yes"/>
      <point x="184" y="340" smooth="yes"/>
      <point x="195" y="371" smooth="yes"/>
    </contour>
  </outline>
</glyph>
<glyph name="semicolon" format="1">
  <advance width="202"/>
  <unicode hex="003B"/>
  <outline>
    <contour>
      <point x="195" y="402" type="curve" smooth="yes" name="hr00"/>
      <point x="195" y="423" smooth="yes"/>
      <point x="185" y="439" smooth="yes"/>
      <point x="150" y="439" type="curve" smooth="yes"/>
      <point x="104" y="439" smooth="yes"/>
      <point x="93" y="409" smooth="yes"/>
      <point x="93" y="378" type="curve" smooth="yes"/>
      <point x="93" y="357" smooth="yes"/>
      <point x="103" y="340" smooth="yes"/>
      <point x="138" y="340" type="curve" smooth="yes"/>
      <point x="184" y="340" smooth="yes"/>
      <point x="195" y="371" smooth="yes"/>
    </contour>
    <component  base="comma" xOffset="-34"/>
  </outline>
</glyph>
<glyph name="less" format="1">
  <advance width="676"/>
  <unicode hex="003C"/>
  <outline>
    <contour>
      <point x="195" y="414" type="line" name="hr00"/>
      <point x="570" y="563" type="line" smooth="yes"/>
      <point x="577" y="566" smooth="yes"/>
      <point x="584" y="571" smooth="yes"/>
      <point x="585" y="582" type="curve" smooth="yes"/>
      <point x="588" y="603" smooth="yes"/>
      <point x="575" y="626" smooth="yes"/>
      <point x="554" y="626" type="curve" smooth="yes"/>
      <point x="553" y="626" smooth="yes"/>
      <point x="545" y="626" smooth="yes"/>
      <point x="543" y="624" type="curve" smooth="yes"/>
      <point x="120" y="448" type="line" smooth="yes"/>
      <point x="94" y="437" smooth="yes"/>
      <point x="88" y="430" smooth="yes"/>
      <point x="87" y="419" type="curve" smooth="yes"/>
      <point x="84" y="405" type="line" smooth="yes"/>
      <point x="83" y="393" smooth="yes"/>
      <point x="88" y="386" smooth="yes"/>
      <point x="112" y="375" type="curve" smooth="yes"/>
      <point x="493" y="200" type="line" smooth="yes"/>
      <point x="496" y="199" smooth="yes"/>
      <point x="500" y="199" smooth="yes"/>
      <point x="501" y="199" type="curve" smooth="yes"/>
      <point x="528" y="199" smooth="yes"/>
      <point x="539" y="217" smooth="yes"/>
      <point x="542" y="238" type="curve" smooth="yes"/>
      <point x="543" y="249" smooth="yes"/>
      <point x="536" y="258" smooth="yes"/>
      <point x="531" y="260" type="curve" smooth="yes"/>
      <point x="195" y="407" type="line"/>
    </contour>
  </outline>
</glyph>
<glyph name="equal" format="1">
  <advance width="672"/>
  <unicode hex="003D"/>
  <outline>
    <contour>
      <point x="105" y="346" type="line" smooth="yes" name="hr00"/>
      <point x="87" y="346" smooth="yes"/>
      <point x="76" y="326" smooth="yes"/>
      <point x="76" y="308" type="curve" smooth="yes"/>
      <point x="76" y="294" smooth="yes"/>
      <point x="83" y="280" smooth="yes"/>
      <point x="97" y="280" type="curve" smooth="yes"/>
      <point x="540" y="280" type="line" smooth="yes"/>
      <point x="562" y="280" smooth="yes"/>
      <point x="571" y="301" smooth="yes"/>
      <point x="571" y="317" type="curve" smooth="yes"/>
      <point x="571" y="332" smooth="yes"/>
      <point x="562" y="346" smooth="yes"/>
      <point x="549" y="346" type="curve" smooth="yes"/>
    </contour>
    <contour>
      <point x="129" y="539" type="line" smooth="yes"/>
      <point x="112" y="539" smooth="yes"/>
      <point x="99" y="522" smooth="yes"/>
      <point x="99" y="504" type="curve" smooth="yes"/>
      <point x="99" y="489" smooth="yes"/>
      <point x="106" y="473" smooth="yes"/>
      <point x="120" y="473" type="curve" smooth="yes"/>
      <point x="566" y="473" type="line" smooth="yes"/>
      <point x="582" y="473" smooth="yes"/>
      <point x="595" y="492" smooth="yes"/>
      <point x="595" y="508" type="curve" smooth="yes"/>
      <point x="595" y="524" smooth="yes"/>
      <point x="587" y="539" smooth="yes"/>
      <point x="568" y="539" type="curve" smooth="yes"/>
    </contour>
  </outline>
</glyph>
<glyph name="greater" format="1">
  <advance width="674"/>
  <unicode hex="003E"/>
  <outline>
    <contour>
      <point x="480" y="413" type="line" name="hr00"/>
      <point x="105" y="262" type="line" smooth="yes"/>
      <point x="98" y="259" smooth="yes"/>
      <point x="92" y="253" smooth="yes"/>
      <point x="91" y="242" type="curve" smooth="yes"/>
      <point x="89" y="221" smooth="yes"/>
      <point x="105" y="199" smooth="yes"/>
      <point x="126" y="199" type="curve" smooth="yes"/>
      <point x="127" y="199" smooth="yes"/>
      <point x="130" y="199" smooth="yes"/>
      <point x="133" y="200" type="curve" smooth="yes"/>
      <point x="554" y="377" type="line" smooth="yes"/>
      <point x="579" y="386" smooth="yes"/>
      <point x="588" y="395" smooth="yes"/>
      <point x="589" y="406" type="curve" smooth="yes"/>
      <point x="590" y="420" type="line" smooth="yes"/>
      <point x="592" y="431" smooth="yes"/>
      <point x="582" y="441" smooth="yes"/>
      <point x="564" y="449" type="curve" smooth="yes"/>
      <point x="182" y="624" type="line" smooth="yes"/>
      <point x="180" y="626" smooth="yes"/>
      <point x="170" y="627" smooth="yes"/>
      <point x="169" y="627" type="curve" smooth="yes"/>
      <point x="148" y="627" smooth="yes"/>
      <point x="134" y="610" smooth="yes"/>
      <point x="131" y="589" type="curve" smooth="yes"/>
      <point x="130" y="578" smooth="yes"/>
      <point x="138" y="567" smooth="yes"/>
      <point x="145" y="564" type="curve" smooth="yes"/>
      <point x="481" y="417" type="line"/>
    </contour>
  </outline>
</glyph>
<glyph name="question" format="1">
  <advance width="511"/>
  <unicode hex="003F"/>
  <outline>
    <contour>
      <point x="112" y="39" type="curve" smooth="yes" name="hr00"/>
      <point x="112" y="10" smooth="yes"/>
      <point x="136" y="-14" smooth="yes"/>
      <point x="165" y="-14" type="curve" smooth="yes"/>
      <point x="195" y="-14" smooth="yes"/>
      <point x="220" y="10" smooth="yes"/>
      <point x="220" y="39" type="curve" smooth="yes"/>
      <point x="220" y="69" smooth="yes"/>
      <point x="195" y="94" smooth="yes"/>
      <point x="165" y="94" type="curve" smooth="yes"/>
      <point x="136" y="94" smooth="yes"/>
      <point x="112" y="69" smooth="yes"/>
    </contour>
    <contour>
      <point x="225" y="304" type="line" smooth="yes"/>
      <point x="246" y="442" smooth="yes"/>
      <point x="459" y="476" smooth="yes"/>
      <point x="459" y="645" type="curve" smooth="yes"/>
      <point x="459" y="763" smooth="yes"/>
      <point x="368" y="826" smooth="yes"/>
      <point x="263" y="826" type="curve" smooth="yes"/>
      <point x="146" y="826" smooth="yes"/>
      <point x="64" y="727" smooth="yes"/>
      <point x="64" y="687" type="curve" smooth="yes"/>
      <point x="64" y="664" smooth="yes"/>
      <point x="77" y="652" smooth="yes"/>
      <point x="99" y="652" type="curve" smooth="yes"/>
      <point x="137" y="652" smooth="yes"/>
      <point x="155" y="757" smooth="yes"/>
      <point x="258" y="757" type="curve" smooth="yes"/>
      <point x="332" y="757" smooth="yes"/>
      <point x="381" y="715" smooth="yes"/>
      <point x="381" y="641" type="curve" smooth="yes"/>
      <point x="381" y="501" smooth="yes"/>
      <point x="175" y="468" smooth="yes"/>
      <point x="160" y="308" type="curve" smooth="yes"/>
      <point x="150" y="210" type="line" smooth="yes"/>
      <point x="148" y="189" smooth="yes"/>
      <point x="167" y="185" smooth="yes"/>
      <point x="181" y="185" type="curve" smooth="yes"/>
      <point x="190" y="185" smooth="yes"/>
      <point x="209" y="188" smooth="yes"/>
      <point x="211" y="209" type="curve" smooth="yes"/>
    </contour>
  </outline>
</glyph>
<glyph name="at" format="1">
  <advance width="886"/>
  <unicode hex="0040"/>
  <outline>
    <contour>
      <point x="641" y="-230" type="curve" smooth="yes" name="hr00"/>
      <point x="662" y="-220" smooth="yes"/>
      <point x="665" y="-202" smooth="yes"/>
      <point x="652" y="-189" type="curve" smooth="yes"/>
      <point x="643" y="-179" smooth="yes"/>
      <point x="631" y="-183" smooth="yes"/>
      <point x="615" y="-190" type="curve" smooth="yes"/>
      <point x="563" y="-211" smooth="yes"/>
      <point x="479" y="-228" smooth="yes"/>
      <point x="409" y="-228" type="curve" smooth="yes"/>
      <point x="202" y="-228" smooth="yes"/>
      <point x="95" y="-56" smooth="yes"/>
      <point x="95" y="151" type="curve" smooth="yes"/>
      <point x="95" y="417" smooth="yes"/>
      <point x="232" y="689" smooth="yes"/>
      <point x="500" y="689" type="curve" smooth="yes"/>
      <point x="699" y="689" smooth="yes"/>
      <point x="791" y="552" smooth="yes"/>
      <point x="791" y="354" type="curve" smooth="yes"/>
      <point x="791" y="252" smooth="yes"/>
      <point x="755" y="39" smooth="yes"/>
      <point x="651" y="39" type="curve" smooth="yes"/>
      <point x="591" y="39" smooth="yes"/>
      <point x="591" y="98" smooth="yes"/>
      <point x="601" y="178" type="curve" smooth="yes"/>
      <point x="633" y="448" type="line"/>
      <point x="638" y="487" smooth="yes"/>
      <point x="601" y="490" smooth="yes"/>
      <point x="543" y="490" type="curve" smooth="yes"/>
      <point x="455" y="490" smooth="yes"/>
      <point x="375" y="466" smooth="yes"/>
      <point x="312" y="403" type="curve" smooth="yes"/>
      <point x="246" y="337" smooth="yes"/>
      <point x="210" y="255" smooth="yes"/>
      <point x="210" y="161" type="curve" smooth="yes"/>
      <point x="210" y="62" smooth="yes"/>
      <point x="262" y="-14" smooth="yes"/>
      <point x="361" y="-14" type="curve" smooth="yes"/>
      <point x="442" y="-14"/>
      <point x="493" y="20"/>
      <point x="528" y="92" type="curve"/>
      <point x="528" y="28" smooth="yes"/>
      <point x="574" y="-14" smooth="yes"/>
      <point x="638" y="-14" type="curve" smooth="yes"/>
      <point x="797" y="-14" smooth="yes"/>
      <point x="846" y="203" smooth="yes"/>
      <point x="846" y="357" type="curve" smooth="yes"/>
      <point x="846" y="578" smooth="yes"/>
      <point x="731" y="735" smooth="yes"/>
      <point x="508" y="735" type="curve" smooth="yes"/>
      <point x="204" y="735" smooth="yes"/>
      <point x="41" y="454" smooth="yes"/>
      <point x="41" y="151" type="curve" smooth="yes"/>
      <point x="41" y="-87" smooth="yes"/>
      <point x="162" y="-276" smooth="yes"/>
      <point x="400" y="-276" type="curve" smooth="yes"/>
      <point x="484" y="-276" smooth="yes"/>
      <point x="574" y="-262" smooth="yes"/>
    </contour>
    <contour>
      <point x="382" y="50" type="curve" smooth="yes"/>
      <point x="318" y="50" smooth="yes"/>
      <point x="288" y="106" smooth="yes"/>
      <point x="288" y="171" type="curve" smooth="yes"/>
      <point x="288" y="311" smooth="yes"/>
      <point x="392" y="441" smooth="yes"/>
      <point x="535" y="441" type="curve" smooth="yes"/>
      <point x="539" y="441"/>
      <point x="557" y="440"/>
      <point x="560" y="438" type="curve"/>
      <point x="542" y="294" type="line" smooth="yes"/>
      <point x="528" y="183" smooth="yes"/>
      <point x="494" y="50" smooth="yes"/>
    </contour>
  </outline>
</glyph>
<glyph name="A" format="1">
  <advance width="700"/>
  <unicode hex="0041"/>
  <outline>
    <contour>
      <point x="402" y="759" type="line" name="hr00"/>
      <point x="497" y="286" type="line"/>
      <point x="182" y="286" type="line"/>
    </contour>
    <contour>
      <point x="28" y="139" type="line" smooth="yes"/>
      <point x="-7" y="64" smooth="yes"/>
      <point x="-21" y="25" smooth="yes"/>
      <point x="-21" y="20" type="curve" smooth="yes"/>
      <point x="-21" y="-7" smooth="yes"/>
      <point x="7" y="-14" smooth="yes"/>
      <point x="25" y="-14" type="curve" smooth="yes"/>
      <point x="48" y="-14" smooth="yes"/>
      <point x="60" y="21" smooth="yes"/>
      <point x="87" y="80" type="curve" smooth="yes"/>
      <point x="153" y="225" type="line"/>
      <point x="510" y="225" type="line"/>
      <point x="554" y="15" type="line" smooth="yes"/>
      <point x="559" y="-8" smooth="yes"/>
      <point x="573" y="-14" smooth="yes"/>
      <point x="598" y="-14" type="curve" smooth="yes"/>
      <point x="620" y="-14" smooth="yes"/>
      <point x="636" y="-9" smooth="yes"/>
      <point x="636" y="8" type="curve" smooth="yes"/>
      <point x="636" y="11" smooth="yes"/>
      <point x="635" y="16" smooth="yes"/>
      <point x="634" y="20" type="curve" smooth="yes"/>
      <point x="463" y="843" type="line" smooth="yes"/>
      <point x="458" y="867" smooth="yes"/>
      <point x="438" y="872" smooth="yes"/>
      <point x="413" y="872" type="curve" smooth="yes"/>
      <point x="388" y="872" smooth="yes"/>
      <point x="367" y="865" smooth="yes"/>
      <point x="357" y="843" type="curve" smooth="yes"/>
    </contour>
  </outline>
</glyph>
<glyph name="B" format="1">
  <advance width="713"/>
  <unicode hex="0042"/>
  <outline>
    <contour>
      <point x="645" y="683" type="curve" smooth="yes" name="hr00"/>
      <point x="644" y="813" smooth="yes"/>
      <point x="519" y="872" smooth="yes"/>
      <point x="381" y="872" type="curve" smooth="yes"/>
      <point x="252" y="872"/>
      <point x="183" y="857"/>
      <point x="183" y="857" type="curve"/>
      <point x="183" y="857" smooth="yes"/>
      <point x="155" y="851" smooth="yes"/>
      <point x="154" y="837" type="curve" smooth="yes"/>
      <point x="57" y="32" type="line"/>
      <point x="57" y="27" type="line" smooth="yes"/>
      <point x="57" y="7"/>
      <point x="73" y="-1"/>
      <point x="95" y="-3" type="curve"/>
      <point x="95" y="-3" smooth="yes"/>
      <point x="168" y="-14" smooth="yes"/>
      <point x="301" y="-14" type="curve" smooth="yes"/>
      <point x="494" y="-14" smooth="yes"/>
      <point x="654" y="71" smooth="yes"/>
      <point x="654" y="252" type="curve" smooth="yes"/>
      <point x="654" y="354"/>
      <point x="587" y="428"/>
      <point x="489" y="470" type="curve"/>
      <point x="585" y="511" smooth="yes"/>
      <point x="645" y="585" smooth="yes"/>
    </contour>
    <contour>
      <point x="337" y="440" type="line" smooth="yes"/>
      <point x="468" y="440" smooth="yes"/>
      <point x="574" y="351" smooth="yes"/>
      <point x="574" y="251" type="curve" smooth="yes"/>
      <point x="574" y="123" smooth="yes"/>
      <point x="434" y="55" smooth="yes"/>
      <point x="301" y="55" type="curve" smooth="yes"/>
      <point x="251" y="55"/>
      <point x="190" y="57"/>
      <point x="140" y="62" type="curve"/>
      <point x="185" y="440" type="line"/>
    </contour>
    <contour>
      <point x="228" y="799" type="line"/>
      <point x="279" y="808" smooth="yes"/>
      <point x="332" y="811" smooth="yes"/>
      <point x="381" y="811" type="curve" smooth="yes"/>
      <point x="476" y="811" smooth="yes"/>
      <point x="566" y="770" smooth="yes"/>
      <point x="566" y="680" type="curve" smooth="yes"/>
      <point x="566" y="582"/>
      <point x="482" y="517"/>
      <point x="377" y="503" type="curve"/>
      <point x="193" y="503" type="line"/>
    </contour>
  </outline>
</glyph>
<glyph name="C" format="1">
  <advance width="661"/>
  <unicode hex="0043"/>
  <outline>
    <contour>
      <point x="424" y="872" type="curve" smooth="yes" name="hr00"/>
      <point x="139" y="872" smooth="yes"/>
      <point x="42" y="567" smooth="yes"/>
      <point x="42" y="330" type="curve" smooth="yes"/>
      <point x="42" y="137" smooth="yes"/>
      <point x="120" y="-14" smooth="yes"/>
      <point x="333" y="-14" type="curve" smooth="yes"/>
      <point x="447" y="-14" smooth="yes"/>
      <point x="547" y="36" smooth="yes"/>
      <point x="609" y="133" type="curve" smooth="yes"/>
      <point x="613" y="139" smooth="yes"/>
      <point x="616" y="146" smooth="yes"/>
      <point x="616" y="151" type="curve" smooth="yes"/>
      <point x="616" y="169" smooth="yes"/>
      <point x="599" y="181" smooth="yes"/>
      <point x="584" y="181" type="curve" smooth="yes"/>
      <point x="567" y="181" smooth="yes"/>
      <point x="552" y="153" smooth="yes"/>
      <point x="539" y="139" type="curve" smooth="yes"/>
      <point x="486" y="81" smooth="yes"/>
      <point x="417" y="53" smooth="yes"/>
      <point x="340" y="53" type="curve" smooth="yes"/>
      <point x="182" y="53" smooth="yes"/>
      <point x="122" y="185" smooth="yes"/>
      <point x="122" y="325" type="curve" smooth="yes"/>
      <point x="122" y="501" smooth="yes"/>
      <point x="197" y="811" smooth="yes"/>
      <point x="421" y="811" type="curve" smooth="yes"/>
      <point x="570" y="811" smooth="yes"/>
      <point x="588" y="708" smooth="yes"/>
      <point x="616" y="708" type="curve" smooth="yes"/>
      <point x="633" y="708" smooth="yes"/>
      <point x="662" y="728" smooth="yes"/>
      <point x="662" y="741" type="curve" smooth="yes"/>
      <point x="662" y="763" smooth="yes"/>
      <point x="592" y="872" smooth="yes"/>
    </contour>
  </outline>
</glyph>
<glyph name="D" format="1">
  <advance width="777"/>
  <unicode hex="0044"/>
  <outline>
    <contour>
      <point x="732" y="536" type="curve" smooth="yes" name="hr00"/>
      <point x="731" y="746" smooth="yes"/>
      <point x="624" y="872" smooth="yes"/>
      <point x="399" y="872" type="curve" smooth="yes"/>
      <point x="297" y="872"/>
      <point x="183" y="861"/>
      <point x="183" y="861" type="curve"/>
      <point x="171" y="860" smooth="yes"/>
      <point x="155" y="851" smooth="yes"/>
      <point x="154" y="837" type="curve" smooth="yes"/>
      <point x="57" y="29" type="line" smooth="yes"/>
      <point x="55" y="8"/>
      <point x="71" y="-1"/>
      <point x="95" y="-3" type="curve"/>
      <point x="95" y="-3" smooth="yes"/>
      <point x="164" y="-14" smooth="yes"/>
      <point x="301" y="-14" type="curve" smooth="yes"/>
      <point x="617" y="-14" smooth="yes"/>
      <point x="735" y="241" smooth="yes"/>
    </contour>
    <contour>
      <point x="652" y="547" type="curve" smooth="yes"/>
      <point x="655" y="307" smooth="yes"/>
      <point x="559" y="53" smooth="yes"/>
      <point x="301" y="53" type="curve" smooth="yes"/>
      <point x="246" y="53"/>
      <point x="190" y="55"/>
      <point x="140" y="62" type="curve"/>
      <point x="228" y="799" type="line"/>
      <point x="279" y="808" smooth="yes"/>
      <point x="343" y="809" smooth="yes"/>
      <point x="395" y="809" type="curve" smooth="yes"/>
      <point x="559" y="809" smooth="yes"/>
      <point x="651" y="701" smooth="yes"/>
    </contour>
  </outline>
</glyph>
<glyph name="E" format="1">
  <advance width="599"/>
  <unicode hex="0045"/>
  <outline>
    <contour>
      <point x="58" y="31" type="line" smooth="yes" name="hr00"/>
      <point x="56" y="13" smooth="yes"/>
      <point x="67" y="0" smooth="yes"/>
      <point x="91" y="0" type="curve" smooth="yes"/>
      <point x="495" y="0" type="line" smooth="yes"/>
      <point x="511" y="0" smooth="yes"/>
      <point x="523" y="13" smooth="yes"/>
      <point x="523" y="34" type="curve" smooth="yes"/>
      <point x="523" y="55" smooth="yes"/>
      <point x="513" y="64" smooth="yes"/>
      <point x="497" y="64" type="curve" smooth="yes"/>
      <point x="140" y="64" type="line"/>
      <point x="184" y="421" type="line"/>
      <point x="467" y="421" type="line" smooth="yes"/>
      <point x="495" y="421" smooth="yes"/>
      <point x="505" y="431" smooth="yes"/>
      <point x="505" y="458" type="curve" smooth="yes"/>
      <point x="505" y="477" smooth="yes"/>
      <point x="491" y="484" smooth="yes"/>
      <point x="470" y="484" type="curve" smooth="yes"/>
      <point x="193" y="484" type="line"/>
      <point x="226" y="797" type="line"/>
      <point x="562" y="797" type="line" smooth="yes"/>
      <point x="590" y="797" smooth="yes"/>
      <point x="599" y="806" smooth="yes"/>
      <point x="599" y="833" type="curve" smooth="yes"/>
      <point x="599" y="851" smooth="yes"/>
      <point x="586" y="860" smooth="yes"/>
      <point x="568" y="860" type="curve" smooth="yes"/>
      <point x="182" y="860" type="line" smooth="yes"/>
      <point x="166" y="860"/>
      <point x="154" y="847"/>
      <point x="154" y="826" type="curve"/>
    </contour>
  </outline>
</glyph>
<glyph name="F" format="1">
  <advance width="553"/>
  <unicode hex="0046"/>
  <outline>
    <contour>
      <point x="59" y="39" type="line" smooth="yes" name="hr00"/>
      <point x="55" y="0" smooth="yes"/>
      <point x="57" y="-14" smooth="yes"/>
      <point x="94" y="-14" type="curve" smooth="yes"/>
      <point x="129" y="-14" smooth="yes"/>
      <point x="132" y="0" smooth="yes"/>
      <point x="137" y="39" type="curve" smooth="yes"/>
      <point x="185" y="421" type="line"/>
      <point x="501" y="421" type="line" smooth="yes"/>
      <point x="529" y="421" smooth="yes"/>
      <point x="539" y="431" smooth="yes"/>
      <point x="539" y="458" type="curve" smooth="yes"/>
      <point x="539" y="477" smooth="yes"/>
      <point x="524" y="484" smooth="yes"/>
      <point x="504" y="484" type="curve" smooth="yes"/>
      <point x="193" y="484" type="line"/>
      <point x="227" y="797" type="line"/>
      <point x="563" y="797" type="line" smooth="yes"/>
      <point x="591" y="797" smooth="yes"/>
      <point x="599" y="806" smooth="yes"/>
      <point x="599" y="833" type="curve" smooth="yes"/>
      <point x="599" y="851" smooth="yes"/>
      <point x="587" y="860" smooth="yes"/>
      <point x="568" y="860" type="curve" smooth="yes"/>
      <point x="182" y="860" type="line" smooth="yes"/>
      <point x="167" y="860"/>
      <point x="154" y="847"/>
      <point x="154" y="826" type="curve"/>
    </contour>
  </outline>
</glyph>
<glyph name="G" format="1">
  <advance width="729"/>
  <unicode hex="0047"/>
  <outline>
    <contour>
      <point x="427" y="872" type="curve" smooth="yes" name="hr00"/>
      <point x="151" y="872" smooth="yes"/>
      <point x="42" y="587" smooth="yes"/>
      <point x="42" y="330" type="curve" smooth="yes"/>
      <point x="42" y="137" smooth="yes"/>
      <point x="122" y="-14" smooth="yes"/>
      <point x="329" y="-14" type="curve" smooth="yes"/>
      <point x="407" y="-14"/>
      <point x="486" y="15"/>
      <point x="539" y="70" type="curve"/>
      <point x="531" y="17" type="line" smooth="yes"/>
      <point x="526" y="-7" smooth="yes"/>
      <point x="550" y="-14" smooth="yes"/>
      <point x="573" y="-14" type="curve" smooth="yes"/>
      <point x="596" y="-14" smooth="yes"/>
      <point x="609" y="-10" smooth="yes"/>
      <point x="612" y="14" type="curve" smooth="yes"/>
      <point x="662" y="421" type="line" smooth="yes"/>
      <point x="665" y="440" smooth="yes"/>
      <point x="654" y="452" smooth="yes"/>
      <point x="631" y="452" type="curve" smooth="yes"/>
      <point x="328" y="452" type="line" smooth="yes"/>
      <point x="312" y="452" smooth="yes"/>
      <point x="300" y="438" smooth="yes"/>
      <point x="300" y="420" type="curve" smooth="yes"/>
      <point x="300" y="399" smooth="yes"/>
      <point x="309" y="389" smooth="yes"/>
      <point x="326" y="389" type="curve" smooth="yes"/>
      <point x="578" y="389" type="line"/>
      <point x="557" y="225" type="line" smooth="yes"/>
      <point x="545" y="126" smooth="yes"/>
      <point x="444" y="53" smooth="yes"/>
      <point x="337" y="53" type="curve" smooth="yes"/>
      <point x="192" y="53" smooth="yes"/>
      <point x="122" y="188" smooth="yes"/>
      <point x="122" y="325" type="curve" smooth="yes"/>
      <point x="122" y="524" smooth="yes"/>
      <point x="210" y="811" smooth="yes"/>
      <point x="424" y="811" type="curve" smooth="yes"/>
      <point x="546" y="811" smooth="yes"/>
      <point x="585" y="732" smooth="yes"/>
      <point x="596" y="732" type="curve" smooth="yes"/>
      <point x="616" y="732" smooth="yes"/>
      <point x="641" y="756" smooth="yes"/>
      <point x="641" y="774" type="curve" smooth="yes"/>
      <point x="641" y="795" smooth="yes"/>
      <point x="557" y="872" smooth="yes"/>
    </contour>
  </outline>
</glyph>
<glyph name="H" format="1">
  <advance width="764"/>
  <unicode hex="0048"/>
  <outline>
    <contour>
      <point x="606" y="18" type="curve" smooth="yes" name="hr00"/>
      <point x="700" y="780" smooth="yes"/>
      <point x="708" y="846" smooth="yes"/>
      <point x="708" y="848" type="curve" smooth="yes"/>
      <point x="708" y="868" smooth="yes"/>
      <point x="693" y="872" smooth="yes"/>
      <point x="675" y="872" type="curve" smooth="yes"/>
      <point x="654" y="872" smooth="yes"/>
      <point x="633" y="867" smooth="yes"/>
      <point x="630" y="840" type="curve" smooth="yes"/>
      <point x="612" y="698"/>
      <point x="599" y="588"/>
      <point x="587" y="491" type="curve"/>
      <point x="192" y="491" type="line"/>
      <point x="235" y="843" smooth="yes"/>
      <point x="236" y="846" smooth="yes"/>
      <point x="236" y="848" type="curve" smooth="yes"/>
      <point x="236" y="868" smooth="yes"/>
      <point x="221" y="872" smooth="yes"/>
      <point x="203" y="872" type="curve" smooth="yes"/>
      <point x="182" y="872" smooth="yes"/>
      <point x="161" y="867" smooth="yes"/>
      <point x="158" y="840" type="curve" smooth="yes"/>
      <point x="57" y="17" smooth="yes"/>
      <point x="57" y="15" smooth="yes"/>
      <point x="57" y="14" type="curve" smooth="yes"/>
      <point x="57" y="-11" smooth="yes"/>
      <point x="75" y="-14" smooth="yes"/>
      <point x="97" y="-14" type="curve" smooth="yes"/>
      <point x="115" y="-14" smooth="yes"/>
      <point x="131" y="-7" smooth="yes"/>
      <point x="134" y="18" type="curve" smooth="yes"/>
      <point x="185" y="428" type="line"/>
      <point x="579" y="428" type="line"/>
      <point x="530" y="25" smooth="yes"/>
      <point x="529" y="15" smooth="yes"/>
      <point x="529" y="14" type="curve" smooth="yes"/>
      <point x="529" y="-11" smooth="yes"/>
      <point x="547" y="-14" smooth="yes"/>
      <point x="569" y="-14" type="curve" smooth="yes"/>
      <point x="587" y="-14" smooth="yes"/>
      <point x="603" y="-7" smooth="yes"/>
    </contour>
  </outline>
</glyph>
<glyph name="I" format="1">
  <advance width="293"/>
  <unicode hex="0049"/>
  <outline>
    <contour>
      <point x="134" y="18" type="curve" smooth="yes" name="hr00"/>
      <point x="228" y="780" smooth="yes"/>
      <point x="236" y="846" smooth="yes"/>
      <point x="236" y="848" type="curve" smooth="yes"/>
      <point x="236" y="868" smooth="yes"/>
      <point x="221" y="872" smooth="yes"/>
      <point x="203" y="872" type="curve" smooth="yes"/>
      <point x="182" y="872" smooth="yes"/>
      <point x="161" y="867" smooth="yes"/>
      <point x="158" y="840" type="curve" smooth="yes"/>
      <point x="57" y="17" smooth="yes"/>
      <point x="57" y="15" smooth="yes"/>
      <point x="57" y="14" type="curve" smooth="yes"/>
      <point x="57" y="-11" smooth="yes"/>
      <point x="75" y="-14" smooth="yes"/>
      <point x="97" y="-14" type="curve" smooth="yes"/>
      <point x="115" y="-14" smooth="yes"/>
      <point x="131" y="-7" smooth="yes"/>
    </contour>
  </outline>
</glyph>
<glyph name="J" format="1">
  <advance width="431"/>
  <unicode hex="004A"/>
  <outline>
    <contour>
      <point x="375" y="829" type="line" name="hr00"/>
      <point x="375" y="834" type="line" smooth="yes"/>
      <point x="375" y="850" smooth="yes"/>
      <point x="364" y="860" smooth="yes"/>
      <point x="343" y="860" type="curve" smooth="yes"/>
      <point x="42" y="860" type="line" smooth="yes"/>
      <point x="27" y="860" smooth="yes"/>
      <point x="14" y="847" smooth="yes"/>
      <point x="14" y="826" type="curve" smooth="yes"/>
      <point x="14" y="805" smooth="yes"/>
      <point x="24" y="795" smooth="yes"/>
      <point x="41" y="795" type="curve" smooth="yes"/>
      <point x="294" y="795" type="line"/>
      <point x="227" y="209" type="line" smooth="yes"/>
      <point x="207" y="43" smooth="yes"/>
      <point x="168" y="-69" smooth="yes"/>
      <point x="-11" y="-69" type="curve" smooth="yes"/>
      <point x="-55" y="-69" smooth="yes"/>
      <point x="-57" y="-59" smooth="yes"/>
      <point x="-83" y="-59" type="curve" smooth="yes"/>
      <point x="-101" y="-59" smooth="yes"/>
      <point x="-113" y="-74" smooth="yes"/>
      <point x="-113" y="-90" type="curve" smooth="yes"/>
      <point x="-113" y="-130" smooth="yes"/>
      <point x="-48" y="-141" smooth="yes"/>
      <point x="-4" y="-141" type="curve" smooth="yes"/>
      <point x="214" y="-141" smooth="yes"/>
      <point x="279" y="-14" smooth="yes"/>
      <point x="302" y="189" type="curve" smooth="yes"/>
    </contour>
  </outline>
</glyph>
<glyph name="K" format="1">
  <advance width="633"/>
  <unicode hex="004B"/>
  <outline>
    <contour>
      <point x="134" y="18" type="curve" smooth="yes" name="hr00"/>
      <point x="154" y="186"/>
      <point x="171" y="320"/>
      <point x="184" y="427" type="curve"/>
      <point x="232" y="427" type="line" smooth="yes"/>
      <point x="378" y="427" smooth="yes"/>
      <point x="386" y="351" smooth="yes"/>
      <point x="433" y="214" type="curve" smooth="yes"/>
      <point x="503" y="8" type="line" smooth="yes"/>
      <point x="509" y="-10" smooth="yes"/>
      <point x="519" y="-14" smooth="yes"/>
      <point x="540" y="-14" type="curve" smooth="yes"/>
      <point x="563" y="-14" smooth="yes"/>
      <point x="581" y="-4" smooth="yes"/>
      <point x="581" y="13" type="curve" smooth="yes"/>
      <point x="581" y="15" smooth="yes"/>
      <point x="581" y="18" smooth="yes"/>
      <point x="580" y="21" type="curve" smooth="yes"/>
      <point x="518" y="202" type="line" smooth="yes"/>
      <point x="484" y="301"/>
      <point x="462" y="417"/>
      <point x="364" y="458" type="curve"/>
      <point x="365" y="465" type="line"/>
      <point x="496" y="531" smooth="yes"/>
      <point x="605" y="697" smooth="yes"/>
      <point x="605" y="841" type="curve" smooth="yes"/>
      <point x="605" y="862" smooth="yes"/>
      <point x="591" y="872" smooth="yes"/>
      <point x="570" y="872" type="curve" smooth="yes"/>
      <point x="543" y="872" smooth="yes"/>
      <point x="529" y="864" smooth="yes"/>
      <point x="529" y="841" type="curve" smooth="yes"/>
      <point x="529" y="707" smooth="yes"/>
      <point x="389" y="486" smooth="yes"/>
      <point x="239" y="486" type="curve" smooth="yes"/>
      <point x="192" y="486" type="line"/>
      <point x="231" y="808" smooth="yes"/>
      <point x="236" y="846" smooth="yes"/>
      <point x="236" y="848" type="curve" smooth="yes"/>
      <point x="236" y="868" smooth="yes"/>
      <point x="221" y="872" smooth="yes"/>
      <point x="203" y="872" type="curve" smooth="yes"/>
      <point x="182" y="872" smooth="yes"/>
      <point x="161" y="867" smooth="yes"/>
      <point x="158" y="840" type="curve" smooth="yes"/>
      <point x="57" y="17" smooth="yes"/>
      <point x="57" y="15" smooth="yes"/>
      <point x="57" y="14" type="curve" smooth="yes"/>
      <point x="57" y="-11" smooth="yes"/>
      <point x="75" y="-14" smooth="yes"/>
      <point x="97" y="-14" type="curve" smooth="yes"/>
      <point x="115" y="-14" smooth="yes"/>
      <point x="131" y="-7" smooth="yes"/>
    </contour>
  </outline>
</glyph>
<glyph name="L" format="1">
  <advance width="524"/>
  <unicode hex="004C"/>
  <outline>
    <contour>
      <point x="230" y="840" type="line" name="hr00"/>
      <point x="230" y="847" type="line" smooth="yes"/>
      <point x="230" y="868" smooth="yes"/>
      <point x="214" y="872" smooth="yes"/>
      <point x="197" y="872" type="curve" smooth="yes"/>
      <point x="176" y="872" smooth="yes"/>
      <point x="155" y="867" smooth="yes"/>
      <point x="153" y="840" type="curve" smooth="yes"/>
      <point x="56" y="31" type="line"/>
      <point x="56" y="25" type="line" smooth="yes"/>
      <point x="56" y="10" smooth="yes"/>
      <point x="67" y="0" smooth="yes"/>
      <point x="88" y="0" type="curve" smooth="yes"/>
      <point x="489" y="0" type="line" smooth="yes"/>
      <point x="504" y="0" smooth="yes"/>
      <point x="517" y="13" smooth="yes"/>
      <point x="517" y="34" type="curve" smooth="yes"/>
      <point x="517" y="55" smooth="yes"/>
      <point x="507" y="64" smooth="yes"/>
      <point x="490" y="64" type="curve" smooth="yes"/>
      <point x="137" y="64" type="line"/>
    </contour>
  </outline>
</glyph>
<glyph name="M" format="1">
  <advance width="878"/>
  <unicode hex="004D"/>
  <outline>
    <contour>
      <point x="225" y="724" type="line"/>
      <point x="354" y="28" type="line" smooth="yes"/>
      <point x="358" y="6" smooth="yes"/>
      <point x="385" y="0" smooth="yes"/>
      <point x="399" y="0" type="curve" smooth="yes"/>
      <point x="421" y="0" smooth="yes"/>
      <point x="437" y="7" smooth="yes"/>
      <point x="445" y="28" type="curve" smooth="yes"/>
      <point x="724" y="721" type="line"/>
      <point x="668" y="15" type="line"/>
      <point x="668" y="-8" smooth="yes"/>
      <point x="678" y="-14" smooth="yes"/>
      <point x="701" y="-14" type="curve" smooth="yes" name="hr01"/>
      <point x="725" y="-14" smooth="yes"/>
      <point x="742" y="-7" smooth="yes"/>
      <point x="743" y="15" type="curve" smooth="yes"/>
      <point x="806" y="841" type="line"/>
      <point x="806" y="862" smooth="yes"/>
      <point x="790" y="872" smooth="yes"/>
      <point x="766" y="872" type="curve" smooth="yes"/>
      <point x="748" y="872" type="line" smooth="yes"/>
      <point x="725" y="872" smooth="yes"/>
      <point x="707" y="861" smooth="yes"/>
      <point x="699" y="841" type="curve" smooth="yes"/>
      <point x="409" y="144" type="line"/>
      <point x="279" y="841" type="line" smooth="yes"/>
      <point x="275" y="862" smooth="yes"/>
      <point x="255" y="874" smooth="yes"/>
      <point x="234" y="874" type="curve" smooth="yes" name="hr02"/>
      <point x="223" y="874" type="line" smooth="yes"/>
      <point x="200" y="874" smooth="yes"/>
      <point x="176" y="864" smooth="yes"/>
      <point x="172" y="841" type="curve" smooth="yes"/>
      <point x="36" y="15" type="line"/>
      <point x="36" y="8" type="line" smooth="yes"/>
      <point x="36" y="-10" smooth="yes"/>
      <point x="46" y="-14" smooth="yes"/>
      <point x="67" y="-14" type="curve" smooth="yes"/>
      <point x="92" y="-14" smooth="yes"/>
      <point x="108" y="-7" smooth="yes"/>
      <point x="112" y="15" type="curve" smooth="yes"/>
    </contour>
  </outline>
</glyph>
<glyph name="N" format="1">
  <advance width="760"/>
  <unicode hex="004E"/>
  <outline>
    <contour>
      <point x="218" y="727" type="line" name="hr00"/>
      <point x="501" y="13" type="line" smooth="yes"/>
      <point x="509" y="-7" smooth="yes"/>
      <point x="528" y="-14" smooth="yes"/>
      <point x="545" y="-14" type="curve" smooth="yes"/>
      <point x="564" y="-14" type="line" smooth="yes"/>
      <point x="587" y="-14" smooth="yes"/>
      <point x="601" y="-4" smooth="yes"/>
      <point x="603" y="17" type="curve" smooth="yes"/>
      <point x="701" y="819" type="line" smooth="yes"/>
      <point x="702" y="829" smooth="yes"/>
      <point x="703" y="836" smooth="yes"/>
      <point x="703" y="843" type="curve" smooth="yes"/>
      <point x="703" y="865" smooth="yes"/>
      <point x="695" y="872" smooth="yes"/>
      <point x="665" y="872" type="curve" smooth="yes"/>
      <point x="629" y="872" smooth="yes"/>
      <point x="628" y="854" smooth="yes"/>
      <point x="624" y="819" type="curve" smooth="yes"/>
      <point x="543" y="139" type="line"/>
      <point x="262" y="847" type="line" smooth="yes"/>
      <point x="255" y="866" smooth="yes"/>
      <point x="235" y="872" smooth="yes"/>
      <point x="221" y="872" type="curve" smooth="yes"/>
      <point x="199" y="872" type="line" smooth="yes"/>
      <point x="176" y="872" smooth="yes"/>
      <point x="158" y="864" smooth="yes"/>
      <point x="155" y="841" type="curve" smooth="yes"/>
      <point x="59" y="39" type="line" smooth="yes"/>
      <point x="58" y="29" smooth="yes"/>
      <point x="57" y="21" smooth="yes"/>
      <point x="57" y="14" type="curve" smooth="yes"/>
      <point x="57" y="-8" smooth="yes"/>
      <point x="65" y="-14" smooth="yes"/>
      <point x="95" y="-14" type="curve" smooth="yes"/>
      <point x="122" y="-14" smooth="yes"/>
      <point x="131" y="-6" smooth="yes"/>
      <point x="136" y="39" type="curve" smooth="yes"/>
    </contour>
  </outline>
</glyph>
<glyph name="O" format="1">
  <advance width="734"/>
  <unicode hex="004F"/>
  <outline>
    <contour>
      <point x="692" y="539" type="curve" smooth="yes" name="hr00"/>
      <point x="692" y="722" smooth="yes"/>
      <point x="623" y="872" smooth="yes"/>
      <point x="416" y="872" type="curve" smooth="yes"/>
      <point x="139" y="872" smooth="yes"/>
      <point x="42" y="546" smooth="yes"/>
      <point x="42" y="321" type="curve" smooth="yes"/>
      <point x="42" y="137" smooth="yes"/>
      <point x="112" y="-14" smooth="yes"/>
      <point x="318" y="-14" type="curve" smooth="yes"/>
      <point x="596" y="-14" smooth="yes"/>
      <point x="692" y="312" smooth="yes"/>
    </contour>
    <contour>
      <point x="326" y="50" type="curve" smooth="yes"/>
      <point x="172" y="50" smooth="yes"/>
      <point x="123" y="182" smooth="yes"/>
      <point x="123" y="315" type="curve" smooth="yes"/>
      <point x="123" y="483" smooth="yes"/>
      <point x="188" y="811" smooth="yes"/>
      <point x="409" y="811" type="curve" smooth="yes"/>
      <point x="563" y="811" smooth="yes"/>
      <point x="612" y="679" smooth="yes"/>
      <point x="612" y="546" type="curve" smooth="yes"/>
      <point x="612" y="378" smooth="yes"/>
      <point x="547" y="50" smooth="yes"/>
    </contour>
  </outline>
</glyph>
<glyph name="P" format="1">
  <advance width="646"/>
  <unicode hex="0050"/>
  <outline>
    <contour>
      <point x="99" y="-14" type="curve" smooth="yes" name="hr00"/>
      <point x="119" y="-14" smooth="yes"/>
      <point x="133" y="-6" smooth="yes"/>
      <point x="135" y="18" type="curve" smooth="yes"/>
      <point x="177" y="368" type="line"/>
      <point x="406" y="358" smooth="yes"/>
      <point x="642" y="433" smooth="yes"/>
      <point x="641" y="654" type="curve" smooth="yes"/>
      <point x="639" y="798" smooth="yes"/>
      <point x="536" y="872" smooth="yes"/>
      <point x="378" y="872" type="curve" smooth="yes"/>
      <point x="313" y="872" smooth="yes"/>
      <point x="252" y="864" smooth="yes"/>
      <point x="189" y="857" type="curve" smooth="yes"/>
      <point x="176" y="855" smooth="yes"/>
      <point x="161" y="847" smooth="yes"/>
      <point x="159" y="833" type="curve" smooth="yes"/>
      <point x="58" y="14" type="line" smooth="yes"/>
      <point x="56" y="-10" smooth="yes"/>
      <point x="78" y="-14" smooth="yes"/>
    </contour>
    <contour>
      <point x="560" y="654" type="curve" smooth="yes"/>
      <point x="561" y="475"/>
      <point x="371" y="434"/>
      <point x="187" y="437" type="curve"/>
      <point x="231" y="799" type="line"/>
      <point x="284" y="806" smooth="yes"/>
      <point x="331" y="809" smooth="yes"/>
      <point x="379" y="809" type="curve" smooth="yes"/>
      <point x="488" y="809" smooth="yes"/>
      <point x="558" y="757" smooth="yes"/>
    </contour>
  </outline>
</glyph>
<glyph name="Q" format="1">
  <advance width="729"/>
  <unicode hex="0051"/>
  <outline>
    <contour>
      <point x="689" y="539" type="curve" smooth="yes" name="hr00"/>
      <point x="689" y="722" smooth="yes"/>
      <point x="620" y="872" smooth="yes"/>
      <point x="413" y="872" type="curve" smooth="yes"/>
      <point x="136" y="872" smooth="yes"/>
      <point x="39" y="546" smooth="yes"/>
      <point x="39" y="321" type="curve" smooth="yes"/>
      <point x="39" y="137" smooth="yes"/>
      <point x="109" y="-14" smooth="yes"/>
      <point x="315" y="-14" type="curve" smooth="yes"/>
      <point x="358" y="-14"/>
      <point x="398" y="-6"/>
      <point x="433" y="8" type="curve"/>
      <point x="539" y="-94" type="line" smooth="yes"/>
      <point x="566" y="-120" smooth="yes"/>
      <point x="573" y="-127" smooth="yes"/>
      <point x="585" y="-127" type="curve" smooth="yes"/>
      <point x="605" y="-127" smooth="yes"/>
      <point x="627" y="-111" smooth="yes"/>
      <point x="627" y="-91" type="curve" smooth="yes"/>
      <point x="627" y="-74" smooth="yes"/>
      <point x="623" y="-69" smooth="yes"/>
      <point x="591" y="-39" type="curve" smooth="yes"/>
      <point x="501" y="48" type="line"/>
      <point x="637" y="154" smooth="yes"/>
      <point x="689" y="372" smooth="yes"/>
    </contour>
    <contour>
      <point x="323" y="50" type="curve" smooth="yes"/>
      <point x="169" y="50" smooth="yes"/>
      <point x="120" y="182" smooth="yes"/>
      <point x="120" y="315" type="curve" smooth="yes"/>
      <point x="120" y="483" smooth="yes"/>
      <point x="185" y="811" smooth="yes"/>
      <point x="406" y="811" type="curve" smooth="yes"/>
      <point x="560" y="811" smooth="yes"/>
      <point x="609" y="679" smooth="yes"/>
      <point x="609" y="546" type="curve" smooth="yes"/>
      <point x="609" y="416"/>
      <point x="570" y="192"/>
      <point x="452" y="97" type="curve"/>
      <point x="389" y="158" type="line" smooth="yes"/>
      <point x="358" y="189" smooth="yes"/>
      <point x="347" y="199" smooth="yes"/>
      <point x="333" y="199" type="curve" smooth="yes"/>
      <point x="315" y="199" smooth="yes"/>
      <point x="294" y="183" smooth="yes"/>
      <point x="294" y="162" type="curve" smooth="yes"/>
      <point x="294" y="146" smooth="yes"/>
      <point x="304" y="134" smooth="yes"/>
      <point x="332" y="106" type="curve" smooth="yes"/>
      <point x="381" y="59" type="line"/>
      <point x="363" y="53" smooth="yes"/>
      <point x="344" y="50" smooth="yes"/>
    </contour>
  </outline>
</glyph>
<glyph name="R" format="1">
  <advance width="699"/>
  <unicode hex="0052"/>
  <outline>
    <contour>
      <point x="94" y="-14" type="curve" smooth="yes" name="hr00"/>
      <point x="119" y="-14" smooth="yes"/>
      <point x="130" y="-8" smooth="yes"/>
      <point x="133" y="13" type="curve" smooth="yes"/>
      <point x="183" y="423" type="line"/>
      <point x="297" y="423" type="line" smooth="yes"/>
      <point x="358" y="423" smooth="yes"/>
      <point x="382" y="414" smooth="yes"/>
      <point x="399" y="403" type="curve" smooth="yes"/>
      <point x="441" y="377" smooth="yes"/>
      <point x="469" y="298" smooth="yes"/>
      <point x="497" y="214" type="curve" smooth="yes"/>
      <point x="567" y="8" type="line" smooth="yes"/>
      <point x="573" y="-10" smooth="yes"/>
      <point x="584" y="-14" smooth="yes"/>
      <point x="605" y="-14" type="curve" smooth="yes"/>
      <point x="627" y="-14" smooth="yes"/>
      <point x="645" y="-4" smooth="yes"/>
      <point x="645" y="13" type="curve" smooth="yes"/>
      <point x="645" y="15" smooth="yes"/>
      <point x="645" y="18" smooth="yes"/>
      <point x="644" y="21" type="curve" smooth="yes"/>
      <point x="582" y="202" type="line" smooth="yes"/>
      <point x="549" y="301"/>
      <point x="526" y="417"/>
      <point x="428" y="458" type="curve"/>
      <point x="561" y="484" smooth="yes"/>
      <point x="641" y="571" smooth="yes"/>
      <point x="641" y="678" type="curve" smooth="yes"/>
      <point x="641" y="811" smooth="yes"/>
      <point x="531" y="872" smooth="yes"/>
      <point x="388" y="872" type="curve" smooth="yes"/>
      <point x="259" y="872"/>
      <point x="185" y="857"/>
      <point x="185" y="857" type="curve"/>
      <point x="171" y="855" smooth="yes"/>
      <point x="160" y="846" smooth="yes"/>
      <point x="158" y="834" type="curve" smooth="yes"/>
      <point x="57" y="15" type="line"/>
      <point x="57" y="11" type="line" smooth="yes"/>
      <point x="57" y="-7" smooth="yes"/>
      <point x="73" y="-14" smooth="yes"/>
    </contour>
    <contour>
      <point x="192" y="489" type="line"/>
      <point x="230" y="799" type="line"/>
      <point x="280" y="808" smooth="yes"/>
      <point x="332" y="811" smooth="yes"/>
      <point x="381" y="811" type="curve" smooth="yes"/>
      <point x="473" y="811" smooth="yes"/>
      <point x="560" y="764" smooth="yes"/>
      <point x="560" y="676" type="curve" smooth="yes"/>
      <point x="560" y="540" smooth="yes"/>
      <point x="402" y="489" smooth="yes"/>
      <point x="309" y="489" type="curve" smooth="yes"/>
    </contour>
  </outline>
</glyph>
<glyph name="S" format="1">
  <advance width="596"/>
  <unicode hex="0053"/>
  <outline>
    <contour>
      <point x="368" y="872" type="curve" smooth="yes" name="hr00"/>
      <point x="227" y="872" smooth="yes"/>
      <point x="112" y="798" smooth="yes"/>
      <point x="112" y="657" type="curve" smooth="yes"/>
      <point x="112" y="452" smooth="yes"/>
      <point x="441" y="385" smooth="yes"/>
      <point x="441" y="221" type="curve" smooth="yes"/>
      <point x="441" y="119" smooth="yes"/>
      <point x="364" y="50" smooth="yes"/>
      <point x="255" y="50" type="curve" smooth="yes"/>
      <point x="178" y="50" smooth="yes"/>
      <point x="133" y="77" smooth="yes"/>
      <point x="99" y="126" type="curve" smooth="yes"/>
      <point x="80" y="157" smooth="yes"/>
      <point x="74" y="189" smooth="yes"/>
      <point x="49" y="189" type="curve" smooth="yes"/>
      <point x="28" y="189" smooth="yes"/>
      <point x="17" y="172" smooth="yes"/>
      <point x="17" y="154" type="curve" smooth="yes"/>
      <point x="17" y="116" smooth="yes"/>
      <point x="46" y="73" smooth="yes"/>
      <point x="76" y="48" type="curve" smooth="yes"/>
      <point x="127" y="4" smooth="yes"/>
      <point x="193" y="-14" smooth="yes"/>
      <point x="258" y="-14" type="curve" smooth="yes"/>
      <point x="412" y="-14" smooth="yes"/>
      <point x="521" y="74" smooth="yes"/>
      <point x="521" y="225" type="curve" smooth="yes"/>
      <point x="521" y="438" smooth="yes"/>
      <point x="193" y="503" smooth="yes"/>
      <point x="193" y="659" type="curve" smooth="yes"/>
      <point x="193" y="752" smooth="yes"/>
      <point x="260" y="809" smooth="yes"/>
      <point x="358" y="809" type="curve" smooth="yes"/>
      <point x="472" y="809" smooth="yes"/>
      <point x="503" y="731" smooth="yes"/>
      <point x="540" y="731" type="curve" smooth="yes"/>
      <point x="557" y="731" smooth="yes"/>
      <point x="568" y="742" smooth="yes"/>
      <point x="568" y="762" type="curve" smooth="yes"/>
      <point x="568" y="811" smooth="yes"/>
      <point x="469" y="872" smooth="yes"/>
    </contour>
  </outline>
</glyph>
<glyph name="T" format="1">
  <advance width="515"/>
  <unicode hex="0054"/>
  <outline>
    <contour>
      <point x="528" y="797" type="line" smooth="yes" name="hr00"/>
      <point x="552" y="797" smooth="yes"/>
      <point x="564" y="809" smooth="yes"/>
      <point x="564" y="833" type="curve" smooth="yes"/>
      <point x="564" y="851" smooth="yes"/>
      <point x="550" y="860" smooth="yes"/>
      <point x="532" y="860" type="curve" smooth="yes"/>
      <point x="73" y="860" type="line" smooth="yes"/>
      <point x="49" y="860" smooth="yes"/>
      <point x="36" y="847" smooth="yes"/>
      <point x="36" y="823" type="curve" smooth="yes"/>
      <point x="36" y="805" smooth="yes"/>
      <point x="50" y="797" smooth="yes"/>
      <point x="69" y="797" type="curve" smooth="yes"/>
      <point x="258" y="797" type="line"/>
      <point x="162" y="18" smooth="yes"/>
      <point x="162" y="15" smooth="yes"/>
      <point x="162" y="14" type="curve" smooth="yes"/>
      <point x="162" y="-11" smooth="yes"/>
      <point x="180" y="-14" smooth="yes"/>
      <point x="202" y="-14" type="curve" smooth="yes"/>
      <point x="220" y="-14" smooth="yes"/>
      <point x="236" y="-7" smooth="yes"/>
      <point x="239" y="18" type="curve" smooth="yes"/>
      <point x="335" y="797" type="line"/>
    </contour>
  </outline>
</glyph>
<glyph name="U" format="1">
  <advance width="741"/>
  <unicode hex="0055"/>
  <outline>
    <contour>
      <point x="63" y="322" type="line" smooth="yes" name="hr00"/>
      <point x="59" y="287" smooth="yes"/>
      <point x="56" y="255" smooth="yes"/>
      <point x="56" y="225" type="curve" smooth="yes"/>
      <point x="56" y="76" smooth="yes"/>
      <point x="116" y="-14" smooth="yes"/>
      <point x="302" y="-14" type="curve" smooth="yes"/>
      <point x="531" y="-14" smooth="yes"/>
      <point x="585" y="108" smooth="yes"/>
      <point x="612" y="322" type="curve" smooth="yes"/>
      <point x="675" y="846" type="line"/>
      <point x="675" y="862" smooth="yes"/>
      <point x="666" y="872" smooth="yes"/>
      <point x="640" y="872" type="curve" smooth="yes"/>
      <point x="619" y="872" smooth="yes"/>
      <point x="602" y="862" smooth="yes"/>
      <point x="599" y="846" type="curve" smooth="yes"/>
      <point x="535" y="322" type="line" smooth="yes"/>
      <point x="515" y="160" smooth="yes"/>
      <point x="486" y="52" smooth="yes"/>
      <point x="311" y="52" type="curve" smooth="yes"/>
      <point x="174" y="52" smooth="yes"/>
      <point x="134" y="120" smooth="yes"/>
      <point x="134" y="228" type="curve" smooth="yes"/>
      <point x="134" y="256" smooth="yes"/>
      <point x="137" y="288" smooth="yes"/>
      <point x="141" y="322" type="curve" smooth="yes"/>
      <point x="204" y="846" type="line"/>
      <point x="204" y="862" smooth="yes"/>
      <point x="196" y="872" smooth="yes"/>
      <point x="169" y="872" type="curve" smooth="yes"/>
      <point x="148" y="872" smooth="yes"/>
      <point x="132" y="862" smooth="yes"/>
      <point x="129" y="846" type="curve" smooth="yes"/>
    </contour>
  </outline>
</glyph>
<glyph name="V" format="1">
  <advance width="624"/>
  <unicode hex="0056"/>
  <outline>
    <contour>
      <point x="260" y="99" type="line" name="hr00"/>
      <point x="147" y="843" type="line"/>
      <point x="141" y="867" smooth="yes"/>
      <point x="129" y="872" smooth="yes"/>
      <point x="104" y="872" type="curve" smooth="yes"/>
      <point x="81" y="872" smooth="yes"/>
      <point x="66" y="864" smooth="yes"/>
      <point x="66" y="847" type="curve" smooth="yes"/>
      <point x="66" y="844" smooth="yes"/>
      <point x="67" y="841" smooth="yes"/>
      <point x="67" y="839" type="curve" smooth="yes"/>
      <point x="199" y="15" type="line"/>
      <point x="204" y="-8" smooth="yes"/>
      <point x="224" y="-14" smooth="yes"/>
      <point x="249" y="-14" type="curve" smooth="yes"/>
      <point x="274" y="-14" smooth="yes"/>
      <point x="295" y="-7" smooth="yes"/>
      <point x="305" y="15" type="curve" smooth="yes"/>
      <point x="601" y="720" type="line" smooth="yes"/>
      <point x="633" y="795" smooth="yes"/>
      <point x="645" y="833" smooth="yes"/>
      <point x="645" y="839" type="curve" smooth="yes"/>
      <point x="645" y="865" smooth="yes"/>
      <point x="617" y="872" smooth="yes"/>
      <point x="599" y="872" type="curve" smooth="yes"/>
      <point x="577" y="872" smooth="yes"/>
      <point x="567" y="839" smooth="yes"/>
      <point x="542" y="778" type="curve" smooth="yes"/>
    </contour>
  </outline>
</glyph>
<glyph name="W" format="1">
  <advance width="963"/>
  <unicode hex="0057"/>
  <outline>
    <contour>
      <point x="260" y="99" type="line" name="hr00"/>
      <point x="147" y="843" type="line" smooth="yes"/>
      <point x="143" y="867" smooth="yes"/>
      <point x="129" y="872" smooth="yes"/>
      <point x="104" y="872" type="curve" smooth="yes"/>
      <point x="81" y="872" smooth="yes"/>
      <point x="66" y="864" smooth="yes"/>
      <point x="66" y="847" type="curve" smooth="yes"/>
      <point x="66" y="844" smooth="yes"/>
      <point x="67" y="841" smooth="yes"/>
      <point x="67" y="839" type="curve" smooth="yes"/>
      <point x="199" y="15" type="line"/>
      <point x="204" y="-8" smooth="yes"/>
      <point x="224" y="-14" smooth="yes"/>
      <point x="249" y="-14" type="curve" smooth="yes"/>
      <point x="274" y="-14"/>
      <point x="295" y="-7"/>
      <point x="305" y="15" type="curve"/>
      <point x="512" y="692" type="line"/>
      <point x="620" y="15" type="line"/>
      <point x="626" y="-8" smooth="yes"/>
      <point x="645" y="-14" smooth="yes"/>
      <point x="671" y="-14" type="curve" smooth="yes"/>
      <point x="696" y="-14"/>
      <point x="717" y="-7"/>
      <point x="727" y="15" type="curve"/>
      <point x="949" y="717" type="line" smooth="yes"/>
      <point x="983" y="825" smooth="yes"/>
      <point x="986" y="836" smooth="yes"/>
      <point x="986" y="839" type="curve" smooth="yes"/>
      <point x="986" y="865" smooth="yes"/>
      <point x="955" y="872" smooth="yes"/>
      <point x="937" y="872" type="curve" smooth="yes"/>
      <point x="917" y="872" smooth="yes"/>
      <point x="914" y="855" smooth="yes"/>
      <point x="910" y="844" type="curve" smooth="yes"/>
      <point x="682" y="99" type="line"/>
      <point x="568" y="843" type="line" smooth="yes"/>
      <point x="564" y="867" smooth="yes"/>
      <point x="550" y="872" smooth="yes"/>
      <point x="525" y="872" type="curve" smooth="yes"/>
      <point x="521" y="872" type="line" smooth="yes"/>
      <point x="497" y="872" smooth="yes"/>
      <point x="491" y="855" smooth="yes"/>
      <point x="487" y="841" type="curve" smooth="yes"/>
    </contour>
  </outline>
</glyph>
<glyph name="X" format="1">
  <advance width="640"/>
  <unicode hex="0058"/>
  <outline>
    <contour>
      <point x="280" y="455" type="curve" name="hr00"/>
      <point x="-31" y="45" type="line"/>
      <point x="-36" y="39" smooth="yes"/>
      <point x="-41" y="28" smooth="yes"/>
      <point x="-41" y="18" type="curve" smooth="yes"/>
      <point x="-41" y="0" smooth="yes"/>
      <point x="-25" y="-14" smooth="yes"/>
      <point x="-6" y="-14" type="curve" smooth="yes"/>
      <point x="14" y="-14" smooth="yes"/>
      <point x="28" y="-3" smooth="yes"/>
      <point x="41" y="15" type="curve" smooth="yes"/>
      <point x="312" y="385" type="line"/>
      <point x="448" y="62" type="line" smooth="yes"/>
      <point x="473" y="0" smooth="yes"/>
      <point x="480" y="-14" smooth="yes"/>
      <point x="512" y="-14" type="curve" smooth="yes"/>
      <point x="532" y="-14" smooth="yes"/>
      <point x="547" y="-1" smooth="yes"/>
      <point x="547" y="15" type="curve" smooth="yes"/>
      <point x="547" y="34" smooth="yes"/>
      <point x="543" y="42" smooth="yes"/>
      <point x="518" y="99" type="curve" smooth="yes"/>
      <point x="364" y="454" type="line"/>
      <point x="641" y="816" type="line" smooth="yes"/>
      <point x="647" y="823" smooth="yes"/>
      <point x="650" y="832" smooth="yes"/>
      <point x="650" y="839" type="curve" smooth="yes"/>
      <point x="650" y="860" smooth="yes"/>
      <point x="636" y="872" smooth="yes"/>
      <point x="615" y="872" type="curve" smooth="yes"/>
      <point x="596" y="872" smooth="yes"/>
      <point x="585" y="864" smooth="yes"/>
      <point x="571" y="846" type="curve" smooth="yes"/>
      <point x="332" y="521" type="line"/>
      <point x="195" y="843" type="line" smooth="yes"/>
      <point x="185" y="865" smooth="yes"/>
      <point x="174" y="872" smooth="yes"/>
      <point x="148" y="872" type="curve" smooth="yes"/>
      <point x="126" y="872" smooth="yes"/>
      <point x="108" y="864" smooth="yes"/>
      <point x="108" y="847" type="curve" smooth="yes"/>
      <point x="108" y="844"/>
      <point x="109" y="841"/>
    </contour>
  </outline>
</glyph>
<glyph name="Y" format="1">
  <advance width="596"/>
  <unicode hex="0059"/>
  <outline>
    <contour>
      <point x="312" y="393" type="line" name="hr00"/>
      <point x="623" y="812" type="line" smooth="yes"/>
      <point x="630" y="821" smooth="yes"/>
      <point x="634" y="834" smooth="yes"/>
      <point x="634" y="844" type="curve" smooth="yes"/>
      <point x="634" y="862" smooth="yes"/>
      <point x="620" y="872" smooth="yes"/>
      <point x="595" y="872" type="curve" smooth="yes"/>
      <point x="575" y="872" smooth="yes"/>
      <point x="564" y="865" smooth="yes"/>
      <point x="556" y="854" type="curve" smooth="yes"/>
      <point x="284" y="473" type="line"/>
      <point x="143" y="843" type="line" smooth="yes"/>
      <point x="134" y="865" smooth="yes"/>
      <point x="125" y="872" smooth="yes"/>
      <point x="99" y="872" type="curve" smooth="yes"/>
      <point x="77" y="872" smooth="yes"/>
      <point x="59" y="864" smooth="yes"/>
      <point x="59" y="847" type="curve" smooth="yes"/>
      <point x="59" y="844" smooth="yes"/>
      <point x="60" y="841" smooth="yes"/>
      <point x="60" y="839" type="curve" smooth="yes"/>
      <point x="234" y="396" type="line"/>
      <point x="189" y="24" type="line" smooth="yes"/>
      <point x="188" y="16" smooth="yes"/>
      <point x="188" y="10" smooth="yes"/>
      <point x="188" y="9" type="curve" smooth="yes"/>
      <point x="188" y="-12" smooth="yes"/>
      <point x="207" y="-14" smooth="yes"/>
      <point x="228" y="-14" type="curve" smooth="yes"/>
      <point x="246" y="-14" smooth="yes"/>
      <point x="262" y="-7" smooth="yes"/>
      <point x="265" y="18" type="curve" smooth="yes"/>
    </contour>
  </outline>
</glyph>
<glyph name="Z" format="1">
  <advance width="624"/>
  <unicode hex="005A"/>
  <outline>
    <contour>
      <point x="22" y="49" type="line" smooth="yes" name="hr00"/>
      <point x="20" y="43" smooth="yes"/>
      <point x="17" y="36" smooth="yes"/>
      <point x="17" y="27" type="curve" smooth="yes"/>
      <point x="17" y="8" smooth="yes"/>
      <point x="31" y="0" smooth="yes"/>
      <point x="49" y="0" type="curve" smooth="yes"/>
      <point x="535" y="0" type="line" smooth="yes"/>
      <point x="559" y="0" smooth="yes"/>
      <point x="571" y="13" smooth="yes"/>
      <point x="571" y="36" type="curve" smooth="yes"/>
      <point x="571" y="55" smooth="yes"/>
      <point x="557" y="63" smooth="yes"/>
      <point x="539" y="63" type="curve" smooth="yes"/>
      <point x="119" y="63" type="line"/>
      <point x="119" y="63" smooth="yes"/>
      <point x="146" y="95" smooth="yes"/>
      <point x="169" y="136" type="curve" smooth="yes"/>
      <point x="584" y="811" type="line" smooth="yes"/>
      <point x="587" y="816" smooth="yes"/>
      <point x="589" y="823" smooth="yes"/>
      <point x="589" y="833" type="curve" smooth="yes"/>
      <point x="589" y="851" smooth="yes"/>
      <point x="575" y="860" smooth="yes"/>
      <point x="557" y="860" type="curve" smooth="yes"/>
      <point x="123" y="860" type="line" smooth="yes"/>
      <point x="99" y="860" smooth="yes"/>
      <point x="87" y="847" smooth="yes"/>
      <point x="87" y="823" type="curve" smooth="yes"/>
      <point x="87" y="805" smooth="yes"/>
      <point x="101" y="797" smooth="yes"/>
      <point x="119" y="797" type="curve" smooth="yes"/>
      <point x="490" y="797" type="line"/>
      <point x="483" y="785" smooth="yes"/>
      <point x="461" y="757" smooth="yes"/>
      <point x="442" y="727" type="curve" smooth="yes"/>
    </contour>
  </outline>
</glyph>
<glyph name="bracketleft" format="1">
  <advance width="434"/>
  <unicode hex="005B"/>
  <outline>
    <contour>
      <point x="203" y="937" type="line" smooth="yes" name="hr00"/>
      <point x="182" y="937" smooth="yes"/>
      <point x="174" y="927" smooth="yes"/>
      <point x="172" y="911" type="curve" smooth="yes"/>
      <point x="60" y="-63" type="line"/>
      <point x="60" y="-68" type="line" smooth="yes"/>
      <point x="60" y="-84" smooth="yes"/>
      <point x="71" y="-94" smooth="yes"/>
      <point x="92" y="-94" type="curve" smooth="yes"/>
      <point x="293" y="-94" type="line" smooth="yes"/>
      <point x="308" y="-94" smooth="yes"/>
      <point x="321" y="-81" smooth="yes"/>
      <point x="321" y="-60" type="curve" smooth="yes"/>
      <point x="321" y="-39" smooth="yes"/>
      <point x="311" y="-29" smooth="yes"/>
      <point x="294" y="-29" type="curve" smooth="yes"/>
      <point x="141" y="-29" type="line"/>
      <point x="245" y="872" type="line"/>
      <point x="406" y="872" type="line" smooth="yes"/>
      <point x="421" y="872" smooth="yes"/>
      <point x="434" y="885" smooth="yes"/>
      <point x="434" y="906" type="curve" smooth="yes"/>
      <point x="434" y="927" smooth="yes"/>
      <point x="424" y="937" smooth="yes"/>
      <point x="407" y="937" type="curve" smooth="yes"/>
    </contour>
  </outline>
</glyph>
<glyph name="asciicircum" format="1">
  <advance width="589"/>
  <unicode hex="005E"/>
  <outline>
    <contour>
      <point x="334" y="763" type="line" name="hr00"/>
      <point x="415" y="460" type="line" smooth="yes"/>
      <point x="421" y="439" smooth="yes"/>
      <point x="428" y="434" smooth="yes"/>
      <point x="451" y="434" type="curve" smooth="yes"/>
      <point x="472" y="434" smooth="yes"/>
      <point x="483" y="441" smooth="yes"/>
      <point x="483" y="457" type="curve" smooth="yes"/>
      <point x="483" y="459" smooth="yes"/>
      <point x="482" y="462" smooth="yes"/>
      <point x="482" y="464" type="curve" smooth="yes"/>
      <point x="388" y="823" type="line" smooth="yes"/>
      <point x="383" y="844" smooth="yes"/>
      <point x="365" y="849" smooth="yes"/>
      <point x="343" y="849" type="curve" smooth="yes"/>
      <point x="320" y="849" smooth="yes"/>
      <point x="302" y="843" smooth="yes"/>
      <point x="292" y="823" type="curve" smooth="yes"/>
      <point x="162" y="571" type="line" smooth="yes"/>
      <point x="115" y="481" smooth="yes"/>
      <point x="110" y="470" smooth="yes"/>
      <point x="110" y="459" type="curve" smooth="yes"/>
      <point x="110" y="441" smooth="yes"/>
      <point x="129" y="434" smooth="yes"/>
      <point x="145" y="434" type="curve" smooth="yes"/>
      <point x="163" y="434" smooth="yes"/>
      <point x="173" y="446" smooth="yes"/>
      <point x="210" y="519" type="curve" smooth="yes"/>
    </contour>
  </outline>
</glyph>
<glyph name="underscore" format="1">
  <advance width="481"/>
  <unicode hex="005F"/>
  <outline>
    <contour>
      <point x="25" y="-30" type="line" smooth="yes" name="hr00"/>
      <point x="7" y="-30" smooth="yes"/>
      <point x="0" y="-47" smooth="yes"/>
      <point x="0" y="-62" type="curve" smooth="yes"/>
      <point x="0" y="-75" smooth="yes"/>
      <point x="6" y="-88" smooth="yes"/>
      <point x="18" y="-88" type="curve" smooth="yes"/>
      <point x="454" y="-88" type="line" smooth="yes"/>
      <point x="473" y="-88" smooth="yes"/>
      <point x="481" y="-72" smooth="yes"/>
      <point x="481" y="-57" type="curve" smooth="yes"/>
      <point x="481" y="-44" smooth="yes"/>
      <point x="473" y="-30" smooth="yes"/>
      <point x="459" y="-30" type="curve" smooth="yes"/>
    </contour>
  </outline>
</glyph>
<glyph name="grave" format="1">
  <advance width="302"/>
  <unicode hex="0060"/>
  <outline>
    <contour>
      <point x="111" y="799" type="line" smooth="yes" name="hr00"/>
      <point x="106" y="805" smooth="yes"/>
      <point x="100" y="806" smooth="yes"/>
      <point x="95" y="806" type="curve" smooth="yes"/>
      <point x="69" y="806" smooth="yes"/>
      <point x="50" y="786" smooth="yes"/>
      <point x="50" y="763" type="curve" smooth="yes"/>
      <point x="50" y="755" smooth="yes"/>
      <point x="53" y="749" smooth="yes"/>
      <point x="63" y="740" type="curve" smooth="yes"/>
      <point x="213" y="603" type="line" smooth="yes"/>
      <point x="217" y="599" smooth="yes"/>
      <point x="221" y="598" smooth="yes"/>
      <point x="227" y="598" type="curve" smooth="yes"/>
      <point x="241" y="598" smooth="yes"/>
      <point x="252" y="610" smooth="yes"/>
      <point x="252" y="624" type="curve" smooth="yes"/>
      <point x="252" y="629" smooth="yes"/>
      <point x="250" y="634" smooth="yes"/>
      <point x="248" y="637" type="curve" smooth="yes"/>
    </contour>
  </outline>
</glyph>
<glyph name="a" format="1">
  <advance width="501"/>
  <unicode hex="0061"/>
  <outline>
    <contour>
      <point x="353" y="256" type="curve"/>
      <point x="338" y="164" smooth="yes"/>
      <point x="282" y="52" smooth="yes"/>
      <point x="192" y="52" type="curve" smooth="yes"/>
      <point x="145" y="52" smooth="yes"/>
      <point x="117" y="84" smooth="yes"/>
      <point x="117" y="123" type="curve" smooth="yes"/>
      <point x="117" y="192"/>
      <point x="173" y="242"/>
    </contour>
    <contour>
      <point x="448" y="392" type="curve" smooth="yes"/>
      <point x="448" y="479" smooth="yes"/>
      <point x="366" y="507" smooth="yes"/>
      <point x="282" y="507" type="curve" smooth="yes"/>
      <point x="216" y="507" smooth="yes"/>
      <point x="107" y="473" smooth="yes"/>
      <point x="107" y="449" type="curve" smooth="yes"/>
      <point x="107" y="431" smooth="yes"/>
      <point x="117" y="402" smooth="yes"/>
      <point x="136" y="402" type="curve" smooth="yes"/>
      <point x="154" y="402" smooth="yes"/>
      <point x="202" y="440" smooth="yes"/>
      <point x="279" y="440" type="curve" smooth="yes" name="hr01"/>
      <point x="329" y="440" smooth="yes"/>
      <point x="371" y="426" smooth="yes"/>
      <point x="371" y="378" type="curve" smooth="yes"/>
      <point x="371" y="363"/>
      <point x="370" y="340"/>
      <point x="366" y="316" type="curve"/>
      <point x="114" y="300" smooth="yes"/>
      <point x="38" y="206" smooth="yes"/>
      <point x="38" y="108" type="curve" smooth="yes"/>
      <point x="38" y="27" smooth="yes"/>
      <point x="97" y="-14" smooth="yes"/>
      <point x="166" y="-14" type="curve" smooth="yes"/>
      <point x="229" y="-14"/>
      <point x="301" y="22"/>
      <point x="342" y="102" type="curve" name="hr02"/>
      <point x="342" y="76" type="line" smooth="yes"/>
      <point x="342" y="39" smooth="yes"/>
      <point x="345" y="-14" smooth="yes"/>
      <point x="364" y="-14" type="curve" smooth="yes"/>
      <point x="383" y="-14" smooth="yes"/>
      <point x="422" y="-4" smooth="yes"/>
      <point x="422" y="14" type="curve" smooth="yes"/>
      <point x="422" y="32" smooth="yes"/>
      <point x="411" y="53" smooth="yes"/>
      <point x="411" y="98" type="curve" smooth="yes"/>
      <point x="411" y="197" smooth="yes"/>
      <point x="448" y="329" smooth="yes"/>
    </contour>
  </outline>
</glyph>
<glyph name="b" format="1">
  <advance width="550"/>
  <unicode hex="0062"/>
  <outline>
    <contour>
      <point x="146" y="50" type="curve" name="hr00"/>
      <point x="163" y="189" type="line" smooth="yes"/>
      <point x="177" y="302" smooth="yes"/>
      <point x="212" y="441" smooth="yes"/>
      <point x="328" y="441" type="curve" smooth="yes"/>
      <point x="392" y="441" smooth="yes"/>
      <point x="429" y="377" smooth="yes"/>
      <point x="429" y="301" type="curve" smooth="yes"/>
      <point x="429" y="188" smooth="yes"/>
      <point x="355" y="48" smooth="yes"/>
      <point x="188" y="48" type="curve" smooth="yes"/>
      <point x="182" y="48"/>
      <point x="153" y="49"/>
    </contour>
    <contour>
      <point x="69" y="29" type="line"/>
      <point x="69" y="-11" smooth="yes"/>
      <point x="143" y="-14" smooth="yes"/>
      <point x="168" y="-14" type="curve" smooth="yes"/>
      <point x="406" y="-14" smooth="yes"/>
      <point x="511" y="161" smooth="yes"/>
      <point x="511" y="309" type="curve" smooth="yes"/>
      <point x="511" y="416" smooth="yes"/>
      <point x="454" y="507" smooth="yes"/>
      <point x="352" y="507" type="curve" smooth="yes"/>
      <point x="280" y="507"/>
      <point x="236" y="480"/>
      <point x="191" y="424" type="curve"/>
      <point x="246" y="866" type="line"/>
      <point x="246" y="882" smooth="yes"/>
      <point x="230" y="887" smooth="yes"/>
      <point x="215" y="887" type="curve" smooth="yes"/>
      <point x="199" y="887" smooth="yes"/>
      <point x="174" y="886" smooth="yes"/>
      <point x="171" y="861" type="curve" smooth="yes"/>
    </contour>
  </outline>
</glyph>
<glyph name="c" format="1">
  <advance width="457"/>
  <unicode hex="0063"/>
  <outline>
    <contour>
      <point x="319" y="507" type="curve" smooth="yes"/>
      <point x="151" y="507" smooth="yes"/>
      <point x="53" y="358" smooth="yes"/>
      <point x="53" y="209" type="curve" smooth="yes"/>
      <point x="53" y="69" smooth="yes"/>
      <point x="126" y="-14" smooth="yes"/>
      <point x="266" y="-14" type="curve" smooth="yes"/>
      <point x="336" y="-14" smooth="yes"/>
      <point x="420" y="35" smooth="yes"/>
      <point x="420" y="56" type="curve" smooth="yes"/>
      <point x="420" y="74" smooth="yes"/>
      <point x="409" y="101" smooth="yes"/>
      <point x="394" y="101" type="curve" smooth="yes"/>
      <point x="388" y="101" smooth="yes"/>
      <point x="339" y="48" smooth="yes"/>
      <point x="270" y="48" type="curve" smooth="yes"/>
      <point x="181" y="48" smooth="yes"/>
      <point x="135" y="109" smooth="yes"/>
      <point x="135" y="207" type="curve" smooth="yes"/>
      <point x="135" y="319" smooth="yes"/>
      <point x="184" y="445" smooth="yes"/>
      <point x="317" y="445" type="curve" smooth="yes"/>
      <point x="382" y="445" smooth="yes"/>
      <point x="403" y="405" smooth="yes"/>
      <point x="415" y="405" type="curve" smooth="yes" name="hr01"/>
      <point x="434" y="405" smooth="yes"/>
      <point x="452" y="428" smooth="yes"/>
      <point x="452" y="447" type="curve" smooth="yes"/>
      <point x="452" y="468" smooth="yes"/>
      <point x="399" y="507" smooth="yes"/>
    </contour>
  </outline>
</glyph>
<glyph name="d" format="1">
  <advance width="530"/>
  <unicode hex="0064"/>
  <outline>
    <contour>
      <point x="450" y="207" type="curve" name="hr00"/>
      <point x="530" y="864" type="line"/>
      <point x="530" y="879" smooth="yes"/>
      <point x="519" y="887" smooth="yes"/>
      <point x="502" y="887" type="curve" smooth="yes"/>
      <point x="479" y="887"/>
      <point x="457" y="882"/>
      <point x="456" y="864" type="curve"/>
      <point x="411" y="507" type="line"/>
      <point x="121" y="507" smooth="yes"/>
      <point x="42" y="302" smooth="yes"/>
      <point x="42" y="167" type="curve" smooth="yes"/>
      <point x="42" y="41" smooth="yes"/>
      <point x="118" y="-14" smooth="yes"/>
      <point x="198" y="-14" type="curve" smooth="yes"/>
      <point x="269" y="-14"/>
      <point x="345" y="28"/>
      <point x="377" y="102" type="curve"/>
      <point x="381" y="76" smooth="yes"/>
      <point x="383" y="-14" smooth="yes"/>
      <point x="409" y="-14" type="curve" smooth="yes"/>
      <point x="427" y="-14" smooth="yes"/>
      <point x="464" y="-4" smooth="yes"/>
      <point x="464" y="14" type="curve" smooth="yes"/>
      <point x="464" y="35" smooth="yes"/>
      <point x="446" y="64" smooth="yes"/>
      <point x="446" y="129" type="curve" smooth="yes"/>
      <point x="446" y="150"/>
      <point x="447" y="175"/>
    </contour>
    <contour>
      <point x="404" y="442" type="curve"/>
      <point x="387" y="304" type="line" smooth="yes"/>
      <point x="373" y="190" smooth="yes"/>
      <point x="338" y="52" smooth="yes"/>
      <point x="222" y="52" type="curve" smooth="yes"/>
      <point x="154" y="52" smooth="yes"/>
      <point x="124" y="111" smooth="yes"/>
      <point x="124" y="176" type="curve" smooth="yes"/>
      <point x="124" y="321" smooth="yes"/>
      <point x="231" y="445" smooth="yes"/>
      <point x="380" y="445" type="curve" smooth="yes"/>
      <point x="383" y="445"/>
      <point x="399" y="444"/>
    </contour>
  </outline>
</glyph>
<glyph name="e" format="1">
  <advance width="461"/>
  <unicode hex="0065"/>
  <outline>
    <contour>
      <point x="138" y="265" type="curve" name="hr00"/>
      <point x="158" y="386" smooth="yes"/>
      <point x="260" y="447" smooth="yes"/>
      <point x="322" y="447" type="curve" smooth="yes"/>
      <point x="354" y="447" smooth="yes"/>
      <point x="378" y="430" smooth="yes"/>
      <point x="378" y="395" type="curve" smooth="yes"/>
      <point x="378" y="318"/>
      <point x="256" y="265"/>
    </contour>
    <contour>
      <point x="53" y="207" type="curve" smooth="yes"/>
      <point x="53" y="67" smooth="yes"/>
      <point x="126" y="-14" smooth="yes"/>
      <point x="266" y="-14" type="curve" smooth="yes"/>
      <point x="336" y="-14" smooth="yes"/>
      <point x="420" y="35" smooth="yes"/>
      <point x="420" y="56" type="curve" smooth="yes"/>
      <point x="420" y="74" smooth="yes"/>
      <point x="409" y="101" smooth="yes"/>
      <point x="393" y="101" type="curve" smooth="yes"/>
      <point x="388" y="101" smooth="yes"/>
      <point x="339" y="48" smooth="yes"/>
      <point x="270" y="48" type="curve" smooth="yes"/>
      <point x="180" y="48"/>
      <point x="134" y="108"/>
      <point x="134" y="206" type="curve"/>
      <point x="309" y="206" smooth="yes"/>
      <point x="451" y="286" smooth="yes"/>
      <point x="451" y="405" type="curve" smooth="yes"/>
      <point x="451" y="472" smooth="yes"/>
      <point x="396" y="507" smooth="yes"/>
      <point x="326" y="507" type="curve" smooth="yes"/>
      <point x="214" y="507" smooth="yes"/>
      <point x="54" y="413" smooth="yes"/>
    </contour>
  </outline>
</glyph>
<glyph name="f" format="1">
  <advance width="330"/>
  <unicode hex="0066"/>
  <outline>
    <contour>
      <point x="323" y="426" type="line" smooth="yes" name="hr00"/>
      <point x="339" y="426" smooth="yes"/>
      <point x="353" y="447" smooth="yes"/>
      <point x="353" y="463" type="curve" smooth="yes"/>
      <point x="353" y="482" smooth="yes"/>
      <point x="344" y="493" smooth="yes"/>
      <point x="330" y="493" type="curve" smooth="yes"/>
      <point x="232" y="493" type="line"/>
      <point x="245" y="600" type="line" smooth="yes"/>
      <point x="256" y="696" smooth="yes"/>
      <point x="269" y="813" smooth="yes"/>
      <point x="369" y="813" type="curve" smooth="yes"/>
      <point x="427" y="813" smooth="yes"/>
      <point x="453" y="794" smooth="yes"/>
      <point x="460" y="794" type="curve" smooth="yes"/>
      <point x="478" y="794" smooth="yes"/>
      <point x="495" y="829" smooth="yes"/>
      <point x="495" y="847" type="curve" smooth="yes"/>
      <point x="495" y="864" smooth="yes"/>
      <point x="428" y="882" smooth="yes"/>
      <point x="368" y="882" type="curve" smooth="yes"/>
      <point x="221" y="882" smooth="yes"/>
      <point x="188" y="745" smooth="yes"/>
      <point x="173" y="607" type="curve" smooth="yes"/>
      <point x="160" y="493" type="line"/>
      <point x="76" y="493" type="line" smooth="yes"/>
      <point x="61" y="493" smooth="yes"/>
      <point x="45" y="473" smooth="yes"/>
      <point x="45" y="456" type="curve" smooth="yes"/>
      <point x="45" y="442" smooth="yes"/>
      <point x="54" y="426" smooth="yes"/>
      <point x="72" y="426" type="curve" smooth="yes"/>
      <point x="152" y="426" type="line"/>
      <point x="115" y="104" type="line" smooth="yes"/>
      <point x="80" y="-202" smooth="yes"/>
      <point x="61" y="-276" smooth="yes"/>
      <point x="-37" y="-276" type="curve" smooth="yes"/>
      <point x="-110" y="-276" smooth="yes"/>
      <point x="-142" y="-234" smooth="yes"/>
      <point x="-148" y="-234" type="curve" smooth="yes"/>
      <point x="-166" y="-234" smooth="yes"/>
      <point x="-188" y="-265" smooth="yes"/>
      <point x="-188" y="-281" type="curve" smooth="yes"/>
      <point x="-188" y="-302" smooth="yes"/>
      <point x="-117" y="-344" smooth="yes"/>
      <point x="-37" y="-344" type="curve" smooth="yes"/>
      <point x="101" y="-344" smooth="yes"/>
      <point x="147" y="-228" smooth="yes"/>
      <point x="163" y="-91" type="curve" smooth="yes"/>
      <point x="223" y="426" type="line"/>
    </contour>
  </outline>
</glyph>
<glyph name="g" format="1">
  <advance width="524"/>
  <unicode hex="0067"/>
  <outline>
    <contour>
      <point x="404" y="442" type="curve" name="hr00"/>
      <point x="387" y="304" type="line"/>
      <point x="371" y="190" smooth="yes"/>
      <point x="338" y="52" smooth="yes"/>
      <point x="222" y="52" type="curve" smooth="yes"/>
      <point x="154" y="52" smooth="yes"/>
      <point x="124" y="111" smooth="yes"/>
      <point x="124" y="176" type="curve" smooth="yes"/>
      <point x="124" y="321" smooth="yes"/>
      <point x="231" y="445" smooth="yes"/>
      <point x="380" y="445" type="curve" smooth="yes"/>
      <point x="383" y="445"/>
      <point x="399" y="444"/>
    </contour>
    <contour>
      <point x="359" y="69" type="curve"/>
      <point x="336" y="-213" smooth="yes"/>
      <point x="300" y="-279" smooth="yes"/>
      <point x="178" y="-279" type="curve" smooth="yes"/>
      <point x="94" y="-279" smooth="yes"/>
      <point x="38" y="-227" smooth="yes"/>
      <point x="33" y="-227" type="curve" smooth="yes"/>
      <point x="14" y="-227" smooth="yes"/>
      <point x="3" y="-265" smooth="yes"/>
      <point x="3" y="-283" type="curve" smooth="yes"/>
      <point x="3" y="-302" smooth="yes"/>
      <point x="87" y="-343" smooth="yes"/>
      <point x="180" y="-343" type="curve" smooth="yes"/>
      <point x="342" y="-343" smooth="yes"/>
      <point x="392" y="-234" smooth="yes"/>
      <point x="411" y="-91" type="curve" smooth="yes"/>
      <point x="481" y="463" type="line"/>
      <point x="481" y="504" smooth="yes"/>
      <point x="432" y="507" smooth="yes"/>
      <point x="411" y="507" type="curve" smooth="yes"/>
      <point x="121" y="507" smooth="yes"/>
      <point x="42" y="302" smooth="yes"/>
      <point x="42" y="167" type="curve" smooth="yes"/>
      <point x="42" y="41" smooth="yes"/>
      <point x="118" y="-14" smooth="yes"/>
      <point x="198" y="-14" type="curve" smooth="yes"/>
      <point x="269" y="-14"/>
      <point x="314" y="8"/>
    </contour>
  </outline>
</glyph>
<glyph name="h" format="1">
  <advance width="569"/>
  <unicode hex="0068"/>
  <outline>
    <contour>
      <point x="166" y="195" type="line" smooth="yes" name="hr00"/>
      <point x="184" y="336" smooth="yes"/>
      <point x="243" y="441" smooth="yes"/>
      <point x="346" y="441" type="curve" smooth="yes"/>
      <point x="405" y="441" smooth="yes"/>
      <point x="436" y="417" smooth="yes"/>
      <point x="436" y="368" type="curve" smooth="yes"/>
      <point x="436" y="364" smooth="yes"/>
      <point x="434" y="358" smooth="yes"/>
      <point x="434" y="353" type="curve" smooth="yes"/>
      <point x="392" y="6" type="line"/>
      <point x="392" y="-10" smooth="yes"/>
      <point x="401" y="-14" smooth="yes"/>
      <point x="418" y="-14" type="curve" smooth="yes"/>
      <point x="441" y="-14" smooth="yes"/>
      <point x="464" y="-11" smooth="yes"/>
      <point x="467" y="11" type="curve" smooth="yes"/>
      <point x="511" y="350" smooth="yes"/>
      <point x="513" y="363" smooth="yes"/>
      <point x="513" y="374" type="curve" smooth="yes"/>
      <point x="513" y="455" smooth="yes"/>
      <point x="460" y="507" smooth="yes"/>
      <point x="356" y="507" type="curve" smooth="yes"/>
      <point x="287" y="507"/>
      <point x="234" y="473"/>
      <point x="194" y="416" type="curve"/>
      <point x="246" y="866" type="line"/>
      <point x="246" y="880" smooth="yes"/>
      <point x="232" y="887" smooth="yes"/>
      <point x="215" y="887" type="curve" smooth="yes"/>
      <point x="191" y="887" smooth="yes"/>
      <point x="174" y="883" smooth="yes"/>
      <point x="171" y="861" type="curve" smooth="yes"/>
      <point x="69" y="6" type="line"/>
      <point x="69" y="-10" smooth="yes"/>
      <point x="77" y="-14" smooth="yes"/>
      <point x="96" y="-14" type="curve" smooth="yes"/>
      <point x="118" y="-14" smooth="yes"/>
      <point x="140" y="-11" smooth="yes"/>
      <point x="143" y="11" type="curve" smooth="yes"/>
    </contour>
  </outline>
</glyph>
<glyph name="i" format="1">
  <advance width="244"/>
  <unicode hex="0069"/>
  <outline>
    <contour>
      <point x="201" y="487" type="line" name="hr00"/>
      <point x="201" y="501" smooth="yes"/>
      <point x="188" y="507" smooth="yes"/>
      <point x="170" y="507" type="curve" smooth="yes"/>
      <point x="147" y="507" smooth="yes"/>
      <point x="129" y="504" smooth="yes"/>
      <point x="126" y="482" type="curve" smooth="yes"/>
      <point x="69" y="6" type="line"/>
      <point x="69" y="-10" smooth="yes"/>
      <point x="77" y="-14" smooth="yes"/>
      <point x="96" y="-14" type="curve" smooth="yes"/>
      <point x="118" y="-14" smooth="yes"/>
      <point x="140" y="-11" smooth="yes"/>
      <point x="143" y="11" type="curve" smooth="yes"/>
    </contour>
    <contour>
      <point x="241" y="692" type="curve" smooth="yes"/>
      <point x="241" y="713" smooth="yes"/>
      <point x="231" y="729" smooth="yes"/>
      <point x="196" y="729" type="curve" smooth="yes"/>
      <point x="150" y="729" smooth="yes"/>
      <point x="139" y="699" smooth="yes"/>
      <point x="139" y="668" type="curve" smooth="yes"/>
      <point x="139" y="647" smooth="yes"/>
      <point x="149" y="630" smooth="yes"/>
      <point x="184" y="630" type="curve" smooth="yes"/>
      <point x="230" y="630" smooth="yes"/>
      <point x="241" y="661" smooth="yes"/>
    </contour>
  </outline>
</glyph>
<glyph name="j" format="1">
  <advance width="242"/>
  <unicode hex="006A"/>
  <outline>
    <contour>
      <point x="-71" y="-343" type="curve" smooth="yes" name="hr00"/>
      <point x="77" y="-343" smooth="yes"/>
      <point x="112" y="-227" smooth="yes"/>
      <point x="128" y="-91" type="curve" smooth="yes"/>
      <point x="196" y="487" type="line"/>
      <point x="196" y="503" smooth="yes"/>
      <point x="188" y="507" smooth="yes"/>
      <point x="170" y="507" type="curve" smooth="yes"/>
      <point x="147" y="507" smooth="yes"/>
      <point x="125" y="504" smooth="yes"/>
      <point x="122" y="482" type="curve" smooth="yes"/>
      <point x="80" y="105" type="line" smooth="yes"/>
      <point x="46" y="-202" smooth="yes"/>
      <point x="35" y="-276" smooth="yes"/>
      <point x="-71" y="-276" type="curve" smooth="yes"/>
      <point x="-145" y="-276" smooth="yes"/>
      <point x="-177" y="-234" smooth="yes"/>
      <point x="-183" y="-234" type="curve" smooth="yes"/>
      <point x="-201" y="-234" smooth="yes"/>
      <point x="-224" y="-263" smooth="yes"/>
      <point x="-224" y="-281" type="curve" smooth="yes"/>
      <point x="-224" y="-302" smooth="yes"/>
      <point x="-151" y="-343" smooth="yes"/>
    </contour>
    <contour>
      <point x="241" y="692" type="curve" smooth="yes"/>
      <point x="241" y="713" smooth="yes"/>
      <point x="231" y="729" smooth="yes"/>
      <point x="196" y="729" type="curve" smooth="yes"/>
      <point x="150" y="729" smooth="yes"/>
      <point x="139" y="699" smooth="yes"/>
      <point x="139" y="668" type="curve" smooth="yes"/>
      <point x="139" y="647" smooth="yes"/>
      <point x="149" y="630" smooth="yes"/>
      <point x="184" y="630" type="curve" smooth="yes"/>
      <point x="230" y="630" smooth="yes"/>
      <point x="241" y="661" smooth="yes"/>
    </contour>
  </outline>
</glyph>
<glyph name="k" format="1">
  <advance width="471"/>
  <unicode hex="006B"/>
  <outline>
    <contour>
      <point x="244" y="866" type="line"/>
      <point x="244" y="880" smooth="yes"/>
      <point x="230" y="887" smooth="yes"/>
      <point x="213" y="887" type="curve" smooth="yes"/>
      <point x="190" y="887" smooth="yes"/>
      <point x="173" y="883" smooth="yes"/>
      <point x="170" y="861" type="curve" smooth="yes"/>
      <point x="68" y="6" type="line"/>
      <point x="68" y="-10" smooth="yes"/>
      <point x="76" y="-14" smooth="yes"/>
      <point x="94" y="-14" type="curve" smooth="yes"/>
      <point x="117" y="-14" smooth="yes"/>
      <point x="139" y="-11" smooth="yes"/>
      <point x="142" y="11" type="curve" smooth="yes"/>
      <point x="166" y="210" type="line"/>
      <point x="201" y="239" type="line"/>
      <point x="311" y="77" type="line" smooth="yes"/>
      <point x="352" y="17" smooth="yes"/>
      <point x="387" y="-22" smooth="yes"/>
      <point x="413" y="-22" type="curve" smooth="yes" name="hr01"/>
      <point x="426" y="-22" smooth="yes"/>
      <point x="451" y="4" smooth="yes"/>
      <point x="451" y="25" type="curve" smooth="yes"/>
      <point x="451" y="45" smooth="yes"/>
      <point x="426" y="45" smooth="yes"/>
      <point x="360" y="137" type="curve" smooth="yes"/>
      <point x="255" y="286" type="line"/>
      <point x="418" y="424"/>
      <point x="447" y="455"/>
      <point x="447" y="475" type="curve"/>
      <point x="446" y="489"/>
      <point x="429" y="507"/>
      <point x="409" y="507" type="curve"/>
      <point x="392" y="505"/>
      <point x="381" y="480"/>
      <point x="177" y="300" type="curve"/>
    </contour>
  </outline>
</glyph>
<glyph name="l" format="1">
  <advance width="244"/>
  <unicode hex="006C"/>
  <outline>
    <contour>
      <point x="246" y="866" type="line" name="hr00"/>
      <point x="246" y="880" smooth="yes"/>
      <point x="232" y="887" smooth="yes"/>
      <point x="215" y="887" type="curve" smooth="yes"/>
      <point x="191" y="887" smooth="yes"/>
      <point x="174" y="883" smooth="yes"/>
      <point x="171" y="861" type="curve" smooth="yes"/>
      <point x="69" y="6" type="line"/>
      <point x="69" y="-10" smooth="yes"/>
      <point x="77" y="-14" smooth="yes"/>
      <point x="96" y="-14" type="curve" smooth="yes"/>
      <point x="118" y="-14" smooth="yes"/>
      <point x="140" y="-11" smooth="yes"/>
      <point x="143" y="11" type="curve" smooth="yes"/>
    </contour>
  </outline>
</glyph>
<glyph name="m" format="1">
  <advance width="838"/>
  <unicode hex="006D"/>
  <outline>
    <contour>
      <point x="481" y="416" type="line" name="hr00"/>
      <point x="468" y="472" smooth="yes"/>
      <point x="416" y="507" smooth="yes"/>
      <point x="348" y="507" type="curve" smooth="yes"/>
      <point x="289" y="507"/>
      <point x="236" y="468"/>
      <point x="198" y="417" type="curve"/>
      <point x="192" y="417" type="line"/>
      <point x="201" y="487" type="line"/>
      <point x="201" y="501" smooth="yes"/>
      <point x="188" y="507" smooth="yes"/>
      <point x="170" y="507" type="curve" smooth="yes"/>
      <point x="147" y="507" smooth="yes"/>
      <point x="129" y="504" smooth="yes"/>
      <point x="126" y="482" type="curve" smooth="yes"/>
      <point x="69" y="6" type="line"/>
      <point x="69" y="-10" smooth="yes"/>
      <point x="77" y="-14" smooth="yes"/>
      <point x="96" y="-14" type="curve" smooth="yes"/>
      <point x="118" y="-14" smooth="yes"/>
      <point x="140" y="-11" smooth="yes"/>
      <point x="143" y="11" type="curve" smooth="yes"/>
      <point x="166" y="195" type="line" smooth="yes"/>
      <point x="182" y="329" smooth="yes"/>
      <point x="230" y="441" smooth="yes"/>
      <point x="327" y="441" type="curve" smooth="yes"/>
      <point x="390" y="441"/>
      <point x="409" y="403"/>
      <point x="409" y="371" type="curve"/>
      <point x="364" y="6" type="line"/>
      <point x="364" y="-10" smooth="yes"/>
      <point x="373" y="-14" smooth="yes"/>
      <point x="391" y="-14" type="curve" smooth="yes"/>
      <point x="413" y="-14" smooth="yes"/>
      <point x="436" y="-11" smooth="yes"/>
      <point x="439" y="11" type="curve" smooth="yes"/>
      <point x="462" y="195" type="line" smooth="yes"/>
      <point x="479" y="329" smooth="yes"/>
      <point x="525" y="441" smooth="yes"/>
      <point x="622" y="441" type="curve" smooth="yes"/>
      <point x="685" y="441"/>
      <point x="705" y="403"/>
      <point x="705" y="371" type="curve"/>
      <point x="663" y="6" type="line"/>
      <point x="663" y="-10" smooth="yes"/>
      <point x="672" y="-14" smooth="yes"/>
      <point x="689" y="-14" type="curve" smooth="yes"/>
      <point x="712" y="-14" smooth="yes"/>
      <point x="731" y="-11" smooth="yes"/>
      <point x="734" y="11" type="curve" smooth="yes"/>
      <point x="779" y="350" smooth="yes"/>
      <point x="780" y="363" smooth="yes"/>
      <point x="780" y="374" type="curve" smooth="yes"/>
      <point x="780" y="455" smooth="yes"/>
      <point x="728" y="507" smooth="yes"/>
      <point x="643" y="507" type="curve" smooth="yes"/>
      <point x="579" y="507"/>
      <point x="525" y="473"/>
      <point x="486" y="416" type="curve"/>
    </contour>
  </outline>
</glyph>
<glyph name="n" format="1">
  <advance width="569"/>
  <unicode hex="006E"/>
  <outline>
    <contour>
      <point x="192" y="417" type="line" name="hr00"/>
      <point x="201" y="487" type="line"/>
      <point x="201" y="501" smooth="yes"/>
      <point x="188" y="507" smooth="yes"/>
      <point x="170" y="507" type="curve" smooth="yes"/>
      <point x="147" y="507" smooth="yes"/>
      <point x="129" y="504" smooth="yes"/>
      <point x="126" y="482" type="curve" smooth="yes"/>
      <point x="69" y="6" type="line"/>
      <point x="69" y="-10" smooth="yes"/>
      <point x="77" y="-14" smooth="yes"/>
      <point x="96" y="-14" type="curve" smooth="yes"/>
      <point x="118" y="-14" smooth="yes"/>
      <point x="140" y="-11" smooth="yes"/>
      <point x="143" y="11" type="curve" smooth="yes"/>
      <point x="166" y="195" type="line" smooth="yes"/>
      <point x="184" y="336" smooth="yes"/>
      <point x="243" y="441" smooth="yes"/>
      <point x="346" y="441" type="curve" smooth="yes"/>
      <point x="405" y="441" smooth="yes"/>
      <point x="436" y="417" smooth="yes"/>
      <point x="436" y="368" type="curve" smooth="yes"/>
      <point x="436" y="364" smooth="yes"/>
      <point x="434" y="358" smooth="yes"/>
      <point x="434" y="353" type="curve" smooth="yes"/>
      <point x="392" y="6" type="line"/>
      <point x="392" y="-10" smooth="yes"/>
      <point x="401" y="-14" smooth="yes"/>
      <point x="418" y="-14" type="curve" smooth="yes"/>
      <point x="441" y="-14" smooth="yes"/>
      <point x="464" y="-11" smooth="yes"/>
      <point x="467" y="11" type="curve" smooth="yes"/>
      <point x="511" y="350" smooth="yes"/>
      <point x="513" y="363" smooth="yes"/>
      <point x="513" y="374" type="curve" smooth="yes"/>
      <point x="513" y="455" smooth="yes"/>
      <point x="460" y="507" smooth="yes"/>
      <point x="356" y="507" type="curve" smooth="yes"/>
      <point x="287" y="507"/>
      <point x="238" y="475"/>
      <point x="198" y="417" type="curve"/>
    </contour>
  </outline>
</glyph>
<glyph name="o" format="1">
  <advance width="545"/>
  <unicode hex="006F"/>
  <outline>
    <contour>
      <point x="53" y="207" type="curve" name="hr00"/>
      <point x="55" y="91" smooth="yes"/>
      <point x="118" y="-14" smooth="yes"/>
      <point x="249" y="-14" type="curve" smooth="yes"/>
      <point x="409" y="-14" smooth="yes"/>
      <point x="513" y="123" smooth="yes"/>
      <point x="513" y="283" type="curve" smooth="yes"/>
      <point x="513" y="400" smooth="yes"/>
      <point x="448" y="507" smooth="yes"/>
      <point x="317" y="507" type="curve" smooth="yes"/>
      <point x="130" y="507"/>
      <point x="53" y="342"/>
    </contour>
    <contour>
      <point x="133" y="217" type="curve" smooth="yes"/>
      <point x="133" y="319" smooth="yes"/>
      <point x="189" y="445" smooth="yes"/>
      <point x="310" y="445" type="curve" smooth="yes"/>
      <point x="396" y="445" smooth="yes"/>
      <point x="436" y="371" smooth="yes"/>
      <point x="436" y="274" type="curve" smooth="yes"/>
      <point x="436" y="154" smooth="yes"/>
      <point x="361" y="48" smooth="yes"/>
      <point x="258" y="48" type="curve" smooth="yes"/>
      <point x="171" y="48" smooth="yes"/>
      <point x="133" y="120" smooth="yes"/>
    </contour>
  </outline>
</glyph>
<glyph name="p" format="1">
  <advance width="555"/>
  <unicode hex="0070"/>
  <outline>
    <contour>
      <point x="145" y="-14" type="line" name="hr00"/>
      <point x="434" y="-14" smooth="yes"/>
      <point x="513" y="190" smooth="yes"/>
      <point x="513" y="326" type="curve" smooth="yes"/>
      <point x="513" y="452" smooth="yes"/>
      <point x="437" y="507" smooth="yes"/>
      <point x="357" y="507" type="curve" smooth="yes"/>
      <point x="289" y="507"/>
      <point x="236" y="473"/>
      <point x="195" y="416" type="curve"/>
      <point x="202" y="487" type="line"/>
      <point x="202" y="501" smooth="yes"/>
      <point x="189" y="507" smooth="yes"/>
      <point x="173" y="507" type="curve" smooth="yes"/>
      <point x="149" y="507"/>
      <point x="132" y="504"/>
      <point x="128" y="482" type="curve"/>
      <point x="28" y="-330" type="line"/>
      <point x="28" y="-346" smooth="yes"/>
      <point x="37" y="-350" smooth="yes"/>
      <point x="55" y="-350" type="curve" smooth="yes"/>
      <point x="77" y="-350" smooth="yes"/>
      <point x="100" y="-347" smooth="yes"/>
      <point x="103" y="-325" type="curve" smooth="yes"/>
    </contour>
    <contour>
      <point x="152" y="50" type="curve"/>
      <point x="168" y="189" type="line" smooth="yes"/>
      <point x="181" y="302" smooth="yes"/>
      <point x="219" y="441" smooth="yes"/>
      <point x="334" y="441" type="curve" smooth="yes"/>
      <point x="401" y="441" smooth="yes"/>
      <point x="432" y="382" smooth="yes"/>
      <point x="432" y="316" type="curve" smooth="yes"/>
      <point x="432" y="172" smooth="yes"/>
      <point x="324" y="48" smooth="yes"/>
      <point x="177" y="48" type="curve" smooth="yes"/>
      <point x="174" y="48"/>
      <point x="156" y="49"/>
    </contour>
  </outline>
</glyph>
<glyph name="q" format="1">
  <advance width="526"/>
  <unicode hex="0071"/>
  <outline>
    <contour>
      <point x="492" y="-139" type="line" name="hr00"/>
      <point x="507" y="-139" smooth="yes"/>
      <point x="518" y="-120" smooth="yes"/>
      <point x="518" y="-106" type="curve" smooth="yes"/>
      <point x="518" y="-92"/>
      <point x="511" y="-81"/>
      <point x="497" y="-81" type="curve"/>
      <point x="413" y="-99" type="line"/>
      <point x="481" y="463" type="line" smooth="yes"/>
      <point x="485" y="504" smooth="yes"/>
      <point x="447" y="507" smooth="yes"/>
      <point x="388" y="507" type="curve" smooth="yes"/>
      <point x="294" y="507" smooth="yes"/>
      <point x="215" y="483" smooth="yes"/>
      <point x="149" y="417" type="curve" smooth="yes"/>
      <point x="80" y="349" smooth="yes"/>
      <point x="42" y="263" smooth="yes"/>
      <point x="42" y="167" type="curve" smooth="yes"/>
      <point x="42" y="60" smooth="yes"/>
      <point x="94" y="-14" smooth="yes"/>
      <point x="199" y="-14" type="curve" smooth="yes"/>
      <point x="269" y="-14"/>
      <point x="322" y="14"/>
      <point x="359" y="69" type="curve"/>
      <point x="336" y="-115" type="line"/>
      <point x="259" y="-132" type="line"/>
      <point x="244" y="-132" smooth="yes"/>
      <point x="233" y="-147" smooth="yes"/>
      <point x="233" y="-162" type="curve" smooth="yes"/>
      <point x="233" y="-175"/>
      <point x="240" y="-188"/>
      <point x="255" y="-188" type="curve"/>
      <point x="329" y="-172" type="line"/>
      <point x="311" y="-330" type="line" smooth="yes"/>
      <point x="310" y="-346" smooth="yes"/>
      <point x="325" y="-350" smooth="yes"/>
      <point x="341" y="-350" type="curve" smooth="yes"/>
      <point x="366" y="-350"/>
      <point x="383" y="-347"/>
      <point x="387" y="-325" type="curve"/>
      <point x="406" y="-155" type="line"/>
    </contour>
    <contour>
      <point x="404" y="442" type="curve"/>
      <point x="387" y="304" type="line"/>
      <point x="371" y="190" smooth="yes"/>
      <point x="338" y="52" smooth="yes"/>
      <point x="222" y="52" type="curve" smooth="yes"/>
      <point x="154" y="52" smooth="yes"/>
      <point x="124" y="111" smooth="yes"/>
      <point x="124" y="176" type="curve" smooth="yes"/>
      <point x="124" y="321" smooth="yes"/>
      <point x="231" y="445" smooth="yes"/>
      <point x="380" y="445" type="curve" smooth="yes"/>
      <point x="383" y="445"/>
      <point x="399" y="444"/>
    </contour>
  </outline>
</glyph>
<glyph name="r" format="1">
  <advance width="377"/>
  <unicode hex="0072"/>
  <outline>
    <contour>
      <point x="346" y="441" type="curve" smooth="yes"/>
      <point x="360" y="441" smooth="yes"/>
      <point x="392" y="447" smooth="yes"/>
      <point x="392" y="493" type="curve" smooth="yes"/>
      <point x="392" y="505" smooth="yes"/>
      <point x="388" y="514" smooth="yes"/>
      <point x="363" y="514" type="curve" smooth="yes"/>
      <point x="297" y="514"/>
      <point x="233" y="473"/>
      <point x="196" y="412" type="curve"/>
      <point x="191" y="412" type="line"/>
      <point x="201" y="487" type="line" name="hr01"/>
      <point x="201" y="501" smooth="yes"/>
      <point x="188" y="507" smooth="yes"/>
      <point x="170" y="507" type="curve" smooth="yes"/>
      <point x="147" y="507" smooth="yes"/>
      <point x="129" y="504" smooth="yes"/>
      <point x="126" y="482" type="curve" smooth="yes"/>
      <point x="69" y="6" type="line"/>
      <point x="69" y="-10" smooth="yes"/>
      <point x="77" y="-14" smooth="yes"/>
      <point x="96" y="-14" type="curve" smooth="yes"/>
      <point x="118" y="-14" smooth="yes"/>
      <point x="140" y="-11" smooth="yes"/>
      <point x="143" y="11" type="curve" smooth="yes"/>
      <point x="166" y="195" type="line" smooth="yes"/>
      <point x="181" y="318" smooth="yes"/>
      <point x="243" y="441" smooth="yes"/>
    </contour>
  </outline>
</glyph>
<glyph name="s" format="1">
  <advance width="372"/>
  <unicode hex="0073"/>
  <outline>
    <contour>
      <point x="180" y="-14" type="curve" smooth="yes"/>
      <point x="286" y="-14" smooth="yes"/>
      <point x="338" y="57" smooth="yes"/>
      <point x="338" y="122" type="curve" smooth="yes"/>
      <point x="338" y="248" smooth="yes"/>
      <point x="152" y="288" smooth="yes"/>
      <point x="152" y="379" type="curve" smooth="yes"/>
      <point x="152" y="420" smooth="yes"/>
      <point x="180" y="445" smooth="yes"/>
      <point x="224" y="445" type="curve" smooth="yes"/>
      <point x="282" y="445" smooth="yes"/>
      <point x="308" y="416" smooth="yes"/>
      <point x="314" y="416" type="curve" smooth="yes"/>
      <point x="332" y="416" smooth="yes"/>
      <point x="341" y="444" smooth="yes"/>
      <point x="341" y="461" type="curve" smooth="yes"/>
      <point x="341" y="483" smooth="yes"/>
      <point x="293" y="507" smooth="yes"/>
      <point x="223" y="507" type="curve" smooth="yes"/>
      <point x="138" y="507" smooth="yes"/>
      <point x="80" y="442" smooth="yes"/>
      <point x="80" y="372" type="curve" smooth="yes"/>
      <point x="80" y="244" smooth="yes"/>
      <point x="262" y="216" smooth="yes"/>
      <point x="262" y="113" type="curve" smooth="yes"/>
      <point x="262" y="64" smooth="yes"/>
      <point x="212" y="48" smooth="yes"/>
      <point x="177" y="48" type="curve" smooth="yes"/>
      <point x="104" y="48" smooth="yes"/>
      <point x="61" y="95" smooth="yes"/>
      <point x="55" y="95" type="curve" smooth="yes" name="hr01"/>
      <point x="35" y="95" smooth="yes"/>
      <point x="26" y="66" smooth="yes"/>
      <point x="26" y="48" type="curve" smooth="yes" name="hr02"/>
      <point x="26" y="27" smooth="yes"/>
      <point x="100" y="-14" smooth="yes"/>
    </contour>
  </outline>
</glyph>
<glyph name="t" format="1">
  <advance width="318"/>
  <unicode hex="0074"/>
  <outline>
    <contour>
      <point x="98" y="493" type="line" smooth="yes"/>
      <point x="81" y="493" smooth="yes"/>
      <point x="69" y="472" smooth="yes"/>
      <point x="69" y="455" type="curve" smooth="yes"/>
      <point x="69" y="437" smooth="yes"/>
      <point x="77" y="426" smooth="yes"/>
      <point x="91" y="426" type="curve" smooth="yes"/>
      <point x="148" y="426" type="line"/>
      <point x="122" y="207" type="line" smooth="yes"/>
      <point x="119" y="188" smooth="yes"/>
      <point x="116" y="148" smooth="yes"/>
      <point x="116" y="120" type="curve" smooth="yes"/>
      <point x="116" y="50" smooth="yes"/>
      <point x="130" y="-14" smooth="yes"/>
      <point x="154" y="-14" type="curve" smooth="yes"/>
      <point x="172" y="-14" smooth="yes"/>
      <point x="207" y="-4" smooth="yes"/>
      <point x="207" y="14" type="curve" smooth="yes"/>
      <point x="207" y="35" smooth="yes"/>
      <point x="190" y="64" smooth="yes"/>
      <point x="190" y="129" type="curve" smooth="yes" name="hr01"/>
      <point x="190" y="150" smooth="yes"/>
      <point x="190" y="175" smooth="yes"/>
      <point x="195" y="207" type="curve" smooth="yes"/>
      <point x="221" y="426" type="line"/>
      <point x="316" y="426" type="line" smooth="yes"/>
      <point x="333" y="426" smooth="yes"/>
      <point x="346" y="447" smooth="yes"/>
      <point x="346" y="463" type="curve" smooth="yes"/>
      <point x="346" y="482" smooth="yes"/>
      <point x="337" y="493" smooth="yes"/>
      <point x="323" y="493" type="curve" smooth="yes"/>
      <point x="230" y="493" type="line"/>
      <point x="251" y="668" type="line"/>
      <point x="251" y="678" smooth="yes"/>
      <point x="248" y="680" smooth="yes"/>
      <point x="230" y="680" type="curve" smooth="yes"/>
      <point x="207" y="680" smooth="yes"/>
      <point x="178" y="669" smooth="yes"/>
      <point x="175" y="647" type="curve" smooth="yes"/>
      <point x="157" y="493" type="line"/>
    </contour>
  </outline>
</glyph>
<glyph name="u" format="1">
  <advance width="524"/>
  <unicode hex="0075"/>
  <outline>
    <contour>
      <point x="482" y="487" type="line" name="hr00"/>
      <point x="482" y="503" smooth="yes"/>
      <point x="471" y="507" smooth="yes"/>
      <point x="453" y="507" type="curve" smooth="yes"/>
      <point x="430" y="507" smooth="yes"/>
      <point x="409" y="504" smooth="yes"/>
      <point x="406" y="482" type="curve" smooth="yes"/>
      <point x="384" y="304" type="line" smooth="yes"/>
      <point x="370" y="192" smooth="yes"/>
      <point x="329" y="52" smooth="yes"/>
      <point x="217" y="52" type="curve" smooth="yes"/>
      <point x="152" y="52" smooth="yes"/>
      <point x="139" y="97" smooth="yes"/>
      <point x="139" y="143" type="curve" smooth="yes"/>
      <point x="139" y="217"/>
      <point x="157" y="335"/>
      <point x="177" y="487" type="curve"/>
      <point x="177" y="504" smooth="yes"/>
      <point x="157" y="507" smooth="yes"/>
      <point x="146" y="507" type="curve" smooth="yes"/>
      <point x="122" y="507" smooth="yes"/>
      <point x="104" y="504" smooth="yes"/>
      <point x="101" y="482" type="curve" smooth="yes"/>
      <point x="73" y="258" smooth="yes"/>
      <point x="63" y="165" smooth="yes"/>
      <point x="63" y="141" type="curve" smooth="yes"/>
      <point x="63" y="55" smooth="yes"/>
      <point x="104" y="-14" smooth="yes"/>
      <point x="196" y="-14" type="curve" smooth="yes"/>
      <point x="280" y="-14"/>
      <point x="338" y="28"/>
      <point x="374" y="102" type="curve"/>
      <point x="377" y="76" smooth="yes"/>
      <point x="380" y="-14" smooth="yes"/>
      <point x="406" y="-14" type="curve" smooth="yes"/>
      <point x="425" y="-14" smooth="yes"/>
      <point x="460" y="-4" smooth="yes"/>
      <point x="460" y="14" type="curve" smooth="yes"/>
      <point x="460" y="35" smooth="yes"/>
      <point x="443" y="64" smooth="yes"/>
      <point x="443" y="129" type="curve" smooth="yes"/>
      <point x="443" y="150" smooth="yes"/>
      <point x="443" y="175" smooth="yes"/>
      <point x="447" y="207" type="curve" smooth="yes"/>
    </contour>
  </outline>
</glyph>
<glyph name="v" format="1">
  <advance width="469"/>
  <unicode hex="0076"/>
  <outline>
    <contour>
      <point x="381" y="462" type="curve" name="hr00"/>
      <point x="350" y="179"/>
      <point x="242" y="94"/>
      <point x="187" y="60" type="curve"/>
      <point x="131" y="469" type="line" smooth="yes"/>
      <point x="127" y="498" smooth="yes"/>
      <point x="122" y="507" smooth="yes"/>
      <point x="91" y="507" type="curve" smooth="yes"/>
      <point x="73" y="507"/>
      <point x="56" y="504"/>
      <point x="56" y="484" type="curve"/>
      <point x="119" y="24" type="line"/>
      <point x="120" y="1" smooth="yes"/>
      <point x="130" y="-14" smooth="yes"/>
      <point x="155" y="-14" type="curve" smooth="yes"/>
      <point x="284" y="-14" smooth="yes"/>
      <point x="449" y="251" smooth="yes"/>
      <point x="449" y="462" type="curve" smooth="yes"/>
      <point x="449" y="501" smooth="yes"/>
      <point x="445" y="507" smooth="yes"/>
      <point x="417" y="507" type="curve" smooth="yes"/>
      <point x="395" y="507"/>
      <point x="381" y="505"/>
    </contour>
  </outline>
</glyph>
<glyph name="w" format="1">
  <advance width="759"/>
  <unicode hex="0077"/>
  <outline>
    <contour>
      <point x="670" y="462" type="curve" name="hr00"/>
      <point x="640" y="179"/>
      <point x="532" y="94"/>
      <point x="477" y="60" type="curve"/>
      <point x="421" y="469" type="line"/>
      <point x="416" y="498" smooth="yes"/>
      <point x="411" y="507" smooth="yes"/>
      <point x="381" y="507" type="curve" smooth="yes"/>
      <point x="362" y="507"/>
      <point x="346" y="504"/>
      <point x="346" y="484" type="curve"/>
      <point x="368" y="319" type="line"/>
      <point x="311" y="151"/>
      <point x="232" y="87"/>
      <point x="187" y="60" type="curve"/>
      <point x="131" y="469" type="line"/>
      <point x="126" y="498" smooth="yes"/>
      <point x="122" y="507" smooth="yes"/>
      <point x="91" y="507" type="curve" smooth="yes"/>
      <point x="73" y="507"/>
      <point x="56" y="504"/>
      <point x="56" y="484" type="curve"/>
      <point x="119" y="24" type="line"/>
      <point x="120" y="1" smooth="yes"/>
      <point x="130" y="-14" smooth="yes"/>
      <point x="155" y="-14" type="curve" smooth="yes"/>
      <point x="234" y="-14"/>
      <point x="323" y="83"/>
      <point x="383" y="206" type="curve"/>
      <point x="409" y="24" type="line"/>
      <point x="410" y="1" smooth="yes"/>
      <point x="420" y="-14" smooth="yes"/>
      <point x="445" y="-14" type="curve" smooth="yes"/>
      <point x="574" y="-14" smooth="yes"/>
      <point x="739" y="251" smooth="yes"/>
      <point x="739" y="462" type="curve" smooth="yes"/>
      <point x="739" y="501" smooth="yes"/>
      <point x="735" y="507" smooth="yes"/>
      <point x="707" y="507" type="curve" smooth="yes"/>
      <point x="684" y="507"/>
      <point x="670" y="505"/>
    </contour>
  </outline>
</glyph>
<glyph name="x" format="1">
  <advance width="535"/>
  <unicode hex="0078"/>
  <outline>
    <contour>
      <point x="237" y="409" type="line" smooth="yes"/>
      <point x="208" y="474" smooth="yes"/>
      <point x="164" y="507" smooth="yes"/>
      <point x="136" y="507" type="curve" smooth="yes"/>
      <point x="123" y="507" smooth="yes"/>
      <point x="95" y="479" smooth="yes"/>
      <point x="95" y="458" type="curve" smooth="yes"/>
      <point x="95" y="438" smooth="yes"/>
      <point x="134" y="451" smooth="yes"/>
      <point x="182" y="347" type="curve" smooth="yes"/>
      <point x="228" y="248" type="line"/>
      <point x="76" y="63" smooth="yes"/>
      <point x="20" y="50" smooth="yes"/>
      <point x="20" y="22" type="curve" smooth="yes"/>
      <point x="20" y="10" smooth="yes"/>
      <point x="36" y="-14" smooth="yes"/>
      <point x="60" y="-14" type="curve" smooth="yes"/>
      <point x="78" y="-14"/>
      <point x="162" y="64"/>
      <point x="256" y="186" type="curve"/>
      <point x="308" y="77" type="line" smooth="yes"/>
      <point x="339" y="11" smooth="yes"/>
      <point x="382" y="-22" smooth="yes"/>
      <point x="410" y="-22" type="curve" smooth="yes" name="hr01"/>
      <point x="423" y="-22" smooth="yes"/>
      <point x="451" y="7" smooth="yes"/>
      <point x="451" y="28" type="curve" smooth="yes"/>
      <point x="451" y="48" smooth="yes"/>
      <point x="412" y="36" smooth="yes"/>
      <point x="363" y="137" type="curve" smooth="yes"/>
      <point x="309" y="249" type="line"/>
      <point x="459" y="428" smooth="yes"/>
      <point x="515" y="442" smooth="yes"/>
      <point x="515" y="470" type="curve" smooth="yes"/>
      <point x="515" y="483" smooth="yes"/>
      <point x="498" y="507" smooth="yes"/>
      <point x="475" y="507" type="curve" smooth="yes"/>
      <point x="455" y="507"/>
      <point x="374" y="430"/>
      <point x="281" y="311" type="curve"/>
    </contour>
  </outline>
</glyph>
<glyph name="y" format="1">
  <advance width="498"/>
  <unicode hex="0079"/>
  <outline>
    <contour>
      <point x="352" y="267" type="line" smooth="yes" name="hr00"/>
      <point x="323" y="157"/>
      <point x="240" y="70"/>
      <point x="197" y="56" type="curve"/>
      <point x="141" y="469" type="line" smooth="yes"/>
      <point x="137" y="498" smooth="yes"/>
      <point x="132" y="507" smooth="yes"/>
      <point x="101" y="507" type="curve" smooth="yes"/>
      <point x="83" y="507"/>
      <point x="66" y="504"/>
      <point x="66" y="484" type="curve"/>
      <point x="129" y="24" type="line" smooth="yes"/>
      <point x="132" y="1" smooth="yes"/>
      <point x="140" y="-14" smooth="yes"/>
      <point x="165" y="-14" type="curve" smooth="yes"/>
      <point x="209" y="-14"/>
      <point x="259" y="29"/>
      <point x="301" y="78" type="curve"/>
      <point x="231" y="-230" smooth="yes"/>
      <point x="183" y="-276" smooth="yes"/>
      <point x="87" y="-276" type="curve" smooth="yes"/>
      <point x="13" y="-276" smooth="yes"/>
      <point x="-20" y="-234" smooth="yes"/>
      <point x="-25" y="-234" type="curve" smooth="yes"/>
      <point x="-42" y="-234" smooth="yes"/>
      <point x="-66" y="-263" smooth="yes"/>
      <point x="-66" y="-281" type="curve" smooth="yes"/>
      <point x="-66" y="-302" smooth="yes"/>
      <point x="7" y="-343" smooth="yes"/>
      <point x="85" y="-343" type="curve" smooth="yes"/>
      <point x="223" y="-343" smooth="yes"/>
      <point x="289" y="-227" smooth="yes"/>
      <point x="326" y="-91" type="curve" smooth="yes"/>
      <point x="484" y="487" type="line"/>
      <point x="484" y="503" smooth="yes"/>
      <point x="479" y="507" smooth="yes"/>
      <point x="461" y="507" type="curve" smooth="yes"/>
      <point x="438" y="507" smooth="yes"/>
      <point x="415" y="504" smooth="yes"/>
      <point x="409" y="482" type="curve" smooth="yes"/>
    </contour>
  </outline>
</glyph>
<glyph name="z" format="1">
  <advance width="461"/>
  <unicode hex="007A"/>
  <outline>
    <contour>
      <point x="384" y="-7" type="line" smooth="yes" name="hr00"/>
      <point x="401" y="-7" smooth="yes"/>
      <point x="413" y="13" smooth="yes"/>
      <point x="413" y="31" type="curve" smooth="yes"/>
      <point x="413" y="48" smooth="yes"/>
      <point x="405" y="59" smooth="yes"/>
      <point x="391" y="59" type="curve" smooth="yes"/>
      <point x="119" y="59" type="line"/>
      <point x="443" y="434" type="line"/>
      <point x="443" y="435"/>
      <point x="444" y="435"/>
      <point x="444" y="437" type="curve"/>
      <point x="447" y="440" type="line" smooth="yes"/>
      <point x="451" y="447" smooth="yes"/>
      <point x="454" y="455" smooth="yes"/>
      <point x="454" y="463" type="curve" smooth="yes"/>
      <point x="454" y="482" smooth="yes"/>
      <point x="446" y="493" smooth="yes"/>
      <point x="432" y="493" type="curve" smooth="yes"/>
      <point x="117" y="493" type="line" smooth="yes"/>
      <point x="101" y="493" smooth="yes"/>
      <point x="86" y="473" smooth="yes"/>
      <point x="86" y="456" type="curve" smooth="yes"/>
      <point x="86" y="442" smooth="yes"/>
      <point x="96" y="426" smooth="yes"/>
      <point x="112" y="426" type="curve" smooth="yes"/>
      <point x="345" y="426" type="line"/>
      <point x="24" y="52" type="line" smooth="yes"/>
      <point x="17" y="45" smooth="yes"/>
      <point x="12" y="34" smooth="yes"/>
      <point x="12" y="24" type="curve" smooth="yes"/>
      <point x="12" y="8" smooth="yes"/>
      <point x="20" y="-7" smooth="yes"/>
      <point x="37" y="-7" type="curve" smooth="yes"/>
    </contour>
  </outline>
</glyph>
<glyph name="braceleft" format="1">
  <advance width="434"/>
  <unicode hex="007B"/>
  <outline>
    <contour>
      <point x="87" y="171" type="line" smooth="yes"/>
      <point x="82" y="131" smooth="yes"/>
      <point x="78" y="91" smooth="yes"/>
      <point x="78" y="55" type="curve" smooth="yes"/>
      <point x="78" y="-35" smooth="yes"/>
      <point x="104" y="-104" smooth="yes"/>
      <point x="219" y="-104" type="curve" smooth="yes"/>
      <point x="288" y="-104" smooth="yes"/>
      <point x="344" y="-84" smooth="yes"/>
      <point x="344" y="-43" type="curve" smooth="yes"/>
      <point x="344" y="-28" smooth="yes"/>
      <point x="334" y="-17" smooth="yes"/>
      <point x="316" y="-17" type="curve" smooth="yes"/>
      <point x="295" y="-17" smooth="yes"/>
      <point x="278" y="-35" smooth="yes"/>
      <point x="231" y="-35" type="curve" smooth="yes" name="hr01"/>
      <point x="170" y="-35" smooth="yes"/>
      <point x="155" y="9" smooth="yes"/>
      <point x="155" y="65" type="curve" smooth="yes"/>
      <point x="155" y="134" smooth="yes"/>
      <point x="184" y="317" smooth="yes"/>
      <point x="184" y="352" type="curve" smooth="yes"/>
      <point x="184" y="392"/>
      <point x="167" y="414"/>
      <point x="139" y="420" type="curve"/>
      <point x="140" y="424" type="line"/>
      <point x="178" y="431" smooth="yes"/>
      <point x="197" y="456" smooth="yes"/>
      <point x="201" y="493" type="curve" smooth="yes"/>
      <point x="223" y="688" type="line" smooth="yes"/>
      <point x="233" y="779" smooth="yes"/>
      <point x="244" y="878" smooth="yes"/>
      <point x="335" y="878" type="curve" smooth="yes"/>
      <point x="382" y="878" smooth="yes"/>
      <point x="396" y="860" smooth="yes"/>
      <point x="417" y="860" type="curve" smooth="yes" name="hr02"/>
      <point x="439" y="860" smooth="yes"/>
      <point x="452" y="876" smooth="yes"/>
      <point x="452" y="898" type="curve" smooth="yes"/>
      <point x="452" y="931" smooth="yes"/>
      <point x="400" y="947" smooth="yes"/>
      <point x="340" y="947" type="curve" smooth="yes"/>
      <point x="179" y="947" smooth="yes"/>
      <point x="160" y="810" smooth="yes"/>
      <point x="144" y="672" type="curve" smooth="yes"/>
      <point x="119" y="456" type="line"/>
      <point x="33" y="456" type="line" smooth="yes"/>
      <point x="18" y="456" smooth="yes"/>
      <point x="5" y="443" smooth="yes"/>
      <point x="5" y="422" type="curve" smooth="yes"/>
      <point x="5" y="401" smooth="yes"/>
      <point x="15" y="391" smooth="yes"/>
      <point x="32" y="391" type="curve" smooth="yes"/>
      <point x="112" y="391" type="line"/>
    </contour>
  </outline>
</glyph>
<glyph name="bar" format="1">
  <advance width="482"/>
  <unicode hex="007C"/>
  <outline>
    <contour>
      <point x="332" y="875" type="line" name="hr00"/>
      <point x="332" y="889" smooth="yes"/>
      <point x="318" y="896" smooth="yes"/>
      <point x="301" y="896" type="curve" smooth="yes"/>
      <point x="277" y="896" smooth="yes"/>
      <point x="260" y="892" smooth="yes"/>
      <point x="257" y="870" type="curve" smooth="yes"/>
      <point x="150" y="-18" type="line"/>
      <point x="150" y="-34" smooth="yes"/>
      <point x="158" y="-38" smooth="yes"/>
      <point x="177" y="-38" type="curve" smooth="yes"/>
      <point x="199" y="-38" smooth="yes"/>
      <point x="221" y="-35" smooth="yes"/>
      <point x="224" y="-13" type="curve" smooth="yes"/>
    </contour>
  </outline>
</glyph>
<glyph name="asciitilde" format="1">
  <advance width="672"/>
  <unicode hex="007E"/>
  <outline>
    <contour>
      <point x="221" y="474" type="curve" smooth="yes"/>
      <point x="174" y="474" smooth="yes"/>
      <point x="88" y="451" smooth="yes"/>
      <point x="88" y="413" type="curve" smooth="yes"/>
      <point x="88" y="385" smooth="yes"/>
      <point x="101" y="377" smooth="yes"/>
      <point x="111" y="377" type="curve" smooth="yes"/>
      <point x="127" y="377" smooth="yes"/>
      <point x="153" y="410" smooth="yes"/>
      <point x="218" y="410" type="curve" smooth="yes"/>
      <point x="293" y="410" smooth="yes"/>
      <point x="368" y="350" smooth="yes"/>
      <point x="451" y="350" type="curve" smooth="yes" name="hr01"/>
      <point x="498" y="350" smooth="yes"/>
      <point x="583" y="373" smooth="yes"/>
      <point x="583" y="411" type="curve" smooth="yes"/>
      <point x="583" y="439" smooth="yes"/>
      <point x="571" y="447" smooth="yes"/>
      <point x="561" y="447" type="curve" smooth="yes"/>
      <point x="545" y="447" smooth="yes"/>
      <point x="519" y="414" smooth="yes"/>
      <point x="454" y="414" type="curve" smooth="yes" name="hr02"/>
      <point x="379" y="414" smooth="yes"/>
      <point x="304" y="474" smooth="yes"/>
    </contour>
  </outline>
</glyph>
<glyph name="exclamdown" format="1">
  <advance width="290"/>
  <unicode hex="00A1"/>
  <outline>
    <contour>
      <point x="161" y="291" type="curve" smooth="yes" name="hr00"/>
      <point x="150" y="291" smooth="yes"/>
      <point x="133" y="288" smooth="yes"/>
      <point x="130" y="267" type="curve" smooth="yes"/>
      <point x="47" y="-312" type="line" smooth="yes"/>
      <point x="43" y="-343" smooth="yes"/>
      <point x="70" y="-351" smooth="yes"/>
      <point x="89" y="-351" type="curve" smooth="yes"/>
      <point x="109" y="-351" smooth="yes"/>
      <point x="134" y="-347" smooth="yes"/>
      <point x="137" y="-312" type="curve" smooth="yes"/>
      <point x="192" y="267" type="line" smooth="yes"/>
      <point x="193" y="288" smooth="yes"/>
      <point x="172" y="291" smooth="yes"/>
    </contour>
    <contour>
      <point x="231" y="437" type="curve" smooth="yes"/>
      <point x="231" y="466" smooth="yes"/>
      <point x="207" y="490" smooth="yes"/>
      <point x="178" y="490" type="curve" smooth="yes"/>
      <point x="148" y="490" smooth="yes"/>
      <point x="123" y="466" smooth="yes"/>
      <point x="123" y="437" type="curve" smooth="yes"/>
      <point x="123" y="407" smooth="yes"/>
      <point x="148" y="382" smooth="yes"/>
      <point x="178" y="382" type="curve" smooth="yes"/>
      <point x="207" y="382" smooth="yes"/>
      <point x="231" y="407" smooth="yes"/>
    </contour>
  </outline>
</glyph>
<glyph name="cent" format="1">
  <advance width="672"/>
  <unicode hex="00A2"/>
  <outline>
    <contour>
      <point x="461" y="811" type="line" smooth="yes" name="hr00"/>
      <point x="462" y="816" smooth="yes"/>
      <point x="464" y="834" smooth="yes"/>
      <point x="464" y="838" type="curve" smooth="yes"/>
      <point x="464" y="855" smooth="yes"/>
      <point x="455" y="857" smooth="yes"/>
      <point x="436" y="857" type="curve" smooth="yes"/>
      <point x="415" y="857" smooth="yes"/>
      <point x="407" y="844" smooth="yes"/>
      <point x="404" y="824" type="curve" smooth="yes"/>
      <point x="382" y="678" type="line"/>
      <point x="252" y="656" smooth="yes"/>
      <point x="153" y="519" smooth="yes"/>
      <point x="153" y="383" type="curve" smooth="yes"/>
      <point x="153" y="264"/>
      <point x="205" y="186"/>
      <point x="306" y="165" type="curve"/>
      <point x="287" y="33" type="line" smooth="yes"/>
      <point x="284" y="14" smooth="yes"/>
      <point x="284" y="10" smooth="yes"/>
      <point x="284" y="6" type="curve" smooth="yes"/>
      <point x="284" y="-9" smooth="yes"/>
      <point x="291" y="-14" smooth="yes"/>
      <point x="309" y="-14" type="curve" smooth="yes"/>
      <point x="330" y="-14" smooth="yes"/>
      <point x="341" y="-4" smooth="yes"/>
      <point x="344" y="19" type="curve" smooth="yes"/>
      <point x="365" y="160" type="line"/>
      <point x="366" y="160" type="line"/>
      <point x="436" y="160" smooth="yes"/>
      <point x="520" y="209" smooth="yes"/>
      <point x="520" y="230" type="curve" smooth="yes"/>
      <point x="520" y="248" smooth="yes"/>
      <point x="509" y="275" smooth="yes"/>
      <point x="494" y="275" type="curve" smooth="yes"/>
      <point x="488" y="275"/>
      <point x="441" y="224"/>
      <point x="374" y="222" type="curve"/>
      <point x="432" y="618" type="line"/>
      <point x="485" y="613" smooth="yes"/>
      <point x="504" y="579" smooth="yes"/>
      <point x="515" y="579" type="curve" smooth="yes"/>
      <point x="534" y="579" smooth="yes"/>
      <point x="552" y="602" smooth="yes"/>
      <point x="552" y="621" type="curve" smooth="yes"/>
      <point x="552" y="640"/>
      <point x="508" y="673"/>
      <point x="441" y="680" type="curve"/>
    </contour>
    <contour>
      <point x="235" y="381" type="curve" smooth="yes"/>
      <point x="235" y="478"/>
      <point x="283" y="585"/>
      <point x="373" y="612" type="curve"/>
      <point x="316" y="231" type="line"/>
      <point x="262" y="251" smooth="yes"/>
      <point x="235" y="305" smooth="yes"/>
    </contour>
  </outline>
</glyph>
<glyph name="currency" format="1">
  <advance width="672"/>
  <unicode hex="00A4"/>
  <outline>
    <contour>
      <point x="109" y="388" type="curve" smooth="yes" name="hr00"/>
      <point x="109" y="347"/>
      <point x="118" y="308"/>
      <point x="137" y="276" type="curve"/>
      <point x="30" y="169" type="line" smooth="yes"/>
      <point x="26" y="164" smooth="yes"/>
      <point x="23" y="159" smooth="yes"/>
      <point x="23" y="152" type="curve" smooth="yes"/>
      <point x="23" y="134" smooth="yes"/>
      <point x="42" y="113" smooth="yes"/>
      <point x="63" y="113" type="curve" smooth="yes"/>
      <point x="68" y="113" smooth="yes"/>
      <point x="74" y="114" smooth="yes"/>
      <point x="78" y="118" type="curve" smooth="yes"/>
      <point x="183" y="225" type="line"/>
      <point x="213" y="204" smooth="yes"/>
      <point x="251" y="191" smooth="yes"/>
      <point x="298" y="191" type="curve" smooth="yes"/>
      <point x="359" y="191"/>
      <point x="412" y="210"/>
      <point x="453" y="242" type="curve"/>
      <point x="555" y="118" type="line" smooth="yes"/>
      <point x="559" y="114" smooth="yes"/>
      <point x="565" y="113" smooth="yes"/>
      <point x="572" y="113" type="curve" smooth="yes"/>
      <point x="593" y="113" smooth="yes"/>
      <point x="610" y="131" smooth="yes"/>
      <point x="610" y="152" type="curve" smooth="yes"/>
      <point x="610" y="157" smooth="yes"/>
      <point x="607" y="164" smooth="yes"/>
      <point x="603" y="169" type="curve" smooth="yes"/>
      <point x="501" y="292" type="line"/>
      <point x="534" y="337" smooth="yes"/>
      <point x="552" y="394" smooth="yes"/>
      <point x="552" y="454" type="curve" smooth="yes"/>
      <point x="552" y="495"/>
      <point x="542" y="534"/>
      <point x="523" y="567" type="curve"/>
      <point x="629" y="674" type="line"/>
      <point x="634" y="677" smooth="yes"/>
      <point x="638" y="685" smooth="yes"/>
      <point x="638" y="691" type="curve" smooth="yes"/>
      <point x="638" y="712" smooth="yes"/>
      <point x="621" y="730" smooth="yes"/>
      <point x="601" y="730" type="curve" smooth="yes"/>
      <point x="596" y="730" smooth="yes"/>
      <point x="586" y="728" smooth="yes"/>
      <point x="582" y="724" type="curve" smooth="yes"/>
      <point x="476" y="619" type="line"/>
      <point x="446" y="640" smooth="yes"/>
      <point x="408" y="653" smooth="yes"/>
      <point x="362" y="653" type="curve" smooth="yes"/>
      <point x="295" y="653"/>
      <point x="243" y="633"/>
      <point x="204" y="602" type="curve"/>
      <point x="106" y="723" type="line" smooth="yes"/>
      <point x="102" y="727" smooth="yes"/>
      <point x="96" y="728" smooth="yes"/>
      <point x="89" y="728" type="curve" smooth="yes"/>
      <point x="68" y="728" smooth="yes"/>
      <point x="51" y="712" smooth="yes"/>
      <point x="51" y="689" type="curve" smooth="yes"/>
      <point x="51" y="684" smooth="yes"/>
      <point x="54" y="677" smooth="yes"/>
      <point x="58" y="672" type="curve" smooth="yes"/>
      <point x="157" y="551" type="line"/>
      <point x="124" y="502" smooth="yes"/>
      <point x="109" y="442" smooth="yes"/>
    </contour>
    <contour>
      <point x="188" y="397" type="curve" smooth="yes"/>
      <point x="188" y="483" smooth="yes"/>
      <point x="243" y="589" smooth="yes"/>
      <point x="355" y="589" type="curve" smooth="yes"/>
      <point x="437" y="589" smooth="yes"/>
      <point x="475" y="527" smooth="yes"/>
      <point x="475" y="446" type="curve" smooth="yes"/>
      <point x="475" y="346" smooth="yes"/>
      <point x="404" y="256" smooth="yes"/>
      <point x="304" y="256" type="curve" smooth="yes"/>
      <point x="224" y="256" smooth="yes"/>
      <point x="188" y="317" smooth="yes"/>
    </contour>
  </outline>
</glyph>
<glyph name="yen" format="1">
  <advance width="672"/>
  <unicode hex="00A5"/>
  <outline>
    <contour>
      <point x="100" y="346" type="line" smooth="yes" name="hr00"/>
      <point x="82" y="346" smooth="yes"/>
      <point x="71" y="326" smooth="yes"/>
      <point x="71" y="308" type="curve" smooth="yes"/>
      <point x="71" y="294" smooth="yes"/>
      <point x="78" y="280" smooth="yes"/>
      <point x="92" y="280" type="curve" smooth="yes"/>
      <point x="268" y="280" type="line"/>
      <point x="237" y="24" type="line" smooth="yes"/>
      <point x="236" y="16" smooth="yes"/>
      <point x="236" y="10" smooth="yes"/>
      <point x="236" y="9" type="curve" smooth="yes"/>
      <point x="236" y="-12" smooth="yes"/>
      <point x="255" y="-14" smooth="yes"/>
      <point x="276" y="-14" type="curve" smooth="yes"/>
      <point x="294" y="-14" smooth="yes"/>
      <point x="310" y="-7" smooth="yes"/>
      <point x="313" y="18" type="curve" smooth="yes"/>
      <point x="346" y="280" type="line"/>
      <point x="535" y="280" type="line" smooth="yes"/>
      <point x="557" y="280" smooth="yes"/>
      <point x="566" y="301" smooth="yes"/>
      <point x="566" y="317" type="curve" smooth="yes"/>
      <point x="566" y="332" smooth="yes"/>
      <point x="557" y="346" smooth="yes"/>
      <point x="544" y="346" type="curve" smooth="yes"/>
      <point x="354" y="346" type="line"/>
      <point x="360" y="393" type="line"/>
      <point x="415" y="473" type="line"/>
      <point x="561" y="473" type="line" smooth="yes"/>
      <point x="577" y="473" smooth="yes"/>
      <point x="590" y="492" smooth="yes"/>
      <point x="590" y="508" type="curve" smooth="yes"/>
      <point x="590" y="524" smooth="yes"/>
      <point x="582" y="539" smooth="yes"/>
      <point x="563" y="539" type="curve" smooth="yes"/>
      <point x="461" y="539" type="line"/>
      <point x="642" y="800" type="line" smooth="yes"/>
      <point x="649" y="809" smooth="yes"/>
      <point x="653" y="822" smooth="yes"/>
      <point x="653" y="832" type="curve" smooth="yes"/>
      <point x="653" y="850" smooth="yes"/>
      <point x="639" y="860" smooth="yes"/>
      <point x="614" y="860" type="curve" smooth="yes"/>
      <point x="594" y="860" smooth="yes"/>
      <point x="583" y="853" smooth="yes"/>
      <point x="575" y="842" type="curve" smooth="yes"/>
      <point x="332" y="473" type="line"/>
      <point x="196" y="831" type="line" smooth="yes"/>
      <point x="187" y="853" smooth="yes"/>
      <point x="178" y="860" smooth="yes"/>
      <point x="152" y="860" type="curve" smooth="yes"/>
      <point x="130" y="860" smooth="yes"/>
      <point x="112" y="852" smooth="yes"/>
      <point x="112" y="835" type="curve" smooth="yes"/>
      <point x="112" y="832"/>
      <point x="113" y="829"/>
      <point x="113" y="827" type="curve"/>
      <point x="226" y="539" type="line"/>
      <point x="124" y="539" type="line" smooth="yes"/>
      <point x="107" y="539" smooth="yes"/>
      <point x="94" y="522" smooth="yes"/>
      <point x="94" y="504" type="curve" smooth="yes"/>
      <point x="94" y="489" smooth="yes"/>
      <point x="101" y="473" smooth="yes"/>
      <point x="115" y="473" type="curve" smooth="yes"/>
      <point x="252" y="473" type="line"/>
      <point x="282" y="396" type="line"/>
      <point x="276" y="346" type="line"/>
    </contour>
  </outline>
</glyph>
<glyph name="brokenbar" format="1">
  <advance width="482"/>
  <unicode hex="00A6"/>
  <outline>
    <contour>
      <point x="332" y="875" type="line" name="hr00"/>
      <point x="332" y="889" smooth="yes"/>
      <point x="318" y="896" smooth="yes"/>
      <point x="301" y="896" type="curve" smooth="yes"/>
      <point x="277" y="896" smooth="yes"/>
      <point x="260" y="892" smooth="yes"/>
      <point x="257" y="870" type="curve" smooth="yes"/>
      <point x="216" y="528" type="line"/>
      <point x="216" y="512" smooth="yes"/>
      <point x="224" y="508" smooth="yes"/>
      <point x="243" y="508" type="curve" smooth="yes"/>
      <point x="265" y="508" smooth="yes"/>
      <point x="287" y="511" smooth="yes"/>
      <point x="290" y="533" type="curve" smooth="yes"/>
    </contour>
    <contour>
      <point x="266" y="329" type="line"/>
      <point x="266" y="343" smooth="yes"/>
      <point x="252" y="350" smooth="yes"/>
      <point x="235" y="350" type="curve" smooth="yes"/>
      <point x="211" y="350" smooth="yes"/>
      <point x="194" y="346" smooth="yes"/>
      <point x="191" y="324" type="curve" smooth="yes"/>
      <point x="150" y="-18" type="line"/>
      <point x="150" y="-34" smooth="yes"/>
      <point x="158" y="-38" smooth="yes"/>
      <point x="177" y="-38" type="curve" smooth="yes"/>
      <point x="199" y="-38" smooth="yes"/>
      <point x="221" y="-35" smooth="yes"/>
      <point x="224" y="-13" type="curve" smooth="yes"/>
    </contour>
  </outline>
</glyph>
<glyph name="section" format="1">
  <advance width="507"/>
  <unicode hex="00A7"/>
  <outline>
    <contour>
      <point x="407" y="429" type="curve" smooth="yes" name="hr00"/>
      <point x="407" y="589" smooth="yes"/>
      <point x="190" y="604" smooth="yes"/>
      <point x="190" y="719" type="curve" smooth="yes"/>
      <point x="190" y="793" smooth="yes"/>
      <point x="239" y="827" smooth="yes"/>
      <point x="312" y="827" type="curve" smooth="yes"/>
      <point x="401" y="827" smooth="yes"/>
      <point x="421" y="765" smooth="yes"/>
      <point x="452" y="765" type="curve" smooth="yes"/>
      <point x="469" y="765" smooth="yes"/>
      <point x="481" y="777" smooth="yes"/>
      <point x="481" y="798" type="curve" smooth="yes"/>
      <point x="481" y="837" smooth="yes"/>
      <point x="403" y="887" smooth="yes"/>
      <point x="324" y="887" type="curve" smooth="yes"/>
      <point x="189" y="887" smooth="yes"/>
      <point x="116" y="822" smooth="yes"/>
      <point x="116" y="712" type="curve" smooth="yes"/>
      <point x="116" y="659"/>
      <point x="142" y="623"/>
      <point x="176" y="593" type="curve"/>
      <point x="136" y="560" smooth="yes"/>
      <point x="109" y="509" smooth="yes"/>
      <point x="109" y="444" type="curve" smooth="yes"/>
      <point x="109" y="284" smooth="yes"/>
      <point x="327" y="269" smooth="yes"/>
      <point x="327" y="153" type="curve" smooth="yes"/>
      <point x="327" y="80" smooth="yes"/>
      <point x="278" y="46" smooth="yes"/>
      <point x="205" y="46" type="curve" smooth="yes"/>
      <point x="116" y="46" smooth="yes"/>
      <point x="96" y="108" smooth="yes"/>
      <point x="65" y="108" type="curve" smooth="yes"/>
      <point x="48" y="108" smooth="yes"/>
      <point x="36" y="96" smooth="yes"/>
      <point x="36" y="75" type="curve" smooth="yes"/>
      <point x="36" y="35" smooth="yes"/>
      <point x="114" y="-14" smooth="yes"/>
      <point x="193" y="-14" type="curve" smooth="yes"/>
      <point x="328" y="-14" smooth="yes"/>
      <point x="401" y="50" smooth="yes"/>
      <point x="401" y="160" type="curve" smooth="yes"/>
      <point x="401" y="213"/>
      <point x="375" y="249"/>
      <point x="341" y="280" type="curve"/>
      <point x="381" y="312" smooth="yes"/>
      <point x="407" y="363" smooth="yes"/>
    </contour>
    <contour>
      <point x="334" y="421" type="curve" smooth="yes"/>
      <point x="334" y="377"/>
      <point x="315" y="343"/>
      <point x="286" y="322" type="curve"/>
      <point x="233" y="359" smooth="yes"/>
      <point x="183" y="393" smooth="yes"/>
      <point x="183" y="452" type="curve" smooth="yes"/>
      <point x="183" y="495"/>
      <point x="202" y="529"/>
      <point x="231" y="550" type="curve"/>
      <point x="283" y="514" smooth="yes"/>
      <point x="334" y="479" smooth="yes"/>
    </contour>
  </outline>
</glyph>
<glyph name="copyright" format="1">
  <advance width="800"/>
  <unicode hex="00A9"/>
  <outline>
    <contour>
      <point x="444" y="945" type="curve" smooth="yes"/>
      <point x="155" y="945" smooth="yes"/>
      <point x="60" y="707" smooth="yes"/>
      <point x="60" y="522" type="curve" smooth="yes"/>
      <point x="60" y="354" smooth="yes"/>
      <point x="141" y="208" smooth="yes"/>
      <point x="386" y="208" type="curve" smooth="yes"/>
      <point x="675" y="208" smooth="yes"/>
      <point x="770" y="447" smooth="yes"/>
      <point x="770" y="632" type="curve" smooth="yes"/>
      <point x="770" y="844" smooth="yes"/>
      <point x="635" y="945" smooth="yes"/>
    </contour>
    <contour>
      <point x="456" y="825" type="curve" smooth="yes"/>
      <point x="282" y="825" smooth="yes"/>
      <point x="223" y="655" smooth="yes"/>
      <point x="223" y="522" type="curve" smooth="yes"/>
      <point x="223" y="412" smooth="yes"/>
      <point x="271" y="327" smooth="yes"/>
      <point x="403" y="327" type="curve" smooth="yes"/>
      <point x="501" y="327" smooth="yes"/>
      <point x="578" y="398" smooth="yes"/>
      <point x="578" y="433" type="curve" smooth="yes"/>
      <point x="578" y="448" smooth="yes"/>
      <point x="563" y="459" smooth="yes"/>
      <point x="550" y="459" type="curve" smooth="yes"/>
      <point x="525" y="459" smooth="yes"/>
      <point x="507" y="384" smooth="yes"/>
      <point x="407" y="384" type="curve" smooth="yes"/>
      <point x="321" y="384" smooth="yes"/>
      <point x="287" y="450" smooth="yes"/>
      <point x="287" y="521" type="curve" smooth="yes"/>
      <point x="287" y="612" smooth="yes"/>
      <point x="330" y="772" smooth="yes"/>
      <point x="455" y="772" type="curve" smooth="yes"/>
      <point x="539" y="772" smooth="yes"/>
      <point x="549" y="711" smooth="yes"/>
      <point x="570" y="711" type="curve" smooth="yes" name="hr01"/>
      <point x="582" y="711" smooth="yes"/>
      <point x="605" y="728" smooth="yes"/>
      <point x="605" y="740" type="curve" smooth="yes"/>
      <point x="605" y="753" smooth="yes"/>
      <point x="561" y="825" smooth="yes"/>
    </contour>
    <contour>
      <point x="444" y="900" type="curve" smooth="yes"/>
      <point x="600" y="900" smooth="yes"/>
      <point x="710" y="814" smooth="yes"/>
      <point x="710" y="632" type="curve" smooth="yes"/>
      <point x="710" y="467" smooth="yes"/>
      <point x="630" y="253" smooth="yes"/>
      <point x="386" y="253" type="curve" smooth="yes"/>
      <point x="186" y="253" smooth="yes"/>
      <point x="120" y="378" smooth="yes"/>
      <point x="120" y="522" type="curve" smooth="yes"/>
      <point x="120" y="687" smooth="yes"/>
      <point x="200" y="900" smooth="yes"/>
    </contour>
  </outline>
</glyph>
<glyph name="ordfeminine" format="1">
  <advance width="470"/>
  <unicode hex="00AA"/>
  <outline>
    <contour>
      <point x="207" y="534" type="curve" smooth="yes"/>
      <point x="175" y="534" smooth="yes"/>
      <point x="155" y="557" smooth="yes"/>
      <point x="155" y="584" type="curve" smooth="yes"/>
      <point x="155" y="632"/>
      <point x="195" y="668"/>
      <point x="323" y="679" type="curve"/>
      <point x="310" y="613" smooth="yes"/>
      <point x="271" y="534" smooth="yes"/>
    </contour>
    <contour>
      <point x="400" y="783" type="curve" smooth="yes"/>
      <point x="400" y="850" smooth="yes"/>
      <point x="338" y="871" smooth="yes"/>
      <point x="274" y="871" type="curve" smooth="yes"/>
      <point x="224" y="871" smooth="yes"/>
      <point x="141" y="845" smooth="yes"/>
      <point x="141" y="826" type="curve" smooth="yes"/>
      <point x="141" y="811" smooth="yes"/>
      <point x="150" y="787" smooth="yes"/>
      <point x="166" y="787" type="curve" smooth="yes"/>
      <point x="188" y="787" smooth="yes"/>
      <point x="210" y="816" smooth="yes"/>
      <point x="272" y="816" type="curve" smooth="yes" name="hr01"/>
      <point x="307" y="816" smooth="yes"/>
      <point x="337" y="806" smooth="yes"/>
      <point x="337" y="773" type="curve" smooth="yes"/>
      <point x="337" y="763"/>
      <point x="337" y="746"/>
      <point x="334" y="730" type="curve"/>
      <point x="147" y="717" smooth="yes"/>
      <point x="90" y="647" smooth="yes"/>
      <point x="90" y="573" type="curve" smooth="yes"/>
      <point x="90" y="511" smooth="yes"/>
      <point x="135" y="479" smooth="yes"/>
      <point x="188" y="479" type="curve" smooth="yes"/>
      <point x="233" y="479"/>
      <point x="283" y="503"/>
      <point x="315" y="556" type="curve"/>
      <point x="315" y="521" smooth="yes"/>
      <point x="319" y="479" smooth="yes"/>
      <point x="335" y="479" type="curve" smooth="yes"/>
      <point x="350" y="479" smooth="yes"/>
      <point x="380" y="488" smooth="yes"/>
      <point x="380" y="503" type="curve" smooth="yes"/>
      <point x="380" y="513" smooth="yes"/>
      <point x="372" y="527" smooth="yes"/>
      <point x="372" y="565" type="curve" smooth="yes"/>
      <point x="372" y="606" smooth="yes"/>
      <point x="380" y="654" smooth="yes"/>
      <point x="388" y="697" type="curve" smooth="yes"/>
      <point x="394" y="732" smooth="yes"/>
      <point x="400" y="762" smooth="yes"/>
    </contour>
    <component  base="hyphen" xOffset="4" yOffset="123"/>
  </outline>
</glyph>
<glyph name="guillemotleft" format="1">
  <advance width="554"/>
  <unicode hex="00AB"/>
  <outline>
    <contour>
      <point x="156" y="284" type="line" name="hr00"/>
      <point x="314" y="446" type="line" smooth="yes"/>
      <point x="316" y="448" smooth="yes"/>
      <point x="319" y="454" smooth="yes"/>
      <point x="319" y="459" type="curve" smooth="yes"/>
      <point x="319" y="475" smooth="yes"/>
      <point x="307" y="496" smooth="yes"/>
      <point x="285" y="496" type="curve" smooth="yes"/>
      <point x="284" y="496" smooth="yes"/>
      <point x="276" y="496" smooth="yes"/>
      <point x="267" y="487" type="curve" smooth="yes"/>
      <point x="81" y="318" type="line" smooth="yes"/>
      <point x="70" y="308" smooth="yes"/>
      <point x="65" y="294" smooth="yes"/>
      <point x="65" y="277" type="curve" smooth="yes"/>
      <point x="65" y="266" smooth="yes"/>
      <point x="67" y="252" smooth="yes"/>
      <point x="86" y="230" type="curve" smooth="yes"/>
      <point x="221" y="75" type="line" smooth="yes"/>
      <point x="224" y="71" smooth="yes"/>
      <point x="229" y="69" smooth="yes"/>
      <point x="235" y="69" type="curve" smooth="yes"/>
      <point x="253" y="69" smooth="yes"/>
      <point x="270" y="91" smooth="yes"/>
      <point x="270" y="109" type="curve" smooth="yes"/>
      <point x="270" y="117" smooth="yes"/>
      <point x="267" y="123" smooth="yes"/>
      <point x="262" y="130" type="curve" smooth="yes"/>
      <point x="156" y="277" type="line"/>
    </contour>
    <contour>
      <point x="356" y="284" type="line"/>
      <point x="514" y="446" type="line" smooth="yes"/>
      <point x="516" y="448" smooth="yes"/>
      <point x="519" y="454" smooth="yes"/>
      <point x="519" y="459" type="curve" smooth="yes"/>
      <point x="519" y="475" smooth="yes"/>
      <point x="507" y="496" smooth="yes"/>
      <point x="485" y="496" type="curve" smooth="yes"/>
      <point x="484" y="496" smooth="yes"/>
      <point x="476" y="496" smooth="yes"/>
      <point x="467" y="487" type="curve" smooth="yes"/>
      <point x="281" y="318" type="line" smooth="yes"/>
      <point x="270" y="308" smooth="yes"/>
      <point x="265" y="294" smooth="yes"/>
      <point x="265" y="277" type="curve" smooth="yes"/>
      <point x="265" y="266" smooth="yes"/>
      <point x="267" y="252" smooth="yes"/>
      <point x="286" y="230" type="curve" smooth="yes"/>
      <point x="421" y="75" type="line" smooth="yes"/>
      <point x="424" y="71" smooth="yes"/>
      <point x="429" y="69" smooth="yes"/>
      <point x="435" y="69" type="curve" smooth="yes"/>
      <point x="453" y="69" smooth="yes"/>
      <point x="470" y="91" smooth="yes"/>
      <point x="470" y="109" type="curve" smooth="yes"/>
      <point x="470" y="117" smooth="yes"/>
      <point x="467" y="123" smooth="yes"/>
      <point x="462" y="130" type="curve" smooth="yes"/>
      <point x="356" y="277" type="line"/>
    </contour>
  </outline>
</glyph>
<glyph name="logicalnot" format="1">
  <advance width="672"/>
  <unicode hex="00AC"/>
  <outline>
    <contour>
      <point x="111" y="444" type="line" smooth="yes" name="hr00"/>
      <point x="93" y="444" smooth="yes"/>
      <point x="84" y="425" smooth="yes"/>
      <point x="84" y="407" type="curve" smooth="yes"/>
      <point x="84" y="393" smooth="yes"/>
      <point x="88" y="378" smooth="yes"/>
      <point x="102" y="378" type="curve" smooth="yes"/>
      <point x="517" y="378" type="line"/>
      <point x="494" y="191" smooth="yes"/>
      <point x="493" y="175" smooth="yes"/>
      <point x="493" y="174" type="curve" smooth="yes"/>
      <point x="493" y="162" smooth="yes"/>
      <point x="507" y="159" smooth="yes"/>
      <point x="520" y="159" type="curve" smooth="yes"/>
      <point x="538" y="159" smooth="yes"/>
      <point x="558" y="168" smooth="yes"/>
      <point x="560" y="186" type="curve" smooth="yes"/>
      <point x="587" y="408" smooth="yes"/>
      <point x="588" y="412" smooth="yes"/>
      <point x="588" y="416" type="curve" smooth="yes"/>
      <point x="588" y="430" smooth="yes"/>
      <point x="583" y="444" smooth="yes"/>
      <point x="568" y="444" type="curve" smooth="yes"/>
    </contour>
  </outline>
</glyph>
<glyph name="registered" format="1">
  <advance width="800"/>
  <unicode hex="00AE"/>
  <outline>
    <contour>
      <point x="444" y="945" type="curve" smooth="yes" name="hr00"/>
      <point x="155" y="945" smooth="yes"/>
      <point x="60" y="707" smooth="yes"/>
      <point x="60" y="522" type="curve" smooth="yes"/>
      <point x="60" y="354" smooth="yes"/>
      <point x="141" y="208" smooth="yes"/>
      <point x="386" y="208" type="curve" smooth="yes"/>
      <point x="675" y="208" smooth="yes"/>
      <point x="770" y="447" smooth="yes"/>
      <point x="770" y="632" type="curve" smooth="yes"/>
      <point x="770" y="844" smooth="yes"/>
      <point x="635" y="945" smooth="yes"/>
    </contour>
    <contour>
      <point x="444" y="900" type="curve" smooth="yes"/>
      <point x="600" y="900" smooth="yes"/>
      <point x="710" y="814" smooth="yes"/>
      <point x="710" y="632" type="curve" smooth="yes"/>
      <point x="710" y="467" smooth="yes"/>
      <point x="630" y="253" smooth="yes"/>
      <point x="386" y="253" type="curve" smooth="yes"/>
      <point x="186" y="253" smooth="yes"/>
      <point x="120" y="378" smooth="yes"/>
      <point x="120" y="522" type="curve" smooth="yes"/>
      <point x="120" y="687" smooth="yes"/>
      <point x="200" y="900" smooth="yes"/>
    </contour>
    <contour>
      <point x="277" y="336" type="curve" smooth="yes"/>
      <point x="296" y="336" smooth="yes"/>
      <point x="306" y="340" smooth="yes"/>
      <point x="309" y="360" type="curve" smooth="yes"/>
      <point x="332" y="553" type="line"/>
      <point x="371" y="553" type="line" smooth="yes"/>
      <point x="437" y="553" smooth="yes"/>
      <point x="453" y="511" smooth="yes"/>
      <point x="479" y="435" type="curve" smooth="yes"/>
      <point x="507" y="355" type="line" smooth="yes"/>
      <point x="512" y="339" smooth="yes"/>
      <point x="521" y="336" smooth="yes"/>
      <point x="539" y="336" type="curve" smooth="yes"/>
      <point x="556" y="336" smooth="yes"/>
      <point x="571" y="345" smooth="yes"/>
      <point x="571" y="361" type="curve" smooth="yes"/>
      <point x="571" y="363" smooth="yes"/>
      <point x="570" y="366" smooth="yes"/>
      <point x="546" y="434" type="curve" smooth="yes"/>
      <point x="526" y="491"/>
      <point x="519" y="540"/>
      <point x="471" y="573" type="curve"/>
      <point x="542" y="584" smooth="yes"/>
      <point x="602" y="660" smooth="yes"/>
      <point x="602" y="721" type="curve" smooth="yes"/>
      <point x="602" y="806" smooth="yes"/>
      <point x="534" y="834" smooth="yes"/>
      <point x="444" y="834" type="curve" smooth="yes"/>
      <point x="370" y="834" smooth="yes"/>
      <point x="327" y="826" smooth="yes"/>
      <point x="323" y="825" type="curve" smooth="yes"/>
      <point x="311" y="823" smooth="yes"/>
      <point x="301" y="815" smooth="yes"/>
      <point x="300" y="804" type="curve" smooth="yes"/>
      <point x="247" y="363" type="line"/>
      <point x="247" y="342" smooth="yes"/>
      <point x="260" y="336" smooth="yes"/>
    </contour>
    <contour>
      <point x="339" y="609" type="line"/>
      <point x="359" y="774" type="line"/>
      <point x="387" y="779" smooth="yes"/>
      <point x="414" y="781" smooth="yes"/>
      <point x="440" y="781" type="curve" smooth="yes"/>
      <point x="489" y="781" smooth="yes"/>
      <point x="536" y="756" smooth="yes"/>
      <point x="536" y="710" type="curve" smooth="yes"/>
      <point x="536" y="637" smooth="yes"/>
      <point x="449" y="609" smooth="yes"/>
      <point x="397" y="609" type="curve" smooth="yes"/>
    </contour>
  </outline>
</glyph>
<glyph name="macron" format="1">
  <advance width="408"/>
  <unicode hex="00AF"/>
  <outline>
    <contour>
      <point x="102" y="712" type="line" smooth="yes" name="hr00"/>
      <point x="72" y="712" smooth="yes"/>
      <point x="65" y="693" smooth="yes"/>
      <point x="65" y="678" type="curve" smooth="yes"/>
      <point x="65" y="663" smooth="yes"/>
      <point x="72" y="651" smooth="yes"/>
      <point x="88" y="651" type="curve" smooth="yes"/>
      <point x="306" y="651" type="line" smooth="yes"/>
      <point x="336" y="651" smooth="yes"/>
      <point x="343" y="670" smooth="yes"/>
      <point x="343" y="685" type="curve" smooth="yes"/>
      <point x="343" y="700" smooth="yes"/>
      <point x="336" y="712" smooth="yes"/>
      <point x="320" y="712" type="curve" smooth="yes"/>
    </contour>
  </outline>
</glyph>
<glyph name="degree" format="1">
  <advance width="497"/>
  <unicode hex="00B0"/>
  <outline>
    <contour>
      <point x="70" y="646" type="curve" smooth="yes" name="hr00"/>
      <point x="70" y="558" smooth="yes"/>
      <point x="122" y="479" smooth="yes"/>
      <point x="231" y="479" type="curve" smooth="yes"/>
      <point x="362" y="479" smooth="yes"/>
      <point x="447" y="582" smooth="yes"/>
      <point x="447" y="702" type="curve" smooth="yes"/>
      <point x="447" y="791" smooth="yes"/>
      <point x="393" y="871" smooth="yes"/>
      <point x="285" y="871" type="curve" smooth="yes"/>
      <point x="132" y="871" smooth="yes"/>
      <point x="70" y="747" smooth="yes"/>
    </contour>
    <contour>
      <point x="137" y="654" type="curve" smooth="yes"/>
      <point x="137" y="727" smooth="yes"/>
      <point x="184" y="817" smooth="yes"/>
      <point x="279" y="817" type="curve" smooth="yes"/>
      <point x="349" y="817" smooth="yes"/>
      <point x="381" y="764" smooth="yes"/>
      <point x="381" y="695" type="curve" smooth="yes"/>
      <point x="381" y="610" smooth="yes"/>
      <point x="321" y="534" smooth="yes"/>
      <point x="236" y="534" type="curve" smooth="yes"/>
      <point x="168" y="534" smooth="yes"/>
      <point x="137" y="586" smooth="yes"/>
    </contour>
  </outline>
</glyph>
<glyph name="plusminus" format="1">
  <advance width="653"/>
  <unicode hex="00B1"/>
  <outline>
    <contour>
      <point x="71" y="122" type="line" smooth="yes" name="hr00"/>
      <point x="55" y="122" smooth="yes"/>
      <point x="45" y="106" smooth="yes"/>
      <point x="44" y="90" type="curve" smooth="yes"/>
      <point x="43" y="74" smooth="yes"/>
      <point x="47" y="56" smooth="yes"/>
      <point x="62" y="56" type="curve" smooth="yes"/>
      <point x="506" y="56" type="line" smooth="yes"/>
      <point x="521" y="56" smooth="yes"/>
      <point x="533" y="74" smooth="yes"/>
      <point x="534" y="90" type="curve" smooth="yes"/>
      <point x="535" y="106" smooth="yes"/>
      <point x="530" y="122" smooth="yes"/>
      <point x="514" y="122" type="curve" smooth="yes"/>
    </contour>
    <contour>
      <point x="255" y="192" type="line" smooth="yes"/>
      <point x="254" y="176" smooth="yes"/>
      <point x="268" y="169" smooth="yes"/>
      <point x="285" y="169" type="curve" smooth="yes"/>
      <point x="304" y="169" smooth="yes"/>
      <point x="320" y="176" smooth="yes"/>
      <point x="321" y="192" type="curve" smooth="yes"/>
      <point x="346" y="392" type="line"/>
      <point x="542" y="392" type="line" smooth="yes"/>
      <point x="559" y="392" smooth="yes"/>
      <point x="569" y="407" smooth="yes"/>
      <point x="570" y="423" type="curve" smooth="yes"/>
      <point x="572" y="440" smooth="yes"/>
      <point x="566" y="458" smooth="yes"/>
      <point x="548" y="458" type="curve" smooth="yes"/>
      <point x="355" y="458" type="line"/>
      <point x="377" y="645" type="line"/>
      <point x="380" y="661" smooth="yes"/>
      <point x="362" y="669" smooth="yes"/>
      <point x="346" y="669" type="curve" smooth="yes"/>
      <point x="330" y="669"/>
      <point x="314" y="661"/>
      <point x="311" y="645" type="curve"/>
      <point x="289" y="458" type="line"/>
      <point x="93" y="458" type="line" smooth="yes"/>
      <point x="78" y="458" smooth="yes"/>
      <point x="68" y="444" smooth="yes"/>
      <point x="66" y="427" type="curve" smooth="yes"/>
      <point x="65" y="412" smooth="yes"/>
      <point x="71" y="392" smooth="yes"/>
      <point x="86" y="392" type="curve" smooth="yes"/>
      <point x="281" y="392" type="line"/>
    </contour>
  </outline>
</glyph>
